<?xml version="1.0" encoding="UTF-8"?><svg id="uuid-d4c54009-c8de-433e-bc19-e9998af4c409" xmlns="http://www.w3.org/2000/svg" viewBox="0 0 175.03 55.91"><g id="uuid-6e874358-a0f2-4296-8ce7-bc474280652e"><g style="opacity:.1;"><path d="M172.03,55.06c-2.32,.43-5.08-.34-5.61-1.65-.87-2.15-1.65-4.31-2.46-6.47-.24-.63-.42-1.27-.75-1.89-.1-.2-.51-.42-.87-.51-2.97-.74-5.96-1.46-8.93-2.19-1.09-.27-2.16-.57-3.25-.84-.23-.06-.56-.09-.78-.03-3.1,.77-6.18,1.55-9.27,2.33-1.01,.26-2.06,.48-3.04,.76-.35,.1-.73,.32-.81,.53-.59,1.41-1.12,2.83-1.65,4.25-.48,1.28-.91,2.56-1.43,3.84-.47,1.14-2.08,1.92-3.96,2-2.01,.08-3.94-.52-4.51-1.56-.3-.55-.31-1.2-.11-1.76,.9-2.57,1.91-5.12,2.89-7.67,.23-.6,.43-1.2,.7-1.8,.36-.8,1.28-1.35,2.66-1.68,2.72-.66,5.42-1.34,8.15-1.99,.66-.16,.88-.37,.88-.75-.02-1.92-.01-3.85,0-5.77,0-.66,0-.66,1.16-.56,2.11,.2,3.76-.37,4.24-1.46,.44-.99-.66-1.92-2.65-2.25-2.54-.42-5.08-.84-7.63-1.25-.3-.05-.62-.05-.94-.07-.02,.05-.04,.1-.06,.14,.26,.06,.51,.14,.78,.18,2.63,.44,5.26,.86,7.88,1.3,1.58,.27,2.51,1.09,2.16,1.88-.41,.93-1.82,1.47-3.56,1.24-2.22-.29-4.4-.68-6.59-1.04-2.55-.41-5.09-.83-7.65-1.24-1.65-.26-2.58-.85-2.56-1.66,.02-.85,.95-1.44,2.68-1.64,3.69-.42,7.38-.85,11.08-1.22,1.57-.16,3.18-.19,4.78-.23,.47-.01,1.02,.1,1.41,.26,3.4,1.34,7.14,1.34,10.6,0,.39-.15,.96-.27,1.41-.25,3.01,.18,6.02,.37,9,.64,2.33,.21,4.63,.54,6.94,.83,1.54,.19,2.52,.82,2.59,1.52,0,.06,0,.11,0,.17-.03,.3-.22,.6-.6,.88-.43,.31-1.18,.56-1.88,.68-4.56,.77-9.13,1.51-13.71,2.25-1.93,.32-3.57-.09-4.13-1.01-.51-.86,.35-1.76,2.02-2.04,2.65-.45,5.31-.88,7.96-1.32,.25-.04,.49-.1,.73-.16-.02-.05-.03-.1-.05-.14-.28,.01-.57,0-.83,.04-2.66,.43-5.31,.86-7.96,1.31-1.49,.25-2.47,.97-2.51,1.79-.04,.77,.84,1.53,2.21,1.8,.54,.11,1.18,.11,1.76,.1,1.12-.03,1.13-.04,1.13,.6,0,1.83,.04,3.66-.02,5.49-.02,.5,.31,.73,1.1,.91,2.74,.64,5.42,1.34,8.17,1.96,2.23,.51,2.94,1.51,3.36,2.7,1,2.81,2.1,5.61,3.15,8.42,0,0,.03,.02,.08,.04,.02,0,.04,.02,.06,.02v-.47c0-7.71,0-15.42,0-23.13,0-9.24,.03-28.03,.05-28.18H0V26.3c1.4-.59,3.12-.67,4.75-.87,2.79-.34,5.6-.63,8.41-.88,1.58-.14,3.19-.18,4.78-.22,.44,0,.95,.11,1.32,.25,3.4,1.35,7.18,1.34,10.59,0,.38-.15,.96-.27,1.41-.24,3.51,.23,7.02,.48,10.51,.79,1.8,.16,3.57,.44,5.35,.66,1.61,.2,2.61,.78,2.68,1.56,.07,.78-.8,1.44-2.37,1.7-4.68,.77-9.35,1.55-14.05,2.28-2.39,.37-4.27-.49-3.96-1.78,.16-.68,.93-1.11,2.09-1.3,2.65-.45,5.31-.88,7.96-1.32,.27-.05,.52-.12,.78-.18-.03-.06-.07-.11-.1-.17-.66,.09-1.33,.17-1.98,.27-2.25,.36-4.49,.73-6.73,1.11-1.79,.3-2.8,1.18-2.52,2.18,.26,.94,1.79,1.63,3.66,1.52,1.73-.1,1.44,.13,1.44,.77,0,1.78,.04,3.56-.03,5.34-.02,.51,.36,.71,1.13,.89,2.78,.66,5.53,1.36,8.31,2.02,1.61,.38,2.54,1.05,2.89,1.97,.85,2.25,1.68,4.5,2.51,6.75,.35,.96,.77,1.91,1.04,2.87,.41,1.47-1.15,2.68-3.61,2.89-2.5,.22-4.64-.71-5.16-2.16-.91-2.54-1.91-5.08-2.84-7.63-.18-.49-.62-.77-1.48-.97-3.57-.84-7.15-1.68-10.65-2.61-1.17-.31-1.97-.26-3.09,.03-3.58,.94-7.23,1.8-10.88,2.67-.67,.16-1,.38-1.14,.78-.97,2.64-2,5.27-3,7.9-.38,1.01-1.48,1.67-3.26,1.93-1.69,.25-3.15-.04-4.38-.72-.12-.06-.26-.12-.39-.18,0,.57,0,1.13,0,1.7H175.03v-2.29s-.07,.06-.11,.1c-.74,.63-1.6,1.11-2.89,1.35Zm-134.29,.02c-1.69-.58-2.46-1.67-1.91-2.74,.61-1.19,1.23-2.39,1.87-3.58,.1-.2,.31-.38,.47-.57,.09,0,.17,0,.26,.02,.25,.65,.5,1.3,.76,1.95,.44,1.12,.79,2.26,1.35,3.36,.29,.55,.97,1.04,1.51,1.6-.97,.43-2.97,.42-4.31-.03ZM149.64,16.47c4.44,0,7.99,1.93,8.02,4.35,.03,2.47-3.5,4.47-7.97,4.5-4.39,.03-8.04-1.96-8.07-4.4-.03-2.48,3.53-4.45,8.02-4.45Zm-31.04-6.19c4.49,0,8.07,1.94,8.1,4.42,.03,2.42-3.52,4.41-7.9,4.43-4.54,.02-8.1-1.91-8.13-4.39-.03-2.46,3.51-4.45,7.93-4.46Zm-31.44,6.19c4.54,.02,8.02,2,7.97,4.53-.04,2.33-3.77,4.35-7.96,4.32-4.6-.03-8.12-1.98-8.08-4.48,.04-2.47,3.59-4.4,8.07-4.37Zm-31.16-6.19c4.47,0,8.06,1.98,8.04,4.45-.01,2.46-3.55,4.4-8.02,4.4-4.44,0-8.02-1.97-8.02-4.41,0-2.44,3.59-4.43,8-4.44Zm-31.43,15.01c-4.42,0-8.06-1.98-8.09-4.4-.03-2.45,3.61-4.44,8.09-4.43,4.49,.01,8.07,2,8.04,4.46-.02,2.38-3.68,4.37-8.04,4.37Zm31.61,9.25c-2.12,.03-1.62-.1-2.19,.95-1.6,2.94-3.13,5.89-4.69,8.84-.2,.37-.4,.74-.61,1.12-.09,0-.18,.02-.27,.02-.14-.22-.33-.43-.42-.65-.32-.8-.62-1.6-.92-2.4-.41-1.07-1.6-1.78-3.4-2.21-1.27-.3-1.28-.32-.9-1.04,1.07-2.06,2.21-4.11,3.2-6.17,.29-.61,.18-1.28,.24-1.92,.02-.19,0-.38,0-.57q0-.84,1.46-1.05c1.83-.27,3-1.07,2.99-2.04-.01-1-1.2-1.84-3.17-2.06-1.41-.16-1.27-.37-1.27-.93-.01-1.12,.04-2.24-.03-3.36-.02-.28-.27-.62-.63-.82-2.87-1.56-5.78-3.1-8.72-4.62-1.09-.56-1.56-1.19-1.5-2.01,.24-3.78,.42-7.56,.63-11.34,.06-1.06,1.29-1.72,3.07-1.69,1.66,.03,2.89,.76,2.84,1.78-.14,3.06-.32,6.11-.49,9.17q-.1,1.92,2.4,3.24c2.04,1.08,4.09,2.16,6.14,3.23,3.89,2.04,9.47,1.79,12.95-.46,1.9-1.23,4.13-2.31,6.29-3.41,.87-.45,1.22-.89,1.18-1.56-.21-3.35-.32-6.71-.46-10.07-.01-.28,0-.58,.15-.84,.38-.71,1.6-1.12,2.99-1.08,1.29,.04,2.37,.55,2.64,1.27,.08,.23,.15,.47,.16,.7,.17,3.72,.31,7.44,.52,11.16,.04,.79-.44,1.38-1.48,1.92-2.9,1.5-5.74,3.03-8.62,4.54-.5,.26-.72,.53-.71,.91,.03,1.15-.01,2.3,.02,3.45,.01,.45-.25,.68-1.12,.77-1.6,.16-2.81,.64-3.26,1.54-.43,.85-.04,1.63,1.23,2.16,.65,.27,1.53,.39,2.35,.5,.54,.08,.83,.17,.8,.49,0,.03,0,.06,0,.09-.5,2.23,.82,4.29,1.96,6.37,.52,.95,1,1.91,1.54,2.85,.25,.44,.06,.71-.76,.88-2.23,.45-3.36,1.38-3.74,2.65-.28,.92-.71,1.83-1.07,2.75-.11,0-.23,0-.35,.02-.35-.62-.73-1.24-1.06-1.87-1.52-2.89-3.04-5.77-4.54-8.66-.21-.4-.58-.54-1.34-.53Zm19.43,19.51c-1.09,1.25-3.09,1.51-5.25,1.3-.25-.03-.48-.15-.75-.24,.11-.11,.15-.19,.25-.24,1.04-.55,1.47-1.26,1.74-2.01,.5-1.34,.98-2.68,1.49-4.02,.07-.18,.26-.36,.4-.54,.09,0,.19,.01,.28,.02,.62,1.19,1.22,2.39,1.87,3.57,.4,.73,.58,1.45-.04,2.16Zm25.69,1.25c-2.09-.36-3.34-1.44-2.88-2.62,.56-1.47,1.4-2.91,2.12-4.36,.1,0,.21-.02,.32-.03,.15,.21,.34,.41,.43,.63,.58,1.48,1.06,2.97,1.74,4.43,.28,.6,.98,1.15,1.58,1.82-.97,.38-2.18,.33-3.3,.13Zm7.78-.17c-2.12,.29-4.6-.47-5.14-1.64-.66-1.45-1.17-2.92-1.73-4.38-.5-1.31-1-2.62-1.46-3.93-.15-.42-.65-.59-1.28-.74-3.61-.88-7.25-1.72-10.8-2.66-1.12-.3-1.89-.28-3,.02-3.5,.93-7.07,1.77-10.65,2.61-.95,.22-1.37,.54-1.55,1.11-.54,1.64-1.2,3.27-1.83,4.9-.37,.98-.71,1.98-1.16,2.95-.59,1.28-3.01,2.08-5.22,1.77-2.47-.35-3.88-1.6-3.37-2.95,1.21-3.21,2.4-6.41,3.61-9.62,.33-.87,1.26-1.5,2.76-1.86,2.65-.64,5.27-1.3,7.93-1.92,.77-.18,1.06-.42,1.05-.89-.04-1.89-.02-3.78-.02-5.67,0-.67,.05-.69,1.26-.57,1.94,.18,3.73-.38,4.14-1.29,.5-1.12-.51-2.08-2.55-2.42-2.52-.41-5.03-.83-7.55-1.24-.31-.05-.64-.06-.96-.09-.03,.06-.06,.13-.09,.19,.96,.17,1.92,.34,2.88,.49,1.91,.32,3.84,.61,5.75,.94,1.64,.28,2.45,1.06,2.08,1.94-.36,.85-1.71,1.38-3.37,1.19-1.84-.22-3.63-.54-5.44-.84-2.99-.48-5.97-.97-8.96-1.46-1.27-.2-2.22-.57-2.49-1.33-.22-.61,.13-1.14,.98-1.52,.45-.2,1.04-.35,1.61-.41,3.74-.44,7.48-.88,11.25-1.25,1.54-.15,3.12-.18,4.69-.22,.47,0,1.01,.11,1.41,.26,3.46,1.33,7.08,1.32,10.53,0,.45-.18,1.11-.28,1.66-.26,3.98,.08,7.89,.47,11.77,.95,1.31,.16,2.61,.34,3.92,.5,1.49,.18,2.54,.76,2.63,1.48,.09,.85-.71,1.5-2.3,1.76-3.99,.66-7.99,1.31-12,1.95-.85,.14-1.69,.3-2.56,.38-1.69,.17-3.13-.34-3.51-1.18-.37-.84,.5-1.67,2.11-1.95,2.65-.45,5.31-.87,7.96-1.32,.29-.05,.55-.14,.83-.21-.03-.05-.06-.1-.09-.15-.29,.03-.58,.04-.86,.09-2.66,.43-5.31,.86-7.97,1.3-1.75,.29-2.82,1.23-2.5,2.14,.35,1.01,1.8,1.62,3.71,1.57,.11,0,.23,0,.34-.01,1-.05,1.04-.03,1.05,.54,0,1.25,0,2.49,0,3.74,0,.63,.04,1.26-.02,1.89-.04,.41,.24,.62,.92,.78,2.83,.67,5.64,1.38,8.47,2.05,1.69,.41,2.6,1.1,2.97,2.09,.92,2.55,1.92,5.09,2.88,7.63,.26,.68,.53,1.36,.75,2.04,.38,1.19-1.19,2.41-3.45,2.72Zm10.07-20.58c-2.3,.02-1.91-.17-2.51,.96-1.67,3.18-3.35,6.35-5.04,9.52-.1,.2-.3,.39-.45,.58-.09,0-.19-.02-.28-.03-.36-.92-.79-1.83-1.06-2.76-.37-1.26-1.54-2.14-3.68-2.64-1.05-.24-1.09-.31-.77-.93,1.05-1.98,2.14-3.95,3.12-5.94,.27-.55,.25-1.15,.33-1.73,.04-.28,0-.57,0-.85q0-1.02,1.7-1.32c1.58-.27,2.65-1.04,2.68-1.93,.03-.93-.95-1.71-2.55-2.03q-1.83-.37-1.83-1.47c0-.99,.04-1.99-.04-2.98-.02-.26-.26-.59-.6-.77-2.9-1.57-5.82-3.12-8.78-4.65-.97-.5-1.41-1.06-1.37-1.8,.19-3.73,.33-7.47,.52-11.2,.02-.4,.17-.83,.49-1.18,.6-.67,1.99-.96,3.29-.77,1.24,.18,2.14,.78,2.13,1.54-.03,1.81-.12,3.62-.19,5.43-.07,1.86-.17,3.72-.23,5.58,0,.17,.15,.38,.37,.5,2.99,1.58,5.9,3.21,9.05,4.7,3.34,1.58,8.28,1.33,11.36-.4,2.24-1.26,4.46-2.53,6.81-3.73,1.12-.57,1.48-1.15,1.41-1.98-.26-3.2-.39-6.4-.55-9.59-.02-.31,.02-.64,.18-.93,.44-.83,1.74-1.26,3.31-1.14,1.34,.1,2.37,.74,2.41,1.56,.16,3.02,.3,6.05,.45,9.07,.04,.84,.1,1.67,.19,2.5,.07,.73-.39,1.31-1.35,1.81-2.95,1.54-5.86,3.1-8.8,4.64-.52,.27-.75,.55-.74,.95,.04,1.15,0,2.3,.02,3.45,.01,.42-.28,.62-1.04,.7-2.25,.26-3.47,.98-3.51,2.04-.05,1.19,1.4,2.11,3.57,2.17,.84,.02,1.06,.21,.98,.61-.43,2.08,.72,4.02,1.8,5.96,.58,1.04,1.11,2.08,1.65,3.13,.36,.71,.36,.73-.88,1.01-1.82,.42-3.01,1.12-3.43,2.19-.31,.81-.61,1.63-.94,2.45-.08,.21-.26,.41-.39,.62-.09,0-.19-.01-.28-.02-.38-.7-.78-1.4-1.15-2.1-1.48-2.8-2.97-5.59-4.42-8.39-.16-.3-.41-.42-.95-.42Zm18.13,20.25c-1.26,.67-2.8,.7-4.41,.53-.11-.01-.21-.05-.3-.08-.11-.05-.22-.1-.46-.21,2.18-1.07,2.07-2.57,2.69-3.93,.44-.96,.75-1.93,1.33-2.93,.17,.16,.39,.31,.48,.49,.67,1.25,1.35,2.5,1.95,3.77,.44,.91-.07,1.71-1.29,2.36Z" style="fill:#fff;"/><path d="M164.58,26.92c.25-.04,.49-.1,.73-.16-.02-.05-.03-.1-.05-.14-.28,.01-.57,0-.83,.04-2.66,.43-5.31,.86-7.96,1.31-1.49,.25-2.47,.97-2.51,1.79-.04,.77,.84,1.53,2.21,1.8,.54,.11,1.18,.11,1.76,.1,1.12-.03,1.13-.04,1.13,.6,0,1.83,.04,3.66-.02,5.49-.02,.5,.31,.73,1.1,.91,2.74,.64,5.42,1.34,8.17,1.96,2.23,.51,2.94,1.51,3.36,2.7,1,2.81,2.1,5.61,3.15,8.42,0,0,.03,.02,.08,.04v1.95c-.74,.63-1.6,1.11-2.89,1.35-2.32,.43-5.08-.34-5.61-1.65-.87-2.15-1.65-4.31-2.46-6.47-.24-.63-.42-1.27-.75-1.89-.1-.2-.51-.42-.87-.51-2.97-.74-5.96-1.46-8.93-2.19-1.09-.27-2.16-.57-3.25-.84-.23-.06-.56-.09-.78-.03-3.1,.77-6.18,1.55-9.27,2.33-1.01,.26-2.06,.48-3.04,.76-.35,.1-.73,.32-.81,.53-.59,1.41-1.12,2.83-1.65,4.25-.48,1.28-.91,2.56-1.43,3.84-.47,1.14-2.08,1.92-3.96,2-2.01,.08-3.94-.52-4.51-1.56-.3-.55-.31-1.2-.11-1.76,.9-2.57,1.91-5.12,2.89-7.67,.23-.6,.43-1.2,.7-1.8,.36-.8,1.28-1.35,2.66-1.68,2.72-.66,5.42-1.34,8.15-1.99,.66-.16,.88-.37,.88-.75-.02-1.92-.01-3.85,0-5.77,0-.66,0-.66,1.16-.56,2.11,.2,3.76-.37,4.24-1.46,.44-.99-.66-1.92-2.65-2.25-2.54-.42-5.08-.84-7.63-1.25-.3-.05-.62-.05-.94-.07-.02,.05-.04,.1-.06,.14,.26,.06,.51,.14,.78,.18,2.63,.44,5.26,.86,7.88,1.3,1.58,.27,2.51,1.09,2.16,1.88-.41,.93-1.82,1.47-3.56,1.24-2.22-.29-4.4-.68-6.59-1.04-2.55-.41-5.09-.83-7.65-1.24-1.65-.26-2.58-.85-2.56-1.66,.02-.85,.95-1.44,2.68-1.64,3.69-.42,7.38-.85,11.08-1.22,1.57-.16,3.18-.19,4.78-.23,.47-.01,1.02,.1,1.41,.26,3.4,1.34,7.14,1.34,10.6,0,.39-.15,.96-.27,1.41-.25,3.01,.18,6.02,.37,9,.64,2.33,.21,4.63,.54,6.94,.83,1.54,.19,2.52,.82,2.59,1.52v.17c-.03,.3-.22,.6-.6,.88-.43,.31-1.18,.56-1.88,.68-4.56,.77-9.13,1.51-13.71,2.25-1.93,.32-3.57-.09-4.13-1.01-.51-.86,.35-1.76,2.02-2.04,2.65-.45,5.31-.88,7.96-1.32Z"/><path d="M0,26.3c1.4-.59,3.12-.67,4.75-.87,2.79-.34,5.59-.63,8.41-.88,1.57-.14,3.18-.18,4.78-.22,.44,0,.95,.11,1.32,.25,3.4,1.35,7.18,1.34,10.59,0,.39-.15,.96-.27,1.41-.24,3.51,.24,7.02,.48,10.52,.79,1.8,.16,3.56,.44,5.35,.66,1.61,.2,2.61,.78,2.68,1.55,.07,.78-.8,1.44-2.37,1.7-4.68,.77-9.35,1.55-14.05,2.28-2.39,.37-4.27-.49-3.96-1.78,.16-.68,.93-1.11,2.09-1.3,2.65-.45,5.31-.88,7.96-1.32,.27-.04,.52-.12,.78-.18-.03-.06-.07-.11-.1-.17-.66,.09-1.33,.17-1.99,.27-2.25,.36-4.49,.73-6.73,1.11-1.79,.3-2.81,1.18-2.52,2.18,.26,.94,1.79,1.63,3.66,1.52,1.73-.09,1.44,.13,1.44,.77,0,1.78,.04,3.56-.03,5.34-.02,.51,.36,.71,1.13,.89,2.78,.66,5.53,1.36,8.31,2.02,1.61,.38,2.54,1.05,2.89,1.97,.85,2.25,1.68,4.5,2.51,6.75,.35,.96,.77,1.91,1.04,2.87,.41,1.47-1.15,2.68-3.61,2.89-2.5,.21-4.64-.71-5.16-2.16-.92-2.55-1.91-5.09-2.84-7.63-.18-.5-.62-.77-1.48-.98-3.58-.84-7.16-1.67-10.65-2.61-1.17-.31-1.97-.26-3.09,.03-3.58,.94-7.24,1.8-10.88,2.67-.67,.16-1,.38-1.15,.79-.97,2.64-2,5.27-3,7.9-.38,1.01-1.48,1.66-3.26,1.93-1.69,.25-3.15-.04-4.38-.72-.12-.07-.26-.12-.39-.18,0-1.32,0-2.65,0-3.97,.07-.09,.16-.17,.19-.26,.83-2.22,1.74-4.43,2.46-6.66,.44-1.37,1.47-2.34,3.98-2.84,2.46-.49,4.8-1.17,7.22-1.74,.67-.16,.88-.37,.87-.75-.03-1.92-.01-3.84-.01-5.77q0-.69,1.21-.57c2.01,.19,3.76-.37,4.21-1.36,.44-.97-.53-1.98-2.31-2.29-2.7-.47-5.42-.89-8.13-1.33-.26-.04-.54-.02-.82-.03-.01,.05-.02,.09-.03,.14,.26,.05,.51,.11,.77,.16,2.68,.44,5.36,.88,8.04,1.33,1.09,.19,1.81,.59,2,1.23,.2,.66-.15,1.22-1.15,1.62-.97,.4-2.04,.34-3.12,.17-3.01-.49-6.04-.95-9.03-1.48-2.14-.38-4.41-.54-6.35-1.23v-2.27Z"/><path d="M0,28.57c1.94,.69,4.21,.85,6.35,1.23,2.99,.53,6.02,.99,9.03,1.48,1.08,.17,2.15,.23,3.12-.17,.99-.41,1.35-.96,1.15-1.62-.19-.64-.92-1.05-2-1.23-2.67-.46-5.36-.89-8.04-1.33-.26-.04-.51-.1-.77-.16,.01-.05,.02-.09,.03-.14,.27,0,.56-.01,.82,.03,2.71,.43,5.43,.86,8.13,1.33,1.78,.31,2.75,1.32,2.31,2.29-.45,.99-2.2,1.56-4.21,1.36q-1.21-.12-1.21,.57c0,1.92-.01,3.85,.01,5.77,0,.38-.2,.6-.87,.75-2.42,.57-4.76,1.24-7.22,1.74-2.51,.5-3.54,1.47-3.98,2.84-.72,2.23-1.63,4.44-2.46,6.66-.03,.09-.13,.17-.19,.26,0-7.22,0-14.44,0-21.66Z" style="fill:#fff;"/><path d="M71.47,26.8c.96,.16,1.92,.33,2.88,.49,1.91,.32,3.84,.62,5.75,.94,1.64,.28,2.45,1.06,2.08,1.94-.36,.86-1.71,1.39-3.37,1.19-1.84-.22-3.63-.54-5.44-.84-2.99-.48-5.97-.98-8.95-1.46-1.27-.2-2.22-.57-2.49-1.33-.22-.61,.13-1.14,.98-1.52,.44-.2,1.04-.35,1.6-.41,3.74-.44,7.48-.88,11.25-1.25,1.54-.15,3.13-.18,4.69-.22,.47,0,1.01,.11,1.41,.26,3.46,1.33,7.08,1.33,10.53,0,.45-.17,1.11-.27,1.66-.26,3.98,.08,7.89,.47,11.77,.95,1.31,.16,2.61,.34,3.92,.5,1.49,.18,2.54,.76,2.62,1.47,.1,.85-.71,1.5-2.3,1.76-3.99,.66-7.99,1.31-11.99,1.95-.85,.14-1.69,.3-2.56,.38-1.69,.17-3.13-.34-3.5-1.18-.37-.84,.49-1.67,2.11-1.95,2.64-.45,5.31-.87,7.96-1.31,.29-.05,.55-.14,.83-.21-.03-.05-.06-.1-.09-.15-.29,.03-.58,.04-.86,.09-2.66,.43-5.32,.86-7.97,1.3-1.75,.29-2.82,1.23-2.5,2.14,.35,1.01,1.79,1.62,3.71,1.57,.11,0,.23,0,.34-.01,1-.05,1.04-.03,1.05,.55,0,1.25,0,2.49,0,3.74,0,.63,.04,1.26-.02,1.89-.04,.41,.24,.62,.92,.78,2.83,.67,5.64,1.38,8.47,2.05,1.7,.4,2.61,1.1,2.97,2.09,.92,2.55,1.92,5.09,2.88,7.63,.26,.68,.53,1.35,.75,2.04,.38,1.19-1.19,2.41-3.45,2.72-2.11,.29-4.6-.47-5.13-1.64-.66-1.45-1.17-2.92-1.73-4.38-.5-1.31-1-2.62-1.46-3.93-.15-.42-.66-.59-1.28-.74-3.61-.87-7.25-1.72-10.8-2.66-1.12-.3-1.89-.28-3,.01-3.5,.93-7.07,1.77-10.65,2.61-.96,.22-1.37,.55-1.55,1.11-.54,1.64-1.2,3.27-1.82,4.9-.37,.99-.71,1.98-1.16,2.95-.59,1.28-3.01,2.08-5.22,1.77-2.47-.35-3.88-1.6-3.37-2.95,1.21-3.21,2.39-6.41,3.61-9.62,.33-.87,1.25-1.5,2.76-1.86,2.64-.64,5.27-1.3,7.93-1.92,.77-.18,1.06-.42,1.05-.89-.04-1.89-.02-3.78-.02-5.67,0-.67,.05-.69,1.26-.58,1.94,.18,3.73-.38,4.14-1.29,.5-1.12-.51-2.08-2.55-2.42-2.52-.41-5.03-.83-7.55-1.24-.31-.05-.64-.06-.96-.09-.03,.06-.06,.13-.09,.19Z"/><path d="M63.12,45.62c-.35-.62-.73-1.24-1.06-1.87-1.52-2.89-3.05-5.77-4.54-8.67-.21-.4-.58-.54-1.34-.53-2.12,.03-1.62-.1-2.19,.95-1.59,2.94-3.13,5.89-4.69,8.84-.2,.37-.4,.74-.61,1.11-.09,0-.18,.02-.27,.03-.14-.22-.33-.43-.42-.65-.33-.8-.62-1.6-.92-2.4-.41-1.07-1.6-1.78-3.4-2.21-1.26-.3-1.27-.32-.9-1.04,1.07-2.06,2.21-4.11,3.2-6.17,.29-.61,.17-1.28,.24-1.92,.02-.19,0-.38,0-.57q0-.84,1.46-1.05c1.83-.27,3-1.07,2.99-2.04-.01-1-1.2-1.84-3.17-2.06-1.41-.16-1.27-.37-1.27-.93,0-1.12,.04-2.24-.03-3.36-.02-.28-.27-.62-.63-.82-2.87-1.56-5.78-3.1-8.72-4.62-1.09-.56-1.56-1.19-1.5-2.01,.24-3.78,.42-7.56,.63-11.34,.06-1.06,1.28-1.72,3.07-1.69,1.66,.03,2.89,.76,2.84,1.78-.14,3.06-.32,6.11-.49,9.17q-.11,1.92,2.39,3.24c2.05,1.08,4.09,2.16,6.14,3.23,3.89,2.04,9.48,1.79,12.95-.46,1.9-1.23,4.14-2.31,6.29-3.41,.87-.44,1.22-.89,1.18-1.56-.21-3.36-.32-6.71-.46-10.07-.01-.28,0-.58,.15-.84,.39-.7,1.6-1.12,2.98-1.08,1.3,.04,2.37,.55,2.64,1.27,.08,.23,.15,.47,.16,.7,.17,3.72,.31,7.44,.52,11.16,.04,.79-.44,1.38-1.48,1.92-2.9,1.5-5.74,3.03-8.62,4.54-.5,.26-.72,.53-.71,.91,.03,1.15-.01,2.3,.02,3.45,.01,.45-.25,.68-1.12,.77-1.59,.16-2.81,.63-3.26,1.54-.43,.85-.04,1.63,1.23,2.16,.65,.27,1.53,.39,2.34,.5,.54,.07,.83,.17,.8,.49,0,.03,0,.06,0,.09-.5,2.23,.82,4.29,1.96,6.37,.52,.95,1,1.91,1.54,2.85,.25,.44,.06,.71-.76,.88-2.23,.45-3.36,1.38-3.74,2.65-.28,.92-.7,1.83-1.06,2.75l-.35,.02Z"/><path d="M110.86,45.59c-.36-.92-.79-1.83-1.06-2.76-.37-1.26-1.54-2.14-3.68-2.64-1.05-.24-1.09-.31-.77-.93,1.04-1.98,2.14-3.95,3.12-5.94,.27-.55,.25-1.15,.33-1.73,.04-.28,0-.57,0-.85q0-1.03,1.7-1.32c1.58-.27,2.65-1.04,2.68-1.93,.03-.93-.95-1.71-2.55-2.03q-1.83-.36-1.83-1.47c0-.99,.04-1.99-.04-2.98-.02-.27-.26-.59-.6-.77-2.9-1.57-5.82-3.12-8.78-4.65-.97-.5-1.41-1.06-1.37-1.8,.19-3.73,.33-7.47,.52-11.2,.02-.4,.17-.83,.48-1.18,.6-.67,1.99-.96,3.29-.77,1.24,.18,2.14,.78,2.13,1.54-.03,1.81-.12,3.62-.19,5.44-.08,1.86-.17,3.72-.23,5.58,0,.17,.15,.38,.37,.5,2.99,1.58,5.91,3.21,9.05,4.7,3.34,1.58,8.28,1.33,11.36-.4,2.24-1.26,4.46-2.53,6.81-3.73,1.12-.57,1.48-1.15,1.41-1.98-.26-3.2-.39-6.4-.55-9.59-.02-.31,.02-.64,.18-.93,.44-.83,1.74-1.26,3.31-1.14,1.34,.1,2.36,.74,2.41,1.55,.16,3.02,.3,6.05,.45,9.08,.04,.83,.1,1.67,.19,2.5,.07,.73-.39,1.31-1.35,1.81-2.95,1.54-5.86,3.1-8.8,4.64-.52,.27-.75,.55-.74,.95,.04,1.15,0,2.3,.02,3.45,.01,.42-.28,.62-1.04,.7-2.25,.26-3.47,.98-3.51,2.04-.05,1.19,1.4,2.11,3.57,2.17,.84,.02,1.06,.21,.97,.61-.43,2.08,.72,4.02,1.8,5.96,.58,1.04,1.11,2.08,1.65,3.13,.36,.71,.36,.73-.88,1.01-1.81,.42-3.01,1.12-3.43,2.19-.31,.82-.61,1.63-.94,2.45-.09,.21-.26,.41-.39,.62-.09,0-.19-.01-.28-.02-.38-.7-.78-1.4-1.15-2.1-1.48-2.8-2.97-5.59-4.42-8.39-.15-.3-.41-.42-.95-.42-2.3,.02-1.92-.17-2.51,.96-1.67,3.17-3.36,6.35-5.04,9.52-.11,.2-.3,.39-.45,.58-.09-.01-.18-.02-.27-.03Z"/><path d="M48,14.72c0-2.44,3.59-4.43,8-4.44,4.48,0,8.06,1.97,8.05,4.45-.01,2.46-3.55,4.4-8.02,4.4-4.44,0-8.02-1.97-8.03-4.41Z"/><path d="M126.71,14.71c.03,2.42-3.52,4.41-7.9,4.43-4.54,.02-8.11-1.9-8.13-4.39-.03-2.46,3.51-4.45,7.93-4.46,4.5-.01,8.07,1.94,8.1,4.42Z"/><path d="M24.57,25.3c-4.42,0-8.06-1.98-8.09-4.39-.03-2.45,3.61-4.45,8.09-4.43,4.49,.01,8.07,2,8.05,4.46-.03,2.38-3.68,4.37-8.05,4.37Z"/><path d="M141.63,20.92c-.03-2.48,3.52-4.45,8.02-4.45,4.44,0,7.99,1.93,8.02,4.35,.03,2.48-3.5,4.47-7.97,4.5-4.39,.03-8.04-1.96-8.06-4.4Z"/><path d="M87.16,16.47c4.54,.02,8.02,2,7.97,4.53-.04,2.33-3.76,4.35-7.96,4.32-4.6-.03-8.12-1.98-8.08-4.48,.04-2.47,3.59-4.39,8.07-4.37Z"/><path d="M42.05,55.11c-.96,.43-2.97,.43-4.3-.03-1.7-.58-2.46-1.67-1.91-2.74,.61-1.19,1.23-2.39,1.86-3.58,.11-.2,.31-.38,.47-.57,.09,0,.17,.01,.26,.02,.25,.65,.5,1.3,.76,1.95,.44,1.12,.79,2.26,1.36,3.36,.29,.55,.97,1.04,1.51,1.6Z"/><path d="M132.1,55.04c2.18-1.07,2.07-2.57,2.69-3.93,.44-.96,.75-1.93,1.33-2.93,.16,.16,.39,.31,.48,.49,.67,1.25,1.35,2.5,1.95,3.76,.44,.92-.07,1.71-1.29,2.37-1.26,.67-2.8,.7-4.4,.53-.11-.01-.21-.05-.3-.08-.12-.04-.22-.1-.46-.21Z"/><path d="M104.59,55.17c-.97,.38-2.18,.33-3.3,.13-2.09-.36-3.34-1.44-2.88-2.62,.56-1.47,1.4-2.91,2.12-4.36,.11,0,.21-.02,.32-.03,.15,.21,.34,.42,.43,.63,.58,1.48,1.06,2.97,1.74,4.43,.28,.6,.98,1.15,1.58,1.82Z"/><path d="M73.77,48.32c.62,1.19,1.22,2.38,1.87,3.57,.4,.73,.58,1.45-.04,2.16-1.09,1.25-3.09,1.51-5.25,1.3-.25-.03-.47-.15-.75-.23,.11-.11,.15-.19,.25-.24,1.04-.55,1.47-1.26,1.75-2.01,.5-1.34,.98-2.68,1.49-4.02,.07-.19,.26-.36,.4-.54,.09,0,.19,.01,.28,.02Z"/></g></g></svg>