<?xml version="1.0" encoding="UTF-8"?><svg id="uuid-92a03478-7625-4077-a847-c9cb71307454" xmlns="http://www.w3.org/2000/svg" viewBox="0 0 223.16 62.52"><g id="uuid-1d8df465-11f7-4ffe-9bfc-401c31cfdea8"><g style="opacity:.1;"><path d="M112.06,62.52H0V0H112.06V62.52ZM62.69,15.65c-.2,.42-.34,.71-.47,.99-2.12,4.59-5.29,8.18-9.92,10.36-1.63,.76-3.33,1.18-5.14,.99-.19-.02-.37-.18-.55-.28,.12-.16,.2-.39,.36-.48,.44-.26,.91-.49,1.37-.71,3.19-1.47,5.87-3.54,7.79-6.53,1.46-2.26,2.37-4.73,2.78-7.38,.07-.44,.02-1.07-.24-1.37-1.31-1.46-2.68-2.88-4.11-4.22-1.54-1.44-3.39-2.22-5.54-2.19-2.3,.04-3.63,.93-4.21,3.15-.52,1.99-.87,4.02-1.17,6.06-.27,1.87-.89,3.51-2.54,4.52-1.14,.7-2.36,1.36-3.63,1.74-2.58,.78-5.2,1.44-7.83,2.02-2.27,.5-4.54,.37-6.71-.63-2.16-.99-3.69-2.65-4.94-4.61-.93-1.45-1.9-2.87-3.32-3.9-1.12-.82-2.36-1.08-3.69-.7-2.16,.63-3.65,2.05-4.58,4.07-1.2,2.59-1.5,5.35-1.32,8.13,.18,2.69,.69,5.35,1,8.03,.08,.74,.38,.96,1.09,1.05,3.94,.5,7.89,.98,11.82,1.61,3.17,.51,6.33,1.14,9.45,1.89,4.36,1.04,8.7,2.19,13.02,3.39,4.56,1.27,9.11,2.58,13.62,3.99,3.64,1.14,7.37,1.9,11.12,2.48,3.08,.47,6.18,.84,9.29,1.05,7.02,.48,13.99,.29,20.78-1.87,3.69-1.17,7.07-2.9,10.08-5.36,.67-.55,.79-1.11,.51-1.87-.92-2.46-2.86-3.7-5.27-4.24-2.68-.59-5.41-.95-8.1-1.51-2.71-.57-5.41-1.19-8.07-1.95-3.04-.87-5.74-2.52-8.38-4.24-.49-.32-.76-.35-1.1,.21-.97,1.59-2.23,2.93-3.88,3.85-.41,.23-.89,.33-1.34,.48-.06-.09-.12-.18-.17-.27,.22-.36,.44-.73,.67-1.09,.87-1.42,1.75-2.84,2.62-4.26,.34-.55,.27-.96-.3-1.35-1.07-.74-2.1-1.54-3.12-2.35-.49-.39-.69-.31-.98,.24-1.54,2.97-3.62,5.51-6.53,7.22-1.07,.63-2.36,.91-3.56,1.31-.18,.06-.43-.12-.65-.19,.08-.16,.13-.37,.26-.49,.36-.34,.74-.65,1.13-.95,2.93-2.28,5.22-5.03,6.37-8.63,.44-1.39,.49-1.37-.61-2.37-1.03-.94-2.06-1.87-3.17-2.88Zm43.63,28.07c-.05-.04-.11-.08-.16-.12-.14,.07-.3,.12-.42,.21-3.46,2.55-7.33,4.25-11.45,5.4-4.6,1.28-9.33,1.63-14.07,1.76-4.45,.12-8.89-.21-13.3-.79-3.84-.5-7.67-1.06-11.43-2.06-6.54-1.75-13.07-3.52-19.65-5.1-5-1.2-10.05-2.29-15.13-3.11-4.72-.76-9.5-1.11-14.26-1.6-1.22-.13-1.25-.08-1.75,1.07-1.24,2.86-1.49,5.9-1.33,8.95,.14,2.53,1.18,4.66,3.55,5.9,1.69,.89,3.54,1.16,5.42,1.17,5.26,.03,10.52,.03,15.78,0,2.67-.02,5.27-.5,7.82-1.28,1.57-.48,3.14-.96,4.74-1.32,3.03-.68,6.07-.22,9.09,.15,2.39,.29,4.76,.7,7.15,.99,3.31,.41,6.63,.78,9.95,1.13,.47,.05,.68,.2,.81,.65,.27,.98,.93,1.52,1.96,1.6,.71,.06,1.42,.14,2.13,.17,1.28,.05,1.87-.39,2.35-1.57,.09-.21,.39-.46,.61-.47,1.4-.05,2.8-.06,4.2-.02,.23,0,.57,.28,.65,.5,.39,1.05,1.09,1.59,2.22,1.56,.69-.02,1.37-.07,2.06-.14,1.44-.15,1.91-.58,2.26-2,.05-.18,.26-.43,.43-.46,1.23-.23,2.47-.41,3.7-.63,.48-.08,.8-.01,1.08,.47,.52,.88,1.53,1.22,2.42,.9,.78-.29,1.54-.63,2.31-.96,.92-.39,1.31-1.1,1.33-2.09,0-.27,.22-.62,.45-.78,.65-.43,1.35-.8,2.05-1.14,.21-.1,.52-.14,.74-.07,.85,.28,1.61,.14,2.26-.45,.62-.56,1.22-1.14,1.79-1.75,.48-.51,.63-1.13,.55-1.84-.04-.37,.04-.79,.19-1.14,.25-.59,.6-1.13,.91-1.7Z" style="fill:#fff;"/><path d="M62.69,15.65c1.11,1.01,2.14,1.94,3.17,2.88,1.1,1,1.05,.98,.61,2.37-1.15,3.6-3.45,6.35-6.37,8.63-.39,.3-.77,.61-1.13,.95-.13,.12-.17,.32-.26,.49,.22,.07,.47,.24,.65,.19,1.2-.4,2.48-.68,3.56-1.31,2.91-1.71,4.99-4.25,6.53-7.22,.28-.55,.49-.63,.98-.24,1.02,.81,2.05,1.61,3.12,2.35,.58,.4,.64,.81,.3,1.35-.87,1.42-1.75,2.84-2.62,4.26-.22,.36-.45,.73-.67,1.09,.06,.09,.12,.18,.17,.27,.45-.16,.93-.26,1.34-.48,1.65-.92,2.91-2.26,3.88-3.85,.34-.56,.61-.53,1.1-.21,2.64,1.72,5.33,3.36,8.38,4.24,2.66,.76,5.37,1.38,8.07,1.95,2.69,.57,5.42,.92,8.1,1.51,2.41,.53,4.35,1.77,5.27,4.24,.28,.76,.16,1.32-.51,1.87-3.01,2.46-6.39,4.19-10.08,5.36-6.79,2.16-13.77,2.35-20.78,1.87-3.11-.21-6.21-.57-9.29-1.05-3.75-.58-7.48-1.34-11.12-2.48-4.52-1.41-9.06-2.73-13.62-3.99-4.32-1.2-8.66-2.35-13.02-3.39-3.12-.75-6.28-1.37-9.45-1.89-3.92-.63-7.87-1.11-11.82-1.61-.71-.09-1.01-.31-1.09-1.05-.31-2.68-.82-5.34-1-8.03-.19-2.78,.12-5.55,1.32-8.13,.93-2.02,2.42-3.44,4.58-4.07,1.33-.38,2.57-.12,3.69,.7,1.42,1.03,2.39,2.45,3.32,3.9,1.25,1.96,2.78,3.62,4.94,4.61,2.16,1,4.43,1.12,6.71,.63,2.63-.58,5.25-1.24,7.83-2.02,1.27-.39,2.49-1.05,3.63-1.74,1.65-1.01,2.27-2.65,2.54-4.52,.29-2.03,.65-4.07,1.17-6.06,.58-2.22,1.9-3.11,4.21-3.15,2.15-.04,4,.74,5.54,2.19,1.43,1.34,2.79,2.76,4.11,4.22,.27,.3,.31,.93,.24,1.37-.41,2.65-1.32,5.12-2.78,7.38-1.92,2.99-4.6,5.06-7.79,6.53-.47,.22-.93,.44-1.37,.71-.16,.1-.24,.32-.36,.48,.18,.1,.36,.26,.55,.28,1.81,.19,3.51-.22,5.14-.99,4.63-2.18,7.8-5.77,9.92-10.36,.13-.29,.27-.57,.47-.99Z"/><path d="M106.32,43.72c-.31,.56-.65,1.11-.91,1.7-.15,.35-.23,.77-.19,1.14,.08,.71-.07,1.33-.55,1.84-.57,.61-1.17,1.19-1.79,1.75-.65,.59-1.41,.73-2.26,.45-.22-.07-.53-.03-.74,.07-.7,.35-1.4,.71-2.05,1.14-.23,.15-.45,.51-.45,.78-.02,.99-.41,1.7-1.33,2.09-.77,.32-1.53,.67-2.31,.96-.89,.33-1.9-.02-2.42-.9-.28-.48-.6-.55-1.08-.47-1.23,.21-2.47,.39-3.7,.63-.17,.03-.38,.28-.43,.46-.35,1.41-.82,1.85-2.26,2-.68,.07-1.37,.12-2.06,.14-1.13,.03-1.83-.51-2.22-1.56-.08-.23-.43-.5-.65-.5-1.4-.04-2.8-.03-4.2,.02-.21,0-.52,.26-.61,.47-.48,1.18-1.08,1.62-2.35,1.57-.71-.03-1.42-.12-2.13-.17-1.03-.08-1.69-.62-1.96-1.6-.12-.45-.34-.6-.81-.65-3.32-.35-6.64-.72-9.95-1.13-2.39-.3-4.76-.7-7.15-.99-3.02-.37-6.06-.82-9.09-.15-1.6,.36-3.18,.84-4.74,1.32-2.55,.79-5.15,1.26-7.82,1.28-5.26,.04-10.52,.03-15.78,0-1.88-.01-3.72-.29-5.42-1.17-2.37-1.24-3.42-3.37-3.55-5.9-.16-3.05,.1-6.09,1.33-8.95,.5-1.15,.53-1.2,1.75-1.07,4.76,.5,9.54,.84,14.26,1.6,5.08,.82,10.12,1.91,15.13,3.11,6.58,1.58,13.11,3.34,19.65,5.1,3.76,1.01,7.59,1.56,11.43,2.06,4.42,.58,8.85,.91,13.3,.79,4.74-.13,9.47-.48,14.07-1.76,4.12-1.15,7.99-2.85,11.45-5.4,.12-.09,.28-.14,.42-.21,.05,.04,.11,.08,.16,.12Z"/></g><g style="opacity:.1;"><path d="M223.16,62.52H111.11V0h112.06V62.52ZM173.8,15.65c-.2,.42-.34,.71-.47,.99-2.12,4.59-5.29,8.18-9.92,10.36-1.63,.76-3.33,1.18-5.14,.99-.19-.02-.37-.18-.55-.28,.12-.16,.2-.39,.36-.48,.44-.26,.91-.49,1.37-.71,3.19-1.47,5.87-3.54,7.79-6.53,1.46-2.26,2.37-4.73,2.78-7.38,.07-.44,.02-1.07-.24-1.37-1.31-1.46-2.68-2.88-4.11-4.22-1.54-1.44-3.39-2.22-5.54-2.19-2.3,.04-3.63,.93-4.21,3.15-.52,1.99-.87,4.02-1.17,6.06-.27,1.87-.89,3.51-2.54,4.52-1.14,.7-2.36,1.36-3.63,1.74-2.58,.78-5.2,1.44-7.83,2.02-2.27,.5-4.54,.37-6.71-.63-2.16-.99-3.69-2.65-4.94-4.61-.93-1.45-1.9-2.87-3.32-3.9-1.12-.82-2.36-1.08-3.69-.7-2.16,.63-3.65,2.05-4.58,4.07-1.2,2.59-1.5,5.35-1.32,8.13,.18,2.69,.69,5.35,1,8.03,.08,.74,.38,.96,1.09,1.05,3.94,.5,7.89,.98,11.82,1.61,3.17,.51,6.33,1.14,9.45,1.89,4.36,1.04,8.7,2.19,13.02,3.39,4.56,1.27,9.11,2.58,13.62,3.99,3.64,1.14,7.37,1.9,11.12,2.48,3.08,.47,6.18,.84,9.29,1.05,7.02,.48,13.99,.29,20.78-1.87,3.69-1.17,7.07-2.9,10.08-5.36,.67-.55,.79-1.11,.51-1.87-.92-2.46-2.86-3.7-5.27-4.24-2.68-.59-5.41-.95-8.1-1.51-2.71-.57-5.41-1.19-8.07-1.95-3.04-.87-5.74-2.52-8.38-4.24-.49-.32-.76-.35-1.1,.21-.97,1.59-2.23,2.93-3.88,3.85-.41,.23-.89,.33-1.34,.48-.06-.09-.12-.18-.17-.27,.22-.36,.44-.73,.67-1.09,.87-1.42,1.75-2.84,2.62-4.26,.34-.55,.27-.96-.3-1.35-1.07-.74-2.1-1.54-3.12-2.35-.49-.39-.69-.31-.98,.24-1.54,2.97-3.62,5.51-6.53,7.22-1.07,.63-2.36,.91-3.56,1.31-.18,.06-.43-.12-.65-.19,.08-.16,.13-.37,.26-.49,.36-.34,.74-.65,1.13-.95,2.93-2.28,5.22-5.03,6.37-8.63,.44-1.39,.49-1.37-.61-2.37-1.03-.94-2.06-1.87-3.17-2.88Zm43.63,28.07c-.05-.04-.11-.08-.16-.12-.14,.07-.3,.12-.42,.21-3.46,2.55-7.33,4.25-11.45,5.4-4.6,1.28-9.33,1.63-14.07,1.76-4.45,.12-8.89-.21-13.3-.79-3.84-.5-7.67-1.06-11.43-2.06-6.54-1.75-13.07-3.52-19.65-5.1-5-1.2-10.05-2.29-15.13-3.11-4.72-.76-9.5-1.11-14.26-1.6-1.22-.13-1.25-.08-1.75,1.07-1.24,2.86-1.49,5.9-1.33,8.95,.14,2.53,1.18,4.66,3.55,5.9,1.69,.89,3.54,1.16,5.42,1.17,5.26,.03,10.52,.03,15.78,0,2.67-.02,5.27-.5,7.82-1.28,1.57-.48,3.14-.96,4.74-1.32,3.03-.68,6.07-.22,9.09,.15,2.39,.29,4.76,.7,7.15,.99,3.31,.41,6.63,.78,9.95,1.13,.47,.05,.68,.2,.81,.65,.27,.98,.93,1.52,1.96,1.6,.71,.06,1.42,.14,2.13,.17,1.28,.05,1.87-.39,2.35-1.57,.09-.21,.39-.46,.61-.47,1.4-.05,2.8-.06,4.2-.02,.23,0,.57,.28,.65,.5,.39,1.05,1.09,1.59,2.22,1.56,.69-.02,1.37-.07,2.06-.14,1.44-.15,1.91-.58,2.26-2,.05-.18,.26-.43,.43-.46,1.23-.23,2.47-.41,3.7-.63,.48-.08,.8-.01,1.08,.47,.52,.88,1.53,1.22,2.42,.9,.78-.29,1.54-.63,2.31-.96,.92-.39,1.31-1.1,1.33-2.09,0-.27,.22-.62,.45-.78,.65-.43,1.35-.8,2.05-1.14,.21-.1,.52-.14,.74-.07,.85,.28,1.61,.14,2.26-.45,.62-.56,1.22-1.14,1.79-1.75,.48-.51,.63-1.13,.55-1.84-.04-.37,.04-.79,.19-1.14,.25-.59,.6-1.13,.91-1.7Z" style="fill:#fff;"/><path d="M173.8,15.65c1.11,1.01,2.14,1.94,3.17,2.88,1.1,1,1.05,.98,.61,2.37-1.15,3.6-3.45,6.35-6.37,8.63-.39,.3-.77,.61-1.13,.95-.13,.12-.17,.32-.26,.49,.22,.07,.47,.24,.65,.19,1.2-.4,2.48-.68,3.56-1.31,2.91-1.71,4.99-4.25,6.53-7.22,.28-.55,.49-.63,.98-.24,1.02,.81,2.05,1.61,3.12,2.35,.58,.4,.64,.81,.3,1.35-.87,1.42-1.75,2.84-2.62,4.26-.22,.36-.45,.73-.67,1.09,.06,.09,.12,.18,.17,.27,.45-.16,.93-.26,1.34-.48,1.65-.92,2.91-2.26,3.88-3.85,.34-.56,.61-.53,1.1-.21,2.64,1.72,5.33,3.36,8.38,4.24,2.66,.76,5.37,1.38,8.07,1.95,2.69,.57,5.42,.92,8.1,1.51,2.41,.53,4.35,1.77,5.27,4.24,.28,.76,.16,1.32-.51,1.87-3.01,2.46-6.39,4.19-10.08,5.36-6.79,2.16-13.77,2.35-20.78,1.87-3.11-.21-6.21-.57-9.29-1.05-3.75-.58-7.48-1.34-11.12-2.48-4.52-1.41-9.06-2.73-13.62-3.99-4.32-1.2-8.66-2.35-13.02-3.39-3.12-.75-6.28-1.37-9.45-1.89-3.92-.63-7.87-1.11-11.82-1.61-.71-.09-1.01-.31-1.09-1.05-.31-2.68-.82-5.34-1-8.03-.19-2.78,.12-5.55,1.32-8.13,.93-2.02,2.42-3.44,4.58-4.07,1.33-.38,2.57-.12,3.69,.7,1.42,1.03,2.39,2.45,3.32,3.9,1.25,1.96,2.78,3.62,4.94,4.61,2.16,1,4.43,1.12,6.71,.63,2.63-.58,5.25-1.24,7.83-2.02,1.27-.39,2.49-1.05,3.63-1.74,1.65-1.01,2.27-2.65,2.54-4.52,.29-2.03,.65-4.07,1.17-6.06,.58-2.22,1.9-3.11,4.21-3.15,2.15-.04,4,.74,5.54,2.19,1.43,1.34,2.79,2.76,4.11,4.22,.27,.3,.31,.93,.24,1.37-.41,2.65-1.32,5.12-2.78,7.38-1.92,2.99-4.6,5.06-7.79,6.53-.47,.22-.93,.44-1.37,.71-.16,.1-.24,.32-.36,.48,.18,.1,.36,.26,.55,.28,1.81,.19,3.51-.22,5.14-.99,4.63-2.18,7.8-5.77,9.92-10.36,.13-.29,.27-.57,.47-.99Z"/><path d="M217.43,43.72c-.31,.56-.65,1.11-.91,1.7-.15,.35-.23,.77-.19,1.14,.08,.71-.07,1.33-.55,1.84-.57,.61-1.17,1.19-1.79,1.75-.65,.59-1.41,.73-2.26,.45-.22-.07-.53-.03-.74,.07-.7,.35-1.4,.71-2.05,1.14-.23,.15-.45,.51-.45,.78-.02,.99-.41,1.7-1.33,2.09-.77,.32-1.53,.67-2.31,.96-.89,.33-1.9-.02-2.42-.9-.28-.48-.6-.55-1.08-.47-1.23,.21-2.47,.39-3.7,.63-.17,.03-.38,.28-.43,.46-.35,1.41-.82,1.85-2.26,2-.68,.07-1.37,.12-2.06,.14-1.13,.03-1.83-.51-2.22-1.56-.08-.23-.43-.5-.65-.5-1.4-.04-2.8-.03-4.2,.02-.21,0-.52,.26-.61,.47-.48,1.18-1.08,1.62-2.35,1.57-.71-.03-1.42-.12-2.13-.17-1.03-.08-1.69-.62-1.96-1.6-.12-.45-.34-.6-.81-.65-3.32-.35-6.64-.72-9.95-1.13-2.39-.3-4.76-.7-7.15-.99-3.02-.37-6.06-.82-9.09-.15-1.6,.36-3.18,.84-4.74,1.32-2.55,.79-5.15,1.26-7.82,1.28-5.26,.04-10.52,.03-15.78,0-1.88-.01-3.72-.29-5.42-1.17-2.37-1.24-3.42-3.37-3.55-5.9-.16-3.05,.1-6.09,1.33-8.95,.5-1.15,.53-1.2,1.75-1.07,4.76,.5,9.54,.84,14.26,1.6,5.08,.82,10.12,1.91,15.13,3.11,6.58,1.58,13.11,3.34,19.65,5.1,3.76,1.01,7.59,1.56,11.43,2.06,4.42,.58,8.85,.91,13.3,.79,4.74-.13,9.47-.48,14.07-1.76,4.12-1.15,7.99-2.85,11.45-5.4,.12-.09,.28-.14,.42-.21,.05,.04,.11,.08,.16,.12Z"/></g></g></svg>