<?xml version="1.0" encoding="UTF-8"?><svg id="uuid-4b8536ee-5757-4b3a-99b9-b396776ba65d" xmlns="http://www.w3.org/2000/svg" viewBox="0 0 174.05 60.52"><g id="uuid-caa7a147-f961-44f7-b058-10c1e1e0cdad"><g style="opacity:.1;"><g><path d="M143.9,60.52h-60.97c-.02-.2-.05-.4-.05-.61,.02-.9,.2-1.83,.05-2.7-.22-1.23,.26-2.47-.15-3.67-.01-.03,0-.07,0-.11,.08-1.08,.21-2.16,.24-3.24,.04-1.41,0-2.82-.02-4.24-.02-.86-.09-1.73-.13-2.59,0-.12,.07-.24,.08-.37,0-.18,0-.36-.03-.53-.04-.19-.19-.37-.19-.56-.01-1.63,.08-3.26-.3-4.88-.26-1.09-.25-2.24-.42-3.36-.14-.91-.37-1.81-.58-2.72-.35-1.51-.65-3.04-1.09-4.53-.39-1.35-.9-2.67-1.44-3.97-.5-1.2-1.06-2.37-1.67-3.51-.66-1.24-1.41-2.44-2.13-3.65-.23-.38-.49-.75-.78-1.18,.28-.05,.43-.09,.57-.1,2.07-.11,4.14-.21,6.2-.32,2.96-.16,5.92-.33,8.89-.48,4.18-.21,8.35-.4,12.53-.6,.46-.02,.9-.02,1.32,.31,1.42,1.14,2.91,2.2,4.32,3.36,1.94,1.6,3.86,3.22,5.72,4.9,1.42,1.28,2.75,2.65,4.09,4.01,1.08,1.1,2.11,2.25,3.16,3.38,.63,.68,1.27,1.36,1.86,2.08,.7,.84,1.34,1.72,2.02,2.57,.73,.91,1.49,1.8,2.22,2.71,.29,.36,.53,.76,.81,1.13,1.1,1.45,2.22,2.88,3.29,4.36,.71,.98,1.34,2.01,2,3.02,.75,1.14,1.5,2.29,2.25,3.43,.23,.36,.48,.7,.74,1.04,.22,.29,.49,.54,.67,.85,.38,.67,.7,1.38,1.07,2.06,.14,.26,.38,.46,.54,.71,.57,.84,1.13,1.68,1.68,2.54,.3,.48,.55,.99,.87,1.46,.39,.58,.85,1.11,1.25,1.68,.52,.76,1.02,1.54,1.52,2.31Z"/><path d="M174.05,34.74v25.78h-25.55c.1-.48-.24-.75-.51-1.05-.14-.15-.26-.31-.38-.47-.64-.9-1.27-1.8-1.9-2.7-.27-.38-.57-.74-.82-1.13-.26-.4-.43-.86-.71-1.24-.67-.94-1.38-1.85-2.08-2.78-.89-1.19-1.6-2.52-2.61-3.63-.19-.2-.33-.45-.48-.69-.42-.68-.8-1.39-1.27-2.04-.64-.87-1.35-1.69-2.01-2.55-.49-.63-.92-1.31-1.41-1.94-.84-1.1-1.7-2.17-2.56-3.26-.51-.64-.99-1.3-1.52-1.92-.74-.85-1.53-1.67-2.29-2.5-.02-.03-.04-.06-.06-.09-.69-.82-1.37-1.65-2.07-2.46-.44-.5-.92-.98-1.38-1.46-.7-.74-1.38-1.5-2.11-2.22-.83-.83-1.7-1.62-2.56-2.42-1.19-1.12-2.36-2.25-3.57-3.35-.91-.83-1.86-1.61-2.8-2.4-.78-.67-1.53-1.36-2.34-1.99-1.04-.8-2.14-1.54-3.21-2.31-.79-.56-1.56-1.16-2.37-1.69-1.43-.94-2.87-1.88-4.34-2.76-1.64-.99-3.31-1.93-4.97-2.89-.67-.38-1.35-.73-2.03-1.09l.03-.2c.51,0,1.03,.03,1.54,0,2.89-.18,5.77-.38,8.66-.58,3.05-.2,6.11-.37,9.16-.61,1.47-.12,2.9-.22,4.25,.54,.43,.24,.94,.36,1.4,.56,3.69,1.57,7.4,3.1,11.06,4.72,2.39,1.05,4.73,2.21,7.07,3.37,2.69,1.33,5.37,2.68,8.02,4.08,1.94,1.02,3.84,2.14,5.75,3.22,1.02,.58,2.03,1.18,3.05,1.76,.88,.51,1.77,1.02,2.65,1.53,.77,.45,1.55,.88,2.31,1.34,1.38,.85,2.74,1.72,4.11,2.58,1.12,.7,2.26,1.37,3.37,2.08,1.25,.8,2.47,1.65,3.72,2.46,1.24,.82,2.5,1.62,3.74,2.43Z"/><path d="M77.89,60.52H17.04c.36-.52,.7-1.05,1.08-1.55,.45-.59,.95-1.13,1.39-1.73,.84-1.16,1.64-2.34,2.47-3.51,1.31-1.85,2.65-3.68,3.92-5.56,1.42-2.11,3.01-4.11,4.27-6.33,.74-1.3,1.57-2.56,2.35-3.85,.67-1.11,1.36-2.21,1.98-3.35,.75-1.37,1.47-2.75,2.13-4.16,.48-1.03,.88-2.09,1.26-3.16,.2-.57,.53-.87,1.13-.86,.56,.02,1.12,.07,1.67,.04,1.45-.07,2.9-.2,4.35-.26,2.01-.09,4.02-.12,6.04-.2,1.82-.07,3.65-.18,5.47-.25,2.06-.08,4.13-.11,6.2-.19,2.42-.09,4.84-.2,7.25-.31,2.09-.09,4.17-.18,6.26-.28,.29-.01,.45,.06,.52,.36,.18,.74,.41,1.47,.57,2.21,.35,1.69,.72,3.37,.99,5.08,.19,1.17,.25,2.36,.36,3.54,.06,.73,.12,1.45,.14,2.18,.03,.75,0,1.51,.02,2.26,.01,.89,.04,1.77,.06,2.66,.02,.83-.3,1.66,0,2.49,.04,.12-.04,.29-.06,.43-.08,.63-.19,1.26-.21,1.89-.04,.94,.15,1.92-.05,2.82-.42,1.85-.15,3.72-.38,5.57-.1,.82-.23,1.69,.04,2.52,.03,.08,0,.19-.02,.27-.11,.4-.23,.8-.34,1.2Z"/><path d="M4.03,0c7.81,0,15.62,0,23.42,0,.57,.39,1.14,.77,1.71,1.16,2.7,1.81,5.01,3.98,6.54,6.9,.81,1.55,1.34,3.18,1.6,4.9,.24,1.57,.24,3.16,0,4.73-.22,1.41-.43,2.83-.78,4.21-.31,1.22-.79,2.39-1.22,3.58-.3,.85-.61,1.71-.96,2.54-.47,1.1-.96,2.19-1.51,3.24-.55,1.05-1.16,2.07-1.78,3.09-.44,.73-.94,1.42-1.38,2.15-.38,.61-.74,1.24-1.09,1.87-.28,.51-.73,.65-1.27,.65-1.56,.02-3.12,.05-4.69,.07-1.47,.02-2.93,.01-4.4,.04-.69,.01-1.37,.11-2.06,.12-1.97,.04-3.94,.04-5.91,.09-1.4,.03-2.79,.14-4.18,.17-2.03,.04-4.06,.04-6.09,.06,0-5.42,0-10.83,0-16.25,.35-.38,.72-.74,1.05-1.13,.98-1.15,2-2.26,2.9-3.47,.93-1.25,1.78-2.56,2.58-3.9,.56-.93,.96-1.95,1.37-2.97,.75-1.87,.93-3.78,.56-5.71-.32-1.66-1.22-3.08-2.4-4.29C5.42,1.19,4.71,.61,4.03,0Z"/><path d="M0,39.56c2.03-.02,4.06-.02,6.09-.06,1.4-.03,2.79-.14,4.18-.17,1.97-.05,3.94-.05,5.91-.09,.69-.01,1.37-.11,2.06-.12,1.47-.03,2.93-.02,4.4-.04,1.56-.02,3.12-.05,4.69-.07,.54,0,.98-.14,1.27-.65,.35-.63,.71-1.26,1.09-1.87,.45-.72,.94-1.42,1.38-2.15,.61-1.02,1.23-2.03,1.78-3.09,.55-1.06,1.04-2.15,1.51-3.24,.36-.83,.66-1.69,.96-2.54,.42-1.19,.91-2.36,1.22-3.58,.35-1.38,.56-2.8,.78-4.21,.24-1.57,.24-3.15,0-4.73-.26-1.72-.78-3.35-1.6-4.9-1.53-2.92-3.84-5.1-6.54-6.9C28.6,.77,28.03,.39,27.46,0c.78,0,1.57,0,2.35,0,.07,.06,.13,.13,.21,.18,1.53,1.12,3.12,2.17,4.58,3.38,1.67,1.39,3.01,3.11,3.97,5.07,.77,1.56,1.32,3.21,1.53,4.97,.28,2.34,.21,4.66-.2,6.98-.08,.45-.14,.91-.26,1.35-.22,.86-.47,1.7-.75,2.7,12.43-.46,24.77-.91,37.26-1.36-.59-1.41-1.06-2.7-1.66-3.92-.65-1.33-1.37-2.63-2.15-3.89-.74-1.2-1.52-2.39-2.42-3.48-1.7-2.05-3.63-3.89-5.72-5.57-1.88-1.51-3.86-2.88-5.97-4.03C56.76,1.57,55.27,.79,53.8,0c.78,0,1.57,0,2.35,0,1.56,.83,3.15,1.62,4.68,2.51,1.6,.95,3.21,1.92,4.69,3.03,1.62,1.21,3.15,2.57,4.65,3.93,.83,.76,1.53,1.67,2.31,2.49,.36,.38,.6,.92,1.27,.88,2.74-.15,5.48-.29,8.21-.43,1.88-.09,3.77-.17,5.65-.27,1.92-.1,3.83-.24,5.75-.34,2.22-.12,4.44-.21,6.66-.32,.42-.02,.83-.06,1.25-.1,.02-.05,.05-.1,.07-.14-.09-.06-.19-.11-.28-.17-1.03-.67-2.03-1.39-3.09-2.01-2.29-1.32-4.58-2.67-6.95-3.86-2.78-1.4-5.64-2.65-8.47-3.95-.98-.45-1.99-.84-2.99-1.26,.78,0,1.57,0,2.35,0,.27,.12,.54,.25,.82,.36,2.71,1.17,5.43,2.29,8.1,3.52,.93,.43,1.79,.63,2.83,.55,3.34-.28,6.7-.44,10.05-.64,3.2-.19,6.4-.39,9.6-.58,.08,0,.15-.05,.32-.1-.21-.11-.34-.19-.47-.24-1.97-.68-3.95-1.35-5.92-2.03C106.47,.57,105.69,.28,104.9,0c.75,0,1.49,0,2.24,0,1.81,.59,3.62,1.16,5.42,1.78,2.11,.74,4.22,1.49,6.31,2.29,2.87,1.11,5.73,2.23,8.57,3.42,2.55,1.06,5.05,2.22,7.58,3.34,1.29,.58,2.59,1.15,3.86,1.77,1.63,.79,3.24,1.61,4.85,2.42,1.81,.91,3.63,1.82,5.42,2.76,1.5,.79,2.97,1.64,4.45,2.46,1.65,.9,3.31,1.78,4.96,2.69,1.22,.68,2.41,1.4,3.62,2.11,.65,.39,1.31,.77,1.95,1.18,1.05,.67,2.08,1.37,3.14,2.03,1.02,.64,2.07,1.23,3.09,1.86,.54,.33,1.05,.71,1.59,1.04,.7,.43,1.41,.82,2.11,1.24v2.35c-1.25-.81-2.5-1.61-3.74-2.43-1.24-.82-2.47-1.66-3.72-2.46-1.11-.71-2.25-1.39-3.37-2.08-1.37-.86-2.74-1.73-4.11-2.58-.76-.47-1.54-.9-2.31-1.34-.88-.51-1.77-1.02-2.65-1.53-1.02-.59-2.03-1.18-3.05-1.76-1.91-1.08-3.81-2.19-5.75-3.22-2.65-1.4-5.33-2.75-8.02-4.08-2.34-1.16-4.68-2.31-7.07-3.37-3.67-1.62-7.37-3.15-11.06-4.72-.46-.2-.96-.32-1.4-.56-1.35-.76-2.78-.66-4.25-.54-3.05,.24-6.11,.41-9.16,.61-2.89,.19-5.77,.39-8.66,.58-.51,.03-1.02,0-1.54,0l-.03,.2c.68,.36,1.36,.71,2.03,1.09,1.66,.95,3.33,1.89,4.97,2.89,1.47,.89,2.91,1.82,4.34,2.76,.81,.53,1.58,1.13,2.37,1.69,1.07,.77,2.16,1.51,3.21,2.31,.81,.62,1.56,1.32,2.34,1.99,.93,.8,1.89,1.58,2.8,2.4,1.21,1.1,2.38,2.23,3.57,3.35,.85,.8,1.72,1.6,2.56,2.42,.72,.72,1.41,1.48,2.11,2.22,.46,.49,.94,.96,1.38,1.46,.7,.81,1.38,1.64,2.07,2.46,.02,.03,.04,.06,.06,.09,.77,.83,1.55,1.65,2.29,2.5,.54,.62,1.02,1.28,1.52,1.92,.85,1.09,1.72,2.16,2.56,3.26,.49,.63,.92,1.31,1.41,1.94,.66,.86,1.37,1.67,2.01,2.55,.47,.65,.85,1.36,1.27,2.04,.15,.24,.29,.48,.48,.69,1.01,1.11,1.71,2.44,2.61,3.63,.69,.93,1.4,1.84,2.08,2.78,.28,.39,.45,.84,.71,1.24,.25,.39,.55,.75,.82,1.13,.64,.9,1.27,1.8,1.9,2.7,.12,.16,.24,.32,.38,.47,.27,.3,.61,.57,.51,1.05h-4.6c-.51-.77-1-1.55-1.52-2.31-.4-.57-.86-1.1-1.25-1.68-.32-.47-.56-.98-.87-1.46-.55-.85-1.11-1.7-1.68-2.54-.17-.25-.4-.45-.54-.71-.37-.68-.69-1.39-1.07-2.06-.18-.31-.45-.56-.67-.85-.26-.34-.5-.69-.74-1.04-.75-1.14-1.5-2.29-2.25-3.43-.66-1.01-1.29-2.04-2-3.02-1.07-1.47-2.19-2.9-3.29-4.36-.28-.37-.52-.77-.81-1.13-.73-.91-1.49-1.8-2.22-2.71-.68-.85-1.32-1.73-2.02-2.57-.59-.71-1.23-1.39-1.86-2.08-1.05-1.13-2.08-2.28-3.16-3.38-1.34-1.36-2.68-2.74-4.09-4.01-1.86-1.68-3.78-3.3-5.72-4.9-1.41-1.16-2.89-2.22-4.32-3.36-.41-.33-.86-.34-1.32-.31-4.18,.19-8.35,.39-12.53,.6-2.96,.15-5.92,.32-8.89,.48-2.07,.11-4.14,.21-6.2,.32-.15,0-.29,.05-.57,.1,.29,.43,.55,.8,.78,1.18,.72,1.21,1.47,2.41,2.13,3.65,.61,1.14,1.18,2.32,1.67,3.51,.54,1.3,1.04,2.62,1.44,3.97,.44,1.49,.74,3.02,1.09,4.53,.21,.9,.44,1.8,.58,2.72,.17,1.11,.16,2.27,.42,3.36,.38,1.62,.28,3.25,.3,4.88,0,.19,.15,.37,.19,.56,.04,.17,.04,.35,.03,.53,0,.12-.08,.25-.08,.37,.04,.86,.12,1.73,.13,2.59,.03,1.41,.06,2.82,.02,4.24-.03,1.08-.15,2.16-.24,3.24,0,.04-.02,.08,0,.11,.41,1.2-.06,2.44,.15,3.67,.15,.87-.03,1.8-.05,2.7,0,.2,.03,.4,.05,.61h-5.04c.12-.4,.23-.8,.34-1.2,.02-.09,.04-.19,.02-.27-.28-.84-.15-1.71-.04-2.52,.23-1.85-.04-3.72,.38-5.57,.2-.9,.01-1.88,.05-2.82,.03-.63,.14-1.26,.21-1.89,.02-.15,.1-.31,.06-.43-.31-.83,0-1.66,0-2.49-.02-.89-.04-1.77-.06-2.66-.01-.75,0-1.51-.02-2.26-.03-.73-.08-1.46-.14-2.18-.1-1.18-.17-2.37-.36-3.54-.28-1.7-.64-3.39-.99-5.08-.16-.74-.39-1.47-.57-2.21-.07-.3-.23-.37-.52-.36-2.09,.1-4.17,.19-6.26,.28-2.42,.1-4.84,.22-7.25,.31-2.06,.08-4.13,.11-6.2,.19-1.82,.07-3.65,.18-5.47,.25-2.01,.08-4.02,.11-6.04,.2-1.45,.06-2.9,.19-4.35,.26-.56,.03-1.12-.03-1.67-.04-.61-.02-.93,.28-1.13,.86-.38,1.07-.77,2.14-1.26,3.16-.66,1.41-1.38,2.79-2.13,4.16-.62,1.14-1.31,2.24-1.98,3.35-.78,1.28-1.6,2.54-2.35,3.85-1.27,2.22-2.85,4.22-4.27,6.33-1.27,1.88-2.61,3.71-3.92,5.56-.82,1.17-1.63,2.35-2.47,3.51-.43,.6-.94,1.14-1.39,1.73-.38,.5-.72,1.03-1.08,1.55h-4.6c.28-.55,.87-.94,.86-1.65,0-.06,.07-.13,.13-.18,.69-.52,.9-1.48,1.73-1.88,.07-.03,.1-.15,.14-.23,.23-.44,.44-.89,.68-1.32,.05-.09,.17-.14,.25-.22,.38-.36,.79-.7,1.13-1.1,.48-.57,.91-1.18,1.35-1.78,.72-.96,1.63-1.78,2-2.97,.03-.08,.11-.15,.17-.21,1.2-1.15,2.16-2.49,3.12-3.83,.64-.9,1.28-1.81,1.91-2.72,.1-.14,.16-.31,.23-.46-.17-.04-.34-.12-.52-.12-2.38,.04-4.76,.08-7.14,.14-1.88,.05-3.75,.15-5.63,.22-.22,0-.45,0-.67,0-1.04-.02-2.08-.06-3.11-.04-1.99,.04-3.98,.12-5.97,.19-1.03,.04-2.06,.08-3.09,.12,0-.97,0-1.94,0-2.91Z" style="fill:#fff;"/><path d="M53.8,0c1.48,.79,2.97,1.57,4.44,2.37,2.12,1.16,4.09,2.52,5.97,4.03,2.08,1.68,4.01,3.52,5.72,5.57,.9,1.08,1.68,2.28,2.42,3.48,.78,1.26,1.5,2.56,2.15,3.89,.6,1.23,1.07,2.51,1.66,3.92-12.49,.46-24.83,.91-37.26,1.36,.28-.99,.53-1.84,.75-2.7,.11-.44,.18-.9,.26-1.35,.41-2.32,.48-4.63,.2-6.98-.21-1.76-.76-3.41-1.53-4.97-.96-1.96-2.3-3.68-3.97-5.07-1.46-1.21-3.05-2.26-4.58-3.38-.07-.05-.14-.12-.21-.18,7.99,0,15.99,0,23.98,0Z"/><path d="M174.05,32.39c-.7-.41-1.42-.81-2.11-1.24-.54-.33-1.05-.71-1.59-1.04-1.03-.63-2.07-1.23-3.09-1.86-1.06-.66-2.09-1.36-3.14-2.03-.64-.41-1.3-.79-1.95-1.18-1.2-.71-2.4-1.43-3.62-2.11-1.64-.92-3.31-1.79-4.96-2.69-1.49-.81-2.95-1.67-4.45-2.46-1.79-.95-3.61-1.85-5.42-2.76-1.61-.81-3.22-1.63-4.85-2.42-1.27-.62-2.57-1.19-3.86-1.77-2.52-1.12-5.03-2.28-7.58-3.34-2.84-1.19-5.7-2.31-8.57-3.42-2.09-.8-4.19-1.56-6.31-2.29C110.77,1.16,108.95,.59,107.14,0c7.55,0,15.09,0,22.64,0,.13,.06,.26,.14,.4,.17,1.42,.39,2.85,.74,4.26,1.15,3.26,.96,6.51,1.94,9.75,2.94,2.69,.83,5.38,1.66,8.05,2.55,4.03,1.35,8.04,2.75,12.05,4.17,2.06,.72,4.09,1.52,6.13,2.28,1.2,.44,2.42,.87,3.62,1.31v17.82Z"/><path d="M0,42.48c1.03-.04,2.06-.09,3.09-.12,1.99-.07,3.98-.15,5.97-.19,1.04-.02,2.08,.03,3.11,.04,.22,0,.45,0,.67,0,1.88-.07,3.75-.17,5.63-.22,2.38-.07,4.76-.1,7.14-.14,.17,0,.34,.08,.52,.12-.08,.16-.14,.32-.23,.46-.63,.91-1.27,1.82-1.91,2.72-.96,1.34-1.92,2.69-3.12,3.83-.07,.06-.15,.13-.17,.21-.37,1.19-1.28,2.01-2,2.97-.45,.6-.87,1.21-1.35,1.78-.34,.4-.75,.74-1.13,1.1-.08,.08-.2,.13-.25,.22-.24,.44-.45,.88-.68,1.32-.04,.08-.07,.2-.14,.23-.82,.4-1.04,1.36-1.73,1.88-.06,.04-.13,.12-.13,.18,.02,.71-.57,1.1-.86,1.65H0C0,54.51,0,48.49,0,42.48Z"/><path d="M79.57,0c1,.42,2,.81,2.99,1.26,2.83,1.3,5.69,2.55,8.47,3.95,2.36,1.19,4.65,2.53,6.95,3.86,1.06,.61,2.06,1.33,3.09,2.01,.09,.06,.18,.11,.28,.17-.02,.05-.05,.1-.07,.14-.42,.03-.83,.08-1.25,.1-2.22,.11-4.44,.2-6.66,.32-1.92,.1-3.83,.24-5.75,.34-1.88,.1-3.76,.18-5.65,.27-2.74,.14-5.48,.28-8.21,.43-.67,.04-.92-.5-1.27-.88-.78-.82-1.47-1.73-2.31-2.49-1.5-1.36-3.03-2.72-4.65-3.93-1.49-1.11-3.09-2.09-4.69-3.03C59.3,1.62,57.71,.83,56.15,0c7.81,0,15.62,0,23.42,0Z"/><path d="M132.14,0c7.47,0,14.94,0,22.41,0,.34,.09,.67,.2,1.01,.28,3.64,.9,7.28,1.78,10.91,2.69,2.53,.63,5.05,1.3,7.58,1.96V13.56c-.13-.07-.25-.17-.39-.22-1.6-.57-3.2-1.13-4.8-1.69-3.56-1.25-7.1-2.53-10.67-3.72-4.1-1.36-8.23-2.66-12.36-3.95-2.78-.86-5.57-1.67-8.36-2.48C135.69,.99,133.91,.5,132.14,0Z"/><path d="M104.9,0c.79,.28,1.57,.57,2.36,.84,1.97,.68,3.95,1.35,5.92,2.03,.14,.05,.26,.13,.47,.24-.16,.05-.24,.1-.32,.1-3.2,.2-6.4,.39-9.6,.58-3.35,.2-6.71,.36-10.05,.64-1.04,.09-1.9-.12-2.83-.55-2.67-1.23-5.4-2.35-8.1-3.52-.27-.12-.54-.24-.82-.36,7.66,0,15.32,0,22.98,0Z"/><path d="M0,19.84C0,13.22,0,6.61,0,0H1.68c.39,.35,.77,.69,1.16,1.04,2.22,1.98,3.52,4.36,3.19,7.43-.18,1.72-.61,3.36-1.51,4.86-.57,.95-1.08,1.95-1.72,2.86C1.92,17.44,.94,18.62,0,19.84Z"/><path d="M0,19.84c.94-1.21,1.92-2.4,2.81-3.65,.64-.91,1.15-1.9,1.72-2.86,.9-1.5,1.33-3.15,1.51-4.86,.33-3.07-.98-5.45-3.19-7.43C2.45,.69,2.07,.35,1.68,0,2.47,0,3.25,0,4.03,0c.67,.61,1.38,1.19,2.02,1.85,1.17,1.21,2.08,2.63,2.4,4.29,.37,1.93,.19,3.84-.56,5.71-.41,1.02-.81,2.04-1.37,2.97-.8,1.33-1.65,2.65-2.58,3.9-.9,1.21-1.92,2.32-2.9,3.47C.72,22.57,.35,22.93,0,23.31c0-1.16,0-2.32,0-3.47Z" style="fill:#fff;"/><path d="M132.14,0c1.78,.5,3.56,.99,5.33,1.5,2.79,.81,5.59,1.62,8.36,2.48,4.13,1.29,8.26,2.58,12.36,3.95,3.58,1.19,7.12,2.47,10.67,3.72,1.6,.56,3.2,1.12,4.8,1.69,.14,.05,.26,.14,.39,.22v1.01c-1.21-.43-2.42-.86-3.62-1.31-2.05-.76-4.08-1.55-6.13-2.28-4.01-1.41-8.02-2.81-12.05-4.17-2.67-.9-5.36-1.73-8.05-2.55-3.24-1-6.49-1.98-9.75-2.94-1.41-.42-2.84-.77-4.26-1.15-.14-.04-.27-.12-.4-.17,.78,0,1.57,0,2.35,0Z" style="fill:#fff;"/><path d="M156.9,0c5.72,0,11.43,0,17.15,0V4.26c-2.62-.67-5.24-1.35-7.86-2-1.94-.48-3.88-.92-5.82-1.39C159.21,.59,158.06,.29,156.9,0Z"/><path d="M156.9,0c1.16,.29,2.31,.59,3.47,.87,1.94,.47,3.88,.91,5.82,1.39,2.62,.65,5.24,1.33,7.86,2v.67c-2.53-.65-5.05-1.32-7.58-1.96-3.63-.91-7.27-1.79-10.91-2.69-.34-.08-.67-.19-1.01-.28,.78,0,1.57,0,2.35,0Z" style="fill:#fff;"/></g></g></g></svg>