<?xml version="1.0" encoding="UTF-8"?><svg id="uuid-88fe9953-e484-41b1-83ea-9ce76b082c80" xmlns="http://www.w3.org/2000/svg" viewBox="0 0 173.67 60.37"><g id="uuid-4b39ffb9-cf03-4c1d-a686-06d338202f9c"><g style="opacity:.1;"><path d="M173.67,60.37c-57.88,0-115.76,0-173.67,0V0H173.67V60.37ZM49.11,15.17c0,3.46-.27,6.75,.05,9.96,1.15,11.52,6.16,20.31,15.06,26.11,.43,.28,1.28,.27,1.68-.04,1.84-1.36,3.71-2.72,5.36-4.35,5.57-5.49,8.5-12.64,9.63-20.78,.49-3.56,.58-7.16,0-10.92-6.14,.12-11.6-1.68-15.89-6.85-4.32,5.24-9.72,6.91-15.9,6.86Zm111.75,.17c-.48-.09-.67-.15-.86-.15-5.52-.1-10.55-1.64-14.64-6.16-.21-.23-.98-.09-1.31,.17-1.21,.93-2.28,2.11-3.53,2.96-3.14,2.14-6.63,2.97-10.26,2.95-1.18,0-1.59,.55-1.57,1.74,.06,2.83-.05,5.68,.25,8.48,1.2,11.24,6.07,19.86,14.66,25.73,.84,.58,1.53,.73,2.37,.01,1.25-1.06,2.65-1.92,3.85-3.04,9.11-8.5,11.88-19.73,11.04-32.7Zm-119.66-.14c-6.23,0-11.76-1.58-16.06-6.94-4.3,5.4-9.88,6.95-15.96,6.95-.1,1.57-.24,2.95-.25,4.33-.02,1.27,.06,2.55,.15,3.83,.89,12.1,5.68,21.48,14.98,27.76,.85,.57,1.43,.52,2.24-.04,11.85-8.18,15.83-20.54,14.9-35.89Zm47.39-.01c.2,3.94,.13,7.67,.61,11.31,1.42,10.86,6.34,19.14,14.76,24.71,.75,.5,1.26,.44,1.98-.04,7.8-5.18,12.57-12.8,14.45-22.8,.81-4.31,.96-8.65,.44-13.17-6.08-.02-11.61-1.57-15.91-6.93-4.28,5.33-9.79,6.95-16.33,6.92Z" style="fill:#fff;"/><path d="M49.11,15.17c6.18,.05,11.58-1.62,15.9-6.86,4.29,5.17,9.75,6.96,15.89,6.85,.57,3.76,.49,7.36,0,10.92-1.13,8.15-4.06,15.29-9.63,20.78-1.65,1.63-3.52,2.99-5.36,4.35-.41,.3-1.26,.32-1.68,.04-8.91-5.81-13.92-14.59-15.06-26.11-.32-3.21-.05-6.5-.05-9.96Zm30.21,1.86c-5.33-.06-10.14-1.92-14.3-5.97-4.12,4.08-8.94,5.88-14.71,5.98,.3,3.7,.34,7.31,.92,10.81,1.51,9.01,5.75,16.05,12.65,20.92,.51,.36,1.47,.55,1.93,.24,10.65-7.04,14.68-20.46,13.51-31.99Z"/><path d="M160.85,15.33c.84,12.96-1.93,24.2-11.04,32.7-1.2,1.12-2.6,1.97-3.85,3.04-.84,.72-1.53,.56-2.37-.01-8.59-5.87-13.46-14.49-14.66-25.73-.3-2.8-.19-5.65-.25-8.48-.02-1.19,.39-1.74,1.57-1.74,3.63,.02,7.12-.81,10.26-2.95,1.25-.85,2.32-2.03,3.53-2.96,.34-.26,1.11-.4,1.31-.17,4.09,4.52,9.12,6.06,14.64,6.16,.19,0,.38,.06,.86,.15Zm-16.07-4.28c-4.17,4.14-9.01,5.88-14.6,6.01,.17,3.16,.13,6.17,.52,9.11,1.32,9.75,5.59,17.39,12.99,22.72,.83,.6,1.44,.54,2.25-.04,6.44-4.62,10.53-11.14,12.41-19.49,.91-4.05,1.12-8.16,.82-12.34-5.47-.06-10.22-1.92-14.4-5.96Z"/><path d="M41.2,15.19c.93,15.35-3.05,27.71-14.9,35.89-.81,.56-1.39,.61-2.24,.04-9.3-6.28-14.09-15.66-14.98-27.76-.09-1.27-.17-2.55-.15-3.83,.02-1.38,.16-2.76,.25-4.33,6.08,0,11.66-1.54,15.96-6.95,4.3,5.35,9.83,6.93,16.06,6.94Zm-16.05-4.19c-4.12,4.18-8.97,5.9-14.32,6.05-.1,.61-.26,1.1-.25,1.59,.05,1.77,.09,3.55,.25,5.32,.92,10.65,5.15,19.05,13.18,24.89,.89,.65,1.5,.58,2.35-.04,8.93-6.48,12.86-16.03,13.37-27.71,.06-1.35,0-2.7,0-4.07-5.72-.16-10.51-1.91-14.58-6.03Z"/><path d="M88.59,15.18c6.54,.03,12.05-1.59,16.33-6.92,4.29,5.36,9.83,6.92,15.91,6.93,.52,4.52,.37,8.86-.44,13.17-1.88,9.99-6.65,17.62-14.45,22.8-.72,.48-1.23,.53-1.98,.04-8.41-5.57-13.34-13.85-14.76-24.71-.48-3.64-.41-7.37-.61-11.31Zm1.97,1.85c-.08,.69-.24,1.34-.2,1.98,.15,2.6,.2,5.22,.58,7.78,1.4,9.43,5.6,16.81,12.76,21.98,.86,.63,1.58,.77,2.39,.02,1.93-1.8,4.04-3.39,5.75-5.41,5.35-6.35,7.39-14.22,7.67-22.8,.04-1.18-.12-2.37-.19-3.51-6.83-.6-10.2-2.03-14.38-6.06-4.06,4.09-8.87,5.91-14.36,6.02Z"/><path d="M79.32,17.02c1.17,11.53-2.87,24.95-13.51,31.99-.46,.3-1.42,.11-1.93-.24-6.9-4.87-11.14-11.91-12.65-20.92-.58-3.5-.62-7.11-.92-10.81,5.76-.09,10.58-1.89,14.71-5.98,4.16,4.04,8.97,5.9,14.3,5.97Zm-14.3-3.78c-3.77,3.63-8.13,5.07-12.78,5.45-.8,9.79,2.61,21.8,12.04,28.25,.4,.27,1.24,.18,1.67-.12,4.05-2.85,7.14-6.72,9.21-11.6,2.21-5.21,3.04-10.7,2.75-16.52-4.79-.4-9.14-1.87-12.9-5.46Z" style="fill:#fff;"/><path d="M144.78,11.05c4.18,4.04,8.93,5.9,14.4,5.96,.3,4.18,.09,8.29-.82,12.34-1.88,8.34-5.97,14.87-12.41,19.49-.81,.58-1.42,.65-2.25,.04-7.4-5.33-11.67-12.97-12.99-22.72-.4-2.94-.35-5.95-.52-9.11,5.58-.12,10.42-1.87,14.6-6.01Zm-13.02,7.65c.14,2.5,.13,4.89,.43,7.23,1.16,8.86,4.87,15.94,11.57,20.89,.78,.58,1.34,.53,2.1-.03,4.61-3.43,7.97-8,9.94-13.85,1.54-4.56,2.15-9.28,1.9-14.24-4.86-.38-9.23-1.92-12.93-5.44-3.74,3.55-8.02,5.06-13.01,5.43Z" style="fill:#fff;"/><path d="M25.15,11c4.07,4.13,8.86,5.87,14.58,6.03,0,1.37,.05,2.72,0,4.07-.51,11.68-4.44,21.23-13.37,27.71-.85,.62-1.46,.69-2.35,.04-8.02-5.84-12.25-14.24-13.18-24.89-.15-1.76-.2-3.54-.25-5.32-.01-.49,.15-.98,.25-1.59,5.35-.15,10.2-1.86,14.32-6.05Zm-13.06,7.71c.19,2.73,.21,5.34,.57,7.89,1.2,8.48,4.88,15.23,11.23,20.05,.88,.66,1.61,.88,2.48,.02,1.58-1.57,3.37-2.9,4.8-4.63,5.04-6.13,6.95-13.62,6.95-21.84,0-.76,.05-1.5-1.01-1.6-4.43-.43-8.5-2-11.97-5.34-3.69,3.56-7.98,5.05-13.05,5.47Z" style="fill:#fff;"/><path d="M90.56,17.03c5.49-.11,10.3-1.93,14.36-6.02,4.19,4.03,7.56,5.46,14.38,6.06,.07,1.14,.23,2.33,.19,3.51-.27,8.58-2.32,16.45-7.67,22.8-1.71,2.03-3.82,3.62-5.75,5.41-.81,.75-1.53,.61-2.39-.02-7.15-5.18-11.36-12.56-12.76-21.98-.38-2.56-.43-5.19-.58-7.78-.04-.64,.13-1.29,.2-1.98Zm1.62,1.65c-.08,.42-.2,.74-.19,1.06,.03,1.39,.04,2.78,.15,4.16,.76,9.7,4.47,17.46,11.73,22.89,.77,.58,1.33,.57,2.11,0,5.22-3.85,8.74-9.14,10.57-15.88,1.07-3.95,1.52-7.98,1.22-12.21-4.8-.43-9.15-1.89-12.84-5.45-3.69,3.54-8.03,5.05-12.74,5.44Z" style="fill:#fff;"/><path d="M65.02,13.24c3.76,3.59,8.1,5.06,12.9,5.46,.29,5.82-.54,11.32-2.75,16.52-2.07,4.88-5.16,8.75-9.21,11.6-.43,.3-1.27,.4-1.67,.12-9.43-6.45-12.84-18.46-12.04-28.25,4.65-.38,9-1.82,12.78-5.45Z"/><path d="M131.76,18.7c4.99-.38,9.28-1.88,13.01-5.43,3.7,3.51,8.07,5.06,12.93,5.44,.25,4.96-.36,9.67-1.9,14.24-1.97,5.85-5.32,10.42-9.94,13.85-.76,.56-1.31,.61-2.1,.03-6.7-4.95-10.42-12.03-11.57-20.89-.31-2.34-.29-4.73-.43-7.23Z"/><path d="M12.09,18.71c5.07-.42,9.36-1.91,13.05-5.47,3.47,3.35,7.54,4.91,11.97,5.34,1.06,.1,1.01,.84,1.01,1.6,0,8.23-1.91,15.71-6.95,21.84-1.42,1.73-3.21,3.06-4.8,4.63-.87,.87-1.6,.65-2.48-.02-6.35-4.82-10.03-11.56-11.23-20.05-.36-2.55-.38-5.15-.57-7.89Z"/><path d="M92.18,18.69c4.71-.38,9.05-1.9,12.74-5.44,3.69,3.56,8.04,5.03,12.84,5.45,.3,4.23-.15,8.26-1.22,12.21-1.83,6.74-5.35,12.03-10.57,15.88-.77,.57-1.33,.57-2.11,0-7.27-5.43-10.97-13.19-11.73-22.89-.11-1.38-.12-2.77-.15-4.16,0-.32,.11-.63,.19-1.06Z"/></g></g></svg>