<svg id="Layer_1" enable-background="new 0 0 512 512" height="512" viewBox="0 0 512 512" width="512" xmlns="http://www.w3.org/2000/svg"><path d="m42.086 281.772c9.828-.789 18.899 2.409 25.78 8.147 4.279 3.569 10.46 3.585 14.738.014 6.189-5.168 14.154-8.28 22.849-8.28s16.66 3.111 22.85 8.28c4.271 3.567 10.449 3.567 14.72 0 6.189-5.168 14.155-8.28 22.85-8.28s16.66 3.111 22.85 8.28c4.271 3.567 10.45 3.567 14.721 0 6.189-5.168 14.154-8.28 22.849-8.28s16.66 3.111 22.85 8.28c4.271 3.567 10.45 3.567 14.721 0 6.189-5.168 14.154-8.28 22.849-8.28s16.66 3.111 22.85 8.28c4.271 3.567 10.45 3.567 14.721 0 6.189-5.168 14.155-8.28 22.85-8.28s16.66 3.111 22.849 8.28c4.271 3.567 10.45 3.567 14.721 0 6.19-5.168 14.155-8.28 22.85-8.28 8.694 0 16.66 3.111 22.849 8.279 4.277 3.572 10.458 3.555 14.738-.014 6.88-5.738 15.952-8.936 25.78-8.147 11.94.958 22.212 7.927 27.928 17.774 1.414-10.65 2.157-21.512 2.157-32.548 0-135.311-109.691-245.002-245.002-245.002s-245.002 109.691-245.002 245.002c0 11.541.817 22.89 2.361 34.007 5.516-10.613 16.202-18.226 28.723-19.232z" fill="#61ccf8"/><path d="m462.938 398.19c18.871-29.698 31.527-63.732 36.129-100.278-5.671-10.043-16.059-17.169-28.149-18.14-9.828-.789-18.899 2.409-25.78 8.147-4.28 3.569-10.46 3.586-14.738.014-6.189-5.168-14.155-8.279-22.849-8.279-8.695 0-16.66 3.111-22.85 8.28-4.271 3.567-10.45 3.567-14.721 0-6.189-5.168-14.154-8.28-22.849-8.28s-16.66 3.111-22.85 8.28c-4.271 3.567-10.45 3.567-14.721 0-6.189-5.168-14.154-8.28-22.85-8.28-8.695 0-16.66 3.111-22.849 8.28-4.271 3.567-10.45 3.567-14.721 0-6.189-5.168-14.155-8.28-22.85-8.28s-16.66 3.111-22.849 8.28c-4.271 3.567-10.45 3.567-14.721 0-6.189-5.168-14.155-8.28-22.85-8.28s-16.66 3.111-22.85 8.28c-4.271 3.567-10.449 3.567-14.72 0-6.189-5.168-14.155-8.28-22.85-8.28s-16.66 3.111-22.849 8.28c-4.277 3.572-10.458 3.555-14.738-.014-6.881-5.738-15.953-8.936-25.78-8.147-12.684 1.018-23.495 8.811-28.95 19.641 4.757 35.98 17.34 69.482 35.955 98.776z" fill="#add841"/><path d="m344.033 397.952c2.838-8.219 8.38-14.732 15.285-18.895 4.766-2.873 6.783-8.713 4.806-13.914-2.864-7.538-3.205-16.082-.367-24.301 2.839-8.218 8.38-14.731 15.286-18.894 4.766-2.872 6.783-8.713 4.806-13.914-2.186-5.751-2.896-12.088-1.852-18.419-3.917 1.743-8.583 1.186-12.016-1.681-6.189-5.168-14.154-8.28-22.849-8.28s-16.66 3.111-22.85 8.28c-4.271 3.567-10.45 3.567-14.721 0-6.189-5.168-14.154-8.28-22.85-8.28-8.695 0-16.66 3.111-22.849 8.28-4.271 3.567-10.45 3.567-14.721 0-6.189-5.168-14.155-8.28-22.85-8.28s-16.66 3.111-22.849 8.28c-4.271 3.567-10.45 3.567-14.721 0-6.189-5.168-14.155-8.28-22.85-8.28s-16.66 3.111-22.85 8.28c-4.271 3.567-10.449 3.567-14.72 0-6.189-5.168-14.155-8.28-22.85-8.28s-16.66 3.111-22.849 8.28c-4.277 3.572-10.458 3.555-14.738-.014-6.881-5.738-15.953-8.936-25.78-8.147-12.684 1.018-23.495 8.811-28.95 19.641 4.757 35.98 17.34 69.482 35.955 98.776h294.866c.029-.08.051-.159.078-.238z" fill="#8ecb51"/><path d="m48.454 397.19c19.97 31.767 47.016 58.636 78.947 78.369l79.853 31.576c15.756 3.181 32.053 4.865 48.746 4.865 5.444 0 10.844-.189 16.199-.538l.04-.011 84.871-21.239c43.958-19.944 80.983-52.488 106.464-93.022z" fill="#384051"/><path d="m344.116 397.19h-295.662c19.97 31.767 47.016 58.636 78.947 78.369l79.853 31.576c15.756 3.181 32.053 4.865 48.746 4.865 5.444 0 10.844-.189 16.199-.538l.04-.011 84.871-21.239c21.576-9.789 41.477-22.621 59.167-37.936-10.307-12.334-28.549-20.031-48.313-25.211-41.333-10.833-23.932-29.113-23.932-29.113z" fill="#212335"/><path d="m153.405 431.02c-6.559-11.478-7.746-23.209-5.989-34.222-15.753 28-19.244 64.237-20.015 78.76 24.166 14.932 51.114 25.788 79.896 31.593 4.212-7.141 9.384-16.204 14.745-26.304-22.894-8.647-54.145-24.465-68.637-49.827z" fill="#8046cc"/><path d="m180.77 459.604c-10.982-7.751-20.863-17.204-27.366-28.584-6.559-11.478-7.746-23.209-5.989-34.222-15.753 28-19.244 64.237-20.015 78.76 12.424 7.677 25.587 14.267 39.353 19.656-8.668-18.189 3.778-29.662 14.017-35.61z" fill="#6936ba"/><path d="m277.339 507.199-5.099 4.252c30.12-1.972 58.758-9.371 84.933-21.255-15.206-22.667-46.62-50.48-61.579-63.131.624 1.05.829 2.305.524 3.566-.335 1.382-1.34 2.499-2.602 3.154-25.036 12.981-40.212 40.794-45.583 52.17-.277.586-.666 1.082-1.121 1.496 9.916 5.531 22.202 10.5 29.445 13.251 2.73 1.036 3.325 4.628 1.082 6.497z" fill="#f9cfa9"/><path d="m277.339 507.199-5.099 4.252c13.961-.914 27.597-3.008 40.823-6.16 3.893-16.714-18.71-30.394-31.098-36.114-16-7.387-10.464-16.106-10.464-16.106l-2.176.134c-10.925 12.261-18.053 25.679-21.391 32.749-.277.586-.667 1.082-1.122 1.496 9.916 5.531 22.202 10.5 29.445 13.251 2.73 1.037 3.324 4.629 1.082 6.498z" fill="#fbbc8d"/><path d="m228.339 369.192c-1.539 1.067-3.36 1.759-5.346 1.926-14.969 1.263-43.769 2.283-63.636-5.799-11.442 17.363-22.035 43.128-7.978 67.727 20.342 35.598 73.717 52.408 90.628 56.953 2.937.789 6.003-.647 7.302-3.397 5.228-11.072 20.288-38.799 45.085-51.56 3.828-1.97 4.55-7.134 1.436-10.108-12.344-11.787-39.787-36.987-67.491-55.742z" fill="#8954dd"/><path d="m271.501 453.071-59.757-38.37c-12.413-8.028-17.012-24.162-10.697-37.529l2.455-5.197c-6.896.013-14.389-.306-21.761-1.233-9.128 22.049-1.222 47.897 18.998 60.975l58.342 37.46c3.406-5.211 7.548-10.792 12.42-16.106z" fill="#f7f3f1"/><path d="m245.152 8.782c-40.51-25.189-69.544 8.999-68.363 37.256 1.273 30.469-23.011 21.961-45.582 32.974-16.802 8.199-11.369 28.431-7.495 38.237.698 1.765 3.133 1.815 3.949.101 7.671-16.116 40.841-12.295 40.841-12.295s31.721 1.8 46.1-17.769-3.315-40.522 3.798-56.104c2.913-6.38 8.892-8.63 14.939-9.066 1.008-6.274 5.573-11.532 11.813-13.334z" fill="#4e5d6d"/><path d="m247.221 20.021c3.35-2.402 7.279-5.312 12.774-8.241-3.556-3.447-8.597-5.29-13.882-4.554-9.109 1.267-15.466 9.679-14.199 18.788.389 2.798 1.458 5.333 3.008 7.471 3.094-5.263 7.27-9.859 12.299-13.464z" fill="#f7f3f1"/><path d="m242.023 8.356c-6.831 2.834-11.177 9.99-10.11 17.657.389 2.798 1.458 5.333 3.008 7.471 3.094-5.263 7.271-9.858 12.299-13.464 1.204-.864 2.489-1.795 3.889-2.767-7.074-.56-8.817-5.262-9.086-8.897z" fill="#cde2ff"/><path d="m257.488 133.852c9.97-15.392 16.656-32.617 12.245-39.529-1.182-1.852-2.755-3.67-4.278-5.428-4.824-5.571-7.599-9.198-3.996-13.389 2.094-2.435 4.141-3.542 6.066-3.282 4.23.565 7.676 7.158 8.631 9.165.693 1.456 2.217 2.298 3.816 2.121 2.077-.231 3.584-2.355 3.303-4.425-.584-4.298 8.062-6.941 8.643-11.134 5.934-42.767 31.464-43.378 36.225-43.02l.701-1.774s-22.359-27.976-50.8-20.018c-17.438 4.879-25.832 11.277-32.199 15.843-7.974 5.718-13.821 13.918-16.572 23.336l-1.008 3.45s-11.393 26.516 9.171 50.433c18.282 21.264 21.091 29.585 20.052 37.651z" fill="#4e5d6d"/><path d="m263.048 33.484c-11.071-4.774-8.358-15.485-5.119-22.379-5.142 2.805-8.873 5.573-12.085 7.876-7.974 5.718-13.821 13.918-16.572 23.336l-1.008 3.45s-11.393 26.516 9.171 50.433c18.283 21.264 21.091 29.586 20.053 37.652 9.969-15.393 16.656-32.617 12.245-39.53-1.182-1.852-2.755-3.67-4.278-5.428-4.825-5.571-7.599-9.198-3.996-13.389 2.094-2.435 4.141-3.542 6.066-3.282 4.23.565 7.676 7.159 8.63 9.165.693 1.456 2.217 2.298 3.816 2.121 2.076-.231 3.584-2.355 3.303-4.425-.584-4.298 8.062-6.941 8.644-11.134-29.129-2.863-11.87-27.135-28.87-34.466z" fill="#384051"/><path d="m275.583 172.765-25.003-32.225c13.17-17.427 21.942-38.448 17.612-45.233-4.329-6.785-14.595-13.462-8.12-20.993 8.794-10.228 15.751 2.116 17.736 6.289.364.764 1.18 1.198 2.018 1.082 1.063-.148 1.805-1.13 1.658-2.193-.62-4.459 7.485-8.347 8.104-12.807 6.575-47.39 39.256-43.528 39.256-43.528s7.793 2.917 11.973 15.263-4.052 35.036 1.932 49.285 3.208 18.637-7.058 20.065-3.13 30.599-12.942 37.504-22.079-10.471-30.397.535-16.769 26.956-16.769 26.956z" fill="#f9cfa9"/><path d="m303.492 142.76c-.063-.019-.119-.039-.182-.058-26.271-7.941-33.638-23.486-35.341-34.609-2.686 9.336-9.183 21.589-17.389 32.447l25.003 32.225s8.451-15.95 16.769-26.956c3.24-4.288 7.08-4.263 11.14-3.049z" fill="#fbbc8d"/><path d="m429.683 157.966c-6.098.276-3.493-.207-8.046.421-8.66 1.194-16.076 6.79-19.669 14.76-2.216 4.915-4.646 10.29-6.328 13.965-3.887 8.494-49.504 48.283-69.504 55.725-6.405 2.383-15.182-11.031-26.735-28.85-.069 7.807-1.714 15.27-5.883 21.484-5.628 8.39-13.791 17.76-22.347 28.91 10.845 11.434 18.373 19.166 18.373 19.166s20.305 21.936 43.163 13.432c19.535-7.268 61.736-62.556 83.851-87.544 3.614-4.084 8.432-6.898 13.766-8.036 8.249-1.76 12.928-4.567 20.009-12.41 11.057-12.244-2.736-31.833-20.65-31.023z" fill="#f9cfa9"/><path d="m305.298 261.065c-11-11 6.085-29.311 6.085-29.311-3.609-4.872-7.595-11-11.982-17.767-.069 7.807-1.714 15.27-5.882 21.484-5.628 8.39-13.792 17.76-22.347 28.91 10.844 11.434 18.373 19.166 18.373 19.166s20.305 21.936 43.163 13.432c4.768-1.774 10.889-6.414 17.737-12.772-27.928 3.389-34.924-12.919-45.147-23.142z" fill="#fbbc8d"/><path d="m247.903 139.853c2.101-2.446 5.643-3.047 8.44-1.442l26.554 19.248c.496.375.985.662 1.253 1.195 3.462 6.895 27.172 51.754 10.495 76.616-17.187 25.622-57.998 60.277-61.538 127.408-.292 5.54-4.584 10.023-10.113 10.49-15.924 1.344-47.504 2.415-67.327-7.458-.309-.154-.438-.543-.295-.857 63.904-140.028 34.586-167.024 55.024-186.19 18.082-16.959 31.463-31.971 37.507-39.01z" fill="#f7f3f1"/><path d="m243.665 217.393c-13.378 6.858-29.883 12.36-45.557 17.232-3.985 26.82-13.809 67.038-42.737 130.428-.144.314-.015.703.295.857 15.663 7.802 38.663 8.768 55.484 8.168-26.47-23.836-3.828-63.862 4.814-99.513 5.52-22.765 17.459-42.963 27.701-57.172z" fill="#cde2ff"/><path d="m269.842 178.115s-7.318-28.078-39.361-18.903-107.639 51.363-107.639 51.363-26.939 12.952-25.536 37.3c1.199 20.809 23.9 85.642 41.276 114.13 2.84 4.656 4.112 10.089 3.63 15.521-.745 8.402.561 13.699 5.974 22.775 8.45 14.17 31.23 6.75 35.726-10.609 1.53-5.909 1.226-3.278 1.965-7.814 1.407-8.629-1.76-17.362-8.32-23.141-4.046-3.564-8.467-7.468-11.485-10.157-6.974-6.214-20.191-66.072-21.419-87.376-1.227-21.304 143.72-30.007 125.189-83.089z" fill="#f9cfa9"/><path d="m230.481 159.211c-32.042 9.175-107.638 51.363-107.638 51.363s-26.939 12.952-25.537 37.3c1.199 20.809 23.899 85.642 41.276 114.13 2.84 4.656 4.112 10.089 3.63 15.521-.745 8.402.561 13.699 5.974 22.775 8.45 14.17 31.23 6.75 35.726-10.609 1.531-5.909 1.225-3.278 1.965-7.814 1.406-8.629-1.76-17.362-8.32-23.141-4.046-3.564-8.468-7.468-11.485-10.157-6.974-6.214-20.191-66.072-21.419-87.376-31.753-31.753 52.645-58.639 88.645-75.139 22.449-10.289 33.231-4.246 38.169 1.761.079-3.064-.432-6.295-1.624-9.711 0 .001-7.318-28.078-39.362-18.903z" fill="#fbbc8d"/><path d="m214.603 87.286c2.377-3.234 3.864-6.507 4.745-9.787-22.743-2.679-12.821-21.823-29.55-26.934-8.376-2.56-11.39-8.689-12.222-14.511-.648 3.34-.924 6.702-.787 9.984 1.273 30.469-23.011 21.961-45.582 32.974-16.802 8.199-11.37 28.431-7.495 38.237.698 1.765 3.133 1.815 3.949.101 7.671-16.116 40.841-12.295 40.841-12.295s31.721 1.799 46.101-17.769z" fill="#384051"/><path d="m146.234 155.564c-2.691-7.194-10.586-11.044-18.112-12.582-7.525-1.538-15.43-1.507-22.591-4.285-11.78-4.569-19.703-16.293-22.532-28.608-1.137-4.949-1.553-9.992-1.489-15.057-30.784 31.233-53.24 70.685-63.784 114.772 2.439 1.125 4.96 2.073 7.549 2.811 18.624 5.307 39.914-.13 53.714-13.715 3.354-3.302 6.352-7.088 10.411-9.47 2.182-1.28 4.6-2.108 7.049-2.741 7.289-1.885 14.892-2.097 22.35-3.131s15.079-3.034 20.855-7.863c5.778-4.829 9.218-13.079 6.58-20.131z" fill="#93dcfc"/></svg>