<?xml version="1.0" encoding="UTF-8"?><svg id="uuid-fa2992f7-4124-4b18-9246-5853b65c4fbb" xmlns="http://www.w3.org/2000/svg" viewBox="0 0 490 512"><g id="uuid-2cfe7be4-3fa6-4f1f-b6b6-951933bdaac6"><path d="M31.08,281.77c9.83-.79,18.9,2.41,25.78,8.15,4.28,3.57,10.46,3.58,14.74,.01,6.19-5.17,14.15-8.28,22.85-8.28s16.66,3.11,22.85,8.28c4.27,3.57,10.45,3.57,14.72,0,6.19-5.17,14.15-8.28,22.85-8.28s16.66,3.11,22.85,8.28c4.27,3.57,10.45,3.57,14.72,0,6.19-5.17,14.15-8.28,22.85-8.28s16.66,3.11,22.85,8.28c4.27,3.57,10.45,3.57,14.72,0,6.19-5.17,14.15-8.28,22.85-8.28s16.66,3.11,22.85,8.28c4.27,3.57,10.45,3.57,14.72,0,6.19-5.17,14.15-8.28,22.85-8.28s16.66,3.11,22.85,8.28c4.27,3.57,10.45,3.57,14.72,0,6.19-5.17,14.15-8.28,22.85-8.28s16.66,3.11,22.85,8.28c4.28,3.57,10.46,3.55,14.74-.01,6.88-5.74,15.95-8.94,25.78-8.15,11.94,.96,22.21,7.93,27.93,17.77,1.41-10.65,2.16-21.51,2.16-32.55,0-135.31-109.69-245-245-245S0,131.69,0,267c0,11.54,.82,22.89,2.36,34.01,5.52-10.61,16.2-18.23,28.72-19.23h0Z" style="fill:#61ccf8;"/><path d="M451.94,398.19c18.87-29.7,31.53-63.73,36.13-100.28-5.67-10.04-16.06-17.17-28.15-18.14-9.83-.79-18.9,2.41-25.78,8.15-4.28,3.57-10.46,3.59-14.74,.01-6.19-5.17-14.15-8.28-22.85-8.28s-16.66,3.11-22.85,8.28c-4.27,3.57-10.45,3.57-14.72,0-6.19-5.17-14.15-8.28-22.85-8.28s-16.66,3.11-22.85,8.28c-4.27,3.57-10.45,3.57-14.72,0-6.19-5.17-14.15-8.28-22.85-8.28s-16.66,3.11-22.85,8.28c-4.27,3.57-10.45,3.57-14.72,0-6.19-5.17-14.15-8.28-22.85-8.28s-16.66,3.11-22.85,8.28c-4.27,3.57-10.45,3.57-14.72,0-6.19-5.17-14.15-8.28-22.85-8.28s-16.66,3.11-22.85,8.28c-4.27,3.57-10.45,3.57-14.72,0-6.19-5.17-14.15-8.28-22.85-8.28s-16.66,3.11-22.85,8.28c-4.28,3.57-10.46,3.55-14.74-.01-6.88-5.74-15.95-8.94-25.78-8.15-12.68,1.02-23.5,8.81-28.95,19.64,4.76,35.98,17.34,69.48,35.96,98.78H451.94Z" style="fill:#add841;"/><path d="M333.03,397.95c2.84-8.22,8.38-14.73,15.29-18.89,4.77-2.87,6.78-8.71,4.81-13.91-2.86-7.54-3.2-16.08-.37-24.3,2.84-8.22,8.38-14.73,15.29-18.89,4.77-2.87,6.78-8.71,4.81-13.91-2.19-5.75-2.9-12.09-1.85-18.42-3.92,1.74-8.58,1.19-12.02-1.68-6.19-5.17-14.15-8.28-22.85-8.28s-16.66,3.11-22.85,8.28c-4.27,3.57-10.45,3.57-14.72,0-6.19-5.17-14.15-8.28-22.85-8.28s-16.66,3.11-22.85,8.28c-4.27,3.57-10.45,3.57-14.72,0-6.19-5.17-14.15-8.28-22.85-8.28s-16.66,3.11-22.85,8.28c-4.27,3.57-10.45,3.57-14.72,0-6.19-5.17-14.15-8.28-22.85-8.28s-16.66,3.11-22.85,8.28c-4.27,3.57-10.45,3.57-14.72,0-6.19-5.17-14.15-8.28-22.85-8.28s-16.66,3.11-22.85,8.28c-4.28,3.57-10.46,3.55-14.74-.01-6.88-5.74-15.95-8.94-25.78-8.15-12.68,1.02-23.5,8.81-28.95,19.64,4.76,35.98,17.34,69.48,35.96,98.78H332.95c.03-.08,.05-.16,.08-.24h0Z" style="fill:#8ecb51;"/><path d="M37.45,397.19c19.97,31.77,47.02,58.64,78.95,78.37l79.85,31.58c15.76,3.18,32.05,4.86,48.75,4.86,5.44,0,10.84-.19,16.2-.54h.04s84.87-21.25,84.87-21.25c43.96-19.94,80.98-52.49,106.46-93.02H37.45Z" style="fill:#384051;"/><path d="M333.11,397.19H37.45c19.97,31.77,47.02,58.64,78.95,78.37l79.85,31.58c15.76,3.18,32.05,4.86,48.75,4.86,5.44,0,10.84-.19,16.2-.54h.04s84.87-21.25,84.87-21.25c21.58-9.79,41.48-22.62,59.17-37.94-10.31-12.33-28.55-20.03-48.31-25.21-41.33-10.83-23.93-29.11-23.93-29.11l.08-.76Z" style="fill:#212335;"/><path d="M142.4,431.02c-6.56-11.48-7.75-23.21-5.99-34.22-15.75,28-19.24,64.24-20.01,78.76,24.17,14.93,51.11,25.79,79.9,31.59,4.21-7.14,9.38-16.2,14.74-26.3-22.89-8.65-54.15-24.46-68.64-49.83Z" style="fill:#002155;"/><path d="M169.77,459.6c-10.98-7.75-20.86-17.2-27.37-28.58-6.56-11.48-7.75-23.21-5.99-34.22-15.75,28-19.24,64.24-20.01,78.76,12.42,7.68,25.59,14.27,39.35,19.66-8.67-18.19,3.78-29.66,14.02-35.61h0Z" style="fill:#00216f;"/><path d="M266.34,507.2l-5.1,4.25c30.12-1.97,58.76-9.37,84.93-21.26-15.21-22.67-46.62-50.48-61.58-63.13,.62,1.05,.83,2.3,.52,3.57-.33,1.38-1.34,2.5-2.6,3.15-25.04,12.98-40.21,40.79-45.58,52.17-.28,.59-.67,1.08-1.12,1.5,9.92,5.53,22.2,10.5,29.45,13.25,2.73,1.04,3.33,4.63,1.08,6.5h0Z" style="fill:#f9cfa9;"/><path d="M266.34,507.2l-5.1,4.25c13.96-.91,27.6-3.01,40.82-6.16,3.89-16.71-18.71-30.39-31.1-36.11-16-7.39-10.46-16.11-10.46-16.11l-2.18,.13c-10.92,12.26-18.05,25.68-21.39,32.75-.28,.59-.67,1.08-1.12,1.5,9.92,5.53,22.2,10.5,29.45,13.25,2.73,1.04,3.32,4.63,1.08,6.5h0Z" style="fill:#fbbc8d;"/><path d="M217.34,369.19c-1.54,1.07-3.36,1.76-5.35,1.93-14.97,1.26-43.77,2.28-63.64-5.8-11.44,17.36-22.04,43.13-7.98,67.73,20.34,35.6,73.72,52.41,90.63,56.95,2.94,.79,6-.65,7.3-3.4,5.23-11.07,20.29-38.8,45.08-51.56,3.83-1.97,4.55-7.13,1.44-10.11-12.34-11.79-39.79-36.99-67.49-55.74h0Z" style="fill:#00216f;"/><path d="M260.5,453.07l-59.76-38.37c-12.41-8.03-17.01-24.16-10.7-37.53l2.46-5.2c-6.9,.01-14.39-.31-21.76-1.23-9.13,22.05-1.22,47.9,19,60.98l58.34,37.46c3.41-5.21,7.55-10.79,12.42-16.11h0Z" style="fill:#f7f3f1;"/><path d="M234.15,8.78c-40.51-25.19-69.54,9-68.36,37.26,1.27,30.47-23.01,21.96-45.58,32.97-16.8,8.2-11.37,28.43-7.5,38.24,.7,1.76,3.13,1.82,3.95,.1,7.67-16.12,40.84-12.29,40.84-12.29,0,0,31.72,1.8,46.1-17.77s-3.32-40.52,3.8-56.1c2.91-6.38,8.89-8.63,14.94-9.07,1.01-6.27,5.57-11.53,11.81-13.33Z" style="fill:#4e5d6d;"/><path d="M236.22,20.02c3.35-2.4,7.28-5.31,12.77-8.24-3.56-3.45-8.6-5.29-13.88-4.55-9.11,1.27-15.47,9.68-14.2,18.79,.39,2.8,1.46,5.33,3.01,7.47,3.09-5.26,7.27-9.86,12.3-13.46h0Z" style="fill:#f7f3f1;"/><path d="M231.02,8.36c-6.83,2.83-11.18,9.99-10.11,17.66,.39,2.8,1.46,5.33,3.01,7.47,3.09-5.26,7.27-9.86,12.3-13.46,1.2-.86,2.49-1.8,3.89-2.77-7.07-.56-8.82-5.26-9.09-8.9h0Z" style="fill:#cde2ff;"/><path d="M246.49,133.85c9.97-15.39,16.66-32.62,12.24-39.53-1.18-1.85-2.76-3.67-4.28-5.43-4.82-5.57-7.6-9.2-4-13.39,2.09-2.43,4.14-3.54,6.07-3.28,4.23,.57,7.68,7.16,8.63,9.17,.69,1.46,2.22,2.3,3.82,2.12,2.08-.23,3.58-2.36,3.3-4.43-.58-4.3,8.06-6.94,8.64-11.13,5.93-42.77,31.46-43.38,36.23-43.02l.7-1.77s-22.36-27.98-50.8-20.02c-17.44,4.88-25.83,11.28-32.2,15.84-7.97,5.72-13.82,13.92-16.57,23.34l-1.01,3.45s-11.39,26.52,9.17,50.43c18.28,21.26,21.09,29.58,20.05,37.65h0Z" style="fill:#4e5d6d;"/><path d="M252.05,33.48c-11.07-4.77-8.36-15.49-5.12-22.38-5.14,2.81-8.87,5.57-12.09,7.88-7.97,5.72-13.82,13.92-16.57,23.34l-1.01,3.45s-11.39,26.52,9.17,50.43c18.28,21.26,21.09,29.59,20.05,37.65,9.97-15.39,16.66-32.62,12.24-39.53-1.18-1.85-2.76-3.67-4.28-5.43-4.83-5.57-7.6-9.2-4-13.39,2.09-2.43,4.14-3.54,6.07-3.28,4.23,.57,7.68,7.16,8.63,9.17,.69,1.46,2.22,2.3,3.82,2.12,2.08-.23,3.58-2.36,3.3-4.43-.58-4.3,8.06-6.94,8.64-11.13-29.13-2.86-11.87-27.14-28.87-34.47h0Z" style="fill:#384051;"/><path d="M264.58,172.77l-25-32.22c13.17-17.43,21.94-38.45,17.61-45.23-4.33-6.79-14.6-13.46-8.12-20.99,8.79-10.23,15.75,2.12,17.74,6.29,.36,.76,1.18,1.2,2.02,1.08,1.06-.15,1.8-1.13,1.66-2.19-.62-4.46,7.48-8.35,8.1-12.81,6.58-47.39,39.26-43.53,39.26-43.53,0,0,7.79,2.92,11.97,15.26s-4.05,35.04,1.93,49.29,3.21,18.64-7.06,20.07-3.13,30.6-12.94,37.5-22.08-10.47-30.4,.54-16.77,26.96-16.77,26.96h0Z" style="fill:#f9cfa9;"/><path d="M292.49,142.76c-.06-.02-.12-.04-.18-.06-26.27-7.94-33.64-23.49-35.34-34.61-2.69,9.34-9.18,21.59-17.39,32.45l25,32.22s8.45-15.95,16.77-26.96c3.24-4.29,7.08-4.26,11.14-3.05Z" style="fill:#fbbc8d;"/><path d="M418.68,157.97c-6.1,.28-3.49-.21-8.05,.42-8.66,1.19-16.08,6.79-19.67,14.76-2.22,4.91-4.65,10.29-6.33,13.96-3.89,8.49-49.5,48.28-69.5,55.73-6.4,2.38-15.18-11.03-26.74-28.85-.07,7.81-1.71,15.27-5.88,21.48-5.63,8.39-13.79,17.76-22.35,28.91,10.85,11.43,18.37,19.17,18.37,19.17,0,0,20.3,21.94,43.16,13.43,19.54-7.27,61.74-62.56,83.85-87.54,3.61-4.08,8.43-6.9,13.77-8.04,8.25-1.76,12.93-4.57,20.01-12.41,11.06-12.24-2.74-31.83-20.65-31.02h0Z" style="fill:#f9cfa9;"/><path d="M294.3,261.07c-11-11,6.08-29.31,6.08-29.31-3.61-4.87-7.6-11-11.98-17.77-.07,7.81-1.71,15.27-5.88,21.48-5.63,8.39-13.79,17.76-22.35,28.91,10.84,11.43,18.37,19.17,18.37,19.17,0,0,20.3,21.94,43.16,13.43,4.77-1.77,10.89-6.41,17.74-12.77-27.93,3.39-34.92-12.92-45.15-23.14h0Z" style="fill:#fbbc8d;"/><path d="M236.9,139.85c2.1-2.45,5.64-3.05,8.44-1.44l26.55,19.25c.5,.38,.98,.66,1.25,1.2,3.46,6.9,27.17,51.75,10.49,76.62-17.19,25.62-58,60.28-61.54,127.41-.29,5.54-4.58,10.02-10.11,10.49-15.92,1.34-47.5,2.42-67.33-7.46-.31-.15-.44-.54-.29-.86,63.9-140.03,34.59-167.02,55.02-186.19,18.08-16.96,31.46-31.97,37.51-39.01h0Z" style="fill:#971d33;"/><path d="M232.66,217.39c-13.38,6.86-29.88,12.36-45.56,17.23-3.99,26.82-13.81,67.04-42.74,130.43-.14,.31-.01,.7,.29,.86,15.66,7.8,38.66,8.77,55.48,8.17-26.47-23.84-3.83-63.86,4.81-99.51,5.52-22.76,17.46-42.96,27.7-57.17h0Z" style="fill:#5e1220;"/><path d="M258.84,178.12s-7.32-28.08-39.36-18.9-107.64,51.36-107.64,51.36c0,0-26.94,12.95-25.54,37.3,1.2,20.81,23.9,85.64,41.28,114.13,2.84,4.66,4.11,10.09,3.63,15.52-.74,8.4,.56,13.7,5.97,22.77,8.45,14.17,31.23,6.75,35.73-10.61,1.53-5.91,1.23-3.28,1.96-7.81,1.41-8.63-1.76-17.36-8.32-23.14-4.05-3.56-8.47-7.47-11.49-10.16-6.97-6.21-20.19-66.07-21.42-87.38-1.23-21.3,143.72-30.01,125.19-83.09h0Z" style="fill:#f9cfa9;"/><path d="M219.48,159.21c-32.04,9.18-107.64,51.36-107.64,51.36,0,0-26.94,12.95-25.54,37.3,1.2,20.81,23.9,85.64,41.28,114.13,2.84,4.66,4.11,10.09,3.63,15.52-.74,8.4,.56,13.7,5.97,22.77,8.45,14.17,31.23,6.75,35.73-10.61,1.53-5.91,1.23-3.28,1.96-7.81,1.41-8.63-1.76-17.36-8.32-23.14-4.05-3.56-8.47-7.47-11.49-10.16-6.97-6.21-20.19-66.07-21.42-87.38-31.75-31.75,52.65-58.64,88.65-75.14,22.45-10.29,33.23-4.25,38.17,1.76,.08-3.06-.43-6.29-1.62-9.71,0,0-7.32-28.08-39.36-18.9h0Z" style="fill:#fbbc8d;"/><path d="M203.6,87.29c2.38-3.23,3.86-6.51,4.74-9.79-22.74-2.68-12.82-21.82-29.55-26.93-8.38-2.56-11.39-8.69-12.22-14.51-.65,3.34-.92,6.7-.79,9.98,1.27,30.47-23.01,21.96-45.58,32.97-16.8,8.2-11.37,28.43-7.5,38.24,.7,1.76,3.13,1.82,3.95,.1,7.67-16.12,40.84-12.29,40.84-12.29,0,0,31.72,1.8,46.1-17.77h0Z" style="fill:#384051;"/><path d="M135.23,155.56c-2.69-7.19-10.59-11.04-18.11-12.58-7.53-1.54-15.43-1.51-22.59-4.29-11.78-4.57-19.7-16.29-22.53-28.61-1.14-4.95-1.55-9.99-1.49-15.06-30.78,31.23-53.24,70.68-63.78,114.77,2.44,1.12,4.96,2.07,7.55,2.81,18.62,5.31,39.91-.13,53.71-13.71,3.35-3.3,6.35-7.09,10.41-9.47,2.18-1.28,4.6-2.11,7.05-2.74,7.29-1.88,14.89-2.1,22.35-3.13s15.08-3.03,20.86-7.86c5.78-4.83,9.22-13.08,6.58-20.13h0Z" style="fill:#93dcfc;"/></g></svg>