<?xml version="1.0" encoding="UTF-8"?><svg id="uuid-197189c0-4ebe-4877-974e-05395d32b7b0" xmlns="http://www.w3.org/2000/svg" viewBox="0 0 500.99 512"><g id="uuid-b711ae22-7693-4171-972b-e79d96e324e5"><circle cx="245" cy="267" r="245" style="fill:#6bd9e7;"/><path d="M447.16,74.27l-20.43-20.43c-65.28-65.28-171.69-65.1-237.2,.41l-101.92,101.92c-65.51,65.51-65.69,171.92-.41,237.2l20.43,20.43c27.67,27.67,62.72,43.57,98.91,47.73l-38.21,38.21c24.12,7.94,49.89,12.25,76.67,12.25,.41,0,.82-.01,1.23-.02l200.51-200.51c65.51-65.51,65.7-171.92,.42-237.2Z" style="fill:#fd3581;"/><path d="M225.84,441.65c-39.13,0-75.84-15.16-103.37-42.69l-20.43-20.43c-57.09-57.1-56.91-150.18,.41-207.5l101.92-101.92c27.79-27.8,64.78-43.1,104.13-43.1s75.84,15.16,103.37,42.69l20.43,20.43c27.6,27.6,42.76,64.4,42.69,103.63-.07,39.26-15.38,76.15-43.11,103.87l-101.92,101.92c-27.8,27.8-64.78,43.1-104.13,43.1h0Z" style="fill:#fe5694;"/><path d="M225.84,420.15c-33.39,0-64.7-12.92-88.17-36.39l-20.43-20.43c-23.54-23.54-36.47-54.94-36.4-88.42,.07-33.51,13.14-65,36.82-88.68l101.92-101.92c23.73-23.74,55.32-36.81,88.93-36.81s64.7,12.92,88.17,36.39l20.43,20.43c23.53,23.53,36.45,54.92,36.39,88.39-.06,33.53-13.13,65.03-36.81,88.71l-101.92,101.92c-23.74,23.73-55.32,36.81-88.93,36.81h0Z" style="fill:#fe93bb;"/><path d="M132.42,348.15c-40.49-40.49-40.38-106.26,.26-146.9l101.92-101.92c40.64-40.64,106.4-40.75,146.9-.26l20.43,20.43c40.49,40.49,40.38,106.26-.26,146.9l-101.92,101.92c-40.64,40.64-106.4,40.75-146.9,.26l-20.43-20.43Z" style="fill:#00c285;"/><path d="M146.25,216.13l103.97-103.97c34.05-34.04,85.38-40.2,125.52-18.43-40.75-35.06-102.38-33.17-141.14,5.59l-101.92,101.92c-39.9,39.9-40.73,104.03-2.41,144.67-24.62-40.71-19.28-94.52,15.99-129.79h0Z" style="fill:#00b37b;"/><path d="M124.07,269.03c-1.94-1.94-1.94-5.13,0-7.07L295.31,90.72c1.94-1.94,5.12-1.94,7.07,0l107.9,107.9c1.94,1.94,1.94,5.13,0,7.07l-171.23,171.23c-1.94,1.94-5.12,1.94-7.07,0l-107.9-107.9Z" style="fill:#01998d;"/><path d="M138.86,278.96L312.46,105.36c.87-.87,1.98-1.33,3.12-1.43l-13.2-13.2c-1.95-1.94-5.13-1.94-7.07,0L124.07,261.96c-1.94,1.94-1.94,5.13,0,7.07l13.32,13.32c.05-1.23,.52-2.45,1.46-3.39Z" style="fill:#008b81;"/><path d="M450.7,70.74l-20.43-20.43C397.82,17.87,354.58,0,308.51,0s-89.81,18.01-122.52,50.72l-101.92,101.92c-67.46,67.46-67.65,177.04-.41,244.27l20.43,20.43c25.3,25.3,57.17,41.73,91.83,47.74l-32.86,32.86c3.51,1.24,7.06,2.42,10.64,3.5l34.67-34.67c5.77,.57,11.6,.87,17.48,.87,.37,0,.74-.01,1.11-.01l-37.93,37.93c1.92,.45,3.85,.87,5.79,1.28l39.39-39.4c8.88-.42,17.64-1.51,26.21-3.23l-45.89,45.89c2.11,.26,4.24,.5,6.37,.7l48.72-48.72c10.52-2.72,20.72-6.42,30.5-11.06l-60.88,60.89c1.92,.05,3.85,.07,5.78,.07,2.83,0,5.64-.07,8.45-.16l201.39-201.59c62.86-67.76,61.53-173.84-4.14-239.51h0Zm-265.13-5.45l9.72,9.72-10.94,10.94-9.72-9.72,10.94-10.94Zm117.7,306.6s.02-.02,.02-.02l17.23-17.23,9.72,9.72-7.39,7.39-9.85,9.85c-14.16,14.16-31.17,24.43-49.74,30.3l40-40Zm-7.07-7.07c-18.76,18.74-43.66,29.06-70.12,29.06s-51.08-10.24-69.68-28.83l-20.43-20.43c-38.48-38.48-38.36-101.21,.26-139.82l101.92-101.92c18.76-18.76,43.67-29.09,70.15-29.09s51.09,10.24,69.68,28.83l20.43,20.43c38.48,38.48,38.36,101.21-.26,139.83l-101.95,101.95Zm27.86-13.72l10.94-10.94,9.72,9.72-10.94,10.94-9.72-9.72Zm14.47-14.47l66.68-66.68c42.52-42.52,42.63-111.59,.26-153.97l-20.43-20.43c-20.48-20.48-47.74-31.76-76.75-31.76s-56.57,11.37-77.22,32.02l-3.96,3.96-9.72-9.72,3.96-3.96c23.23-23.23,54.13-36.02,87.02-36.02s63.42,12.68,86.45,35.71l20.43,20.43c23.09,23.09,35.77,53.86,35.71,86.66-.06,32.8-12.85,63.63-36.02,86.8l-66.68,66.68-9.72-9.72ZM223.56,103.29l-10.94,10.94-9.72-9.72,10.94-10.94,9.72,9.72Zm-14.47,14.47l-79.95,79.95c-42.52,42.52-42.63,111.59-.26,153.97l20.43,20.43c20.48,20.48,47.74,31.76,76.75,31.76,13.09,0,25.82-2.3,37.75-6.69l-18.99,18.99c-6.18,.94-12.47,1.43-18.84,1.43-32.72,0-63.42-12.68-86.45-35.71l-20.43-20.43c-47.74-47.74-47.6-125.55,.31-173.46l79.95-79.95,9.72,9.72Zm-93.21,66.69c-49.86,49.86-50,130.85-.31,180.53l20.43,20.43c23.97,23.97,55.93,37.18,89.98,37.18,4.4,0,8.75-.22,13.07-.66l-16.88,16.88c-36.99-.93-71.56-15.71-97.71-41.86l-20.43-20.43c-56.02-56.02-55.86-147.34,.36-203.56l79.95-79.95,11.49,11.49-79.95,79.95Zm140.2,234.6c11.12-2.66,21.78-6.8,31.76-12.32l-28.18,28.18c-7.5,1.79-15.19,2.98-23,3.55l19.42-19.42Zm70.3-43.79l7.39-7.39,11.49,11.49-17.23,17.23c-16.68,16.68-36.73,28.76-58.61,35.64l56.97-56.97Zm10.92-10.92l10.94-10.94,11.49,11.49-10.94,10.94-11.49-11.49Zm14.48-14.47l66.68-66.68c49.86-49.86,50-130.85,.31-180.53l-20.43-20.43c-23.98-23.97-55.93-37.18-89.98-37.18s-66.38,13.31-90.55,37.49l-3.96,3.96-11.49-11.49,3.96-3.96c27.26-27.26,63.52-42.27,102.11-42.27s74.42,14.88,101.45,41.91l20.43,20.43c27.09,27.09,41.98,63.21,41.91,101.7-.07,38.49-15.08,74.67-42.27,101.86l-66.68,66.68-11.49-11.49ZM210.31,90.03l-10.94,10.94-11.49-11.49,10.94-10.94,11.49,11.49Zm-5.6,366.26c-35.37-4.55-68.02-20.48-93.55-46.02l-20.43-20.43c-63.33-63.33-63.15-166.57,.41-230.13l79.95-79.95,9.72,9.72-79.95,79.95c-58.17,58.17-58.33,152.66-.36,210.63l20.43,20.43c25.96,25.96,59.93,41.08,96.44,43.13l-12.67,12.67Zm21.13,1.36c-2.73,0-5.45-.07-8.15-.2l13.69-13.69c7.38-.26,14.66-1.06,21.81-2.37l-15.85,15.85c-3.81,.26-7.64,.4-11.5,.4h0Zm19.29-1.13l17.05-17.05c13.57-3.36,26.54-8.62,38.62-15.64l-26.56,26.56c-9.44,2.91-19.17,4.97-29.11,6.13h0Zm96.09-46.6c-16.26,16.24-35.34,28.62-56.15,36.71l46.49-46.49,17.23-17.23,9.72,9.72-17.29,17.29Zm20.83-20.82l-9.72-9.72,4.33-4.33,6.61-6.61,9.72,9.72-10.94,10.94Zm81.16-81.16l-66.68,66.68-9.72-9.72,66.68-66.68c28.14-28.13,43.67-65.56,43.74-105.39,.07-39.83-15.34-77.21-43.38-105.25l-20.43-20.43c-27.97-27.97-65.25-43.37-104.98-43.37s-77.45,15.53-105.65,43.74l-3.96,3.96-9.72-9.72,3.96-3.96c30.82-30.82,71.82-47.79,115.45-47.79s84.14,16.82,114.69,47.38l20.43,20.43c63.33,63.33,63.14,166.57-.42,230.13h0Z" style="fill:#e3f3ff;"/><g><path d="M416.73,202.16c0-2.68-1.04-5.19-2.92-7.07l-107.9-107.9c-1.89-1.89-4.4-2.92-7.07-2.92s-5.19,1.04-7.07,2.92L120.54,258.42c-3.9,3.9-3.9,10.24,0,14.14l107.9,107.9c1.88,1.89,4.4,2.92,7.07,2.92s5.19-1.04,7.07-2.92l171.23-171.23c1.89-1.88,2.92-4.4,2.92-7.07h0Zm-41.41-31.42l-17.18,17.18c-.31,.31-.67,.35-.86,.35s-.54-.04-.84-.34l-43.38-43.38c-.46-.46-.45-1.24,0-1.7l17.18-17.18,45.07,45.07Zm-216.3,126.17l17.18-17.18c.3-.31,.67-.35,.85-.35s.54,.05,.84,.34l43.38,43.38c.46,.46,.46,1.24,0,1.7l-17.18,17.18-45.07-45.07Zm76.5,76.48s0,0-.01,0h0s-27.88-27.88-27.88-27.88l17.18-17.18c2.42-2.42,2.42-6.35,0-8.77l-43.38-43.38c-1.17-1.17-2.72-1.81-4.38-1.81s-3.22,.64-4.39,1.82l-17.18,17.18-27.88-27.88,83.85-83.85,29.52,29.52c-5.48,6.31-8.49,14.29-8.51,22.72-.02,9.27,3.58,17.98,10.12,24.53,6.53,6.53,15.22,10.12,24.47,10.12,8.45,0,16.45-3.01,22.78-8.51l29.52,29.52-83.84,83.84Zm50.77-116.9c-5.38,4.56-12.11,7.05-19.23,7.05-7.91,0-15.35-3.08-20.93-8.66-5.6-5.6-8.67-13.05-8.66-20.98,.01-7.1,2.5-13.82,7.05-19.18l41.78,41.77Zm-38.24-45.31c5.38-4.56,12.11-7.05,19.23-7.05,7.91,0,15.35,3.07,20.93,8.66,10.97,10.97,11.49,28.49,1.61,40.16l-41.77-41.77Zm74.84,74.84l-29.52-29.52c11.82-13.64,11.3-34.33-1.62-47.24-6.53-6.53-15.22-10.12-24.47-10.12-8.45,0-16.45,3.01-22.78,8.51l-29.52-29.52,83.85-83.85,27.88,27.88-17.18,17.18c-2.42,2.42-2.42,6.35,0,8.77l43.38,43.38c1.17,1.17,2.72,1.81,4.38,1.81s3.22-.65,4.39-1.82l17.18-17.18,27.88,27.88-83.85,83.85Z" style="fill:#c7e7ff;"/><path d="M235.51,383.39c-2.67,0-5.19-1.04-7.07-2.92l-107.9-107.9c-3.9-3.9-3.9-10.24,0-14.14L291.77,87.19c1.89-1.89,4.39-2.92,7.07-2.92s5.19,1.04,7.07,2.92l107.9,107.9c1.89,1.88,2.92,4.4,2.92,7.07s-1.04,5.19-2.92,7.07l-171.23,171.23c-1.88,1.89-4.4,2.92-7.07,2.92h0Zm63.33-289.13L127.61,265.49l107.9,107.9h0s.01,0,.01,0l171.22-171.23-107.9-107.9Z" style="fill:#c7e7ff;"/></g><g><path d="M189.14,480.09c-22.85-3.59-55.17-22.89-63.08-30.14-.83-.76-1.5-1.63-2.03-2.56-3.55,8.27-7.16,17.58-10.03,26.99,20.09,12.67,42.15,22.5,65.62,28.93,5.08-7.89,9.78-16.01,13.85-23.49-1.39,.4-2.86,.51-4.32,.28Z" style="fill:#f9ba8f;"/><path d="M146.49,491.59c10.67,4.66,21.73,8.59,33.12,11.71,5.08-7.89,9.78-16.01,13.85-23.49-1.39,.4-2.86,.51-4.32,.28-10.51-1.65-23.02-6.63-34.24-12.23l-1.16,1.56s3.02,13.52-7.24,22.17h0Z" style="fill:#fcad6d;"/><path d="M305.74,393.22c.41,3.04-.29,6.21-2.19,8.88-16.88,23.67-35.27,39.11-46.35,47.17-1.08,.78-2.23,1.43-3.42,1.93,8.54,5.29,19.93,10.88,33.33,13.86,3.99,.89,6.14,5.22,4.36,8.9-3.7,7.7-9.48,20.69-14.37,35.87,26.81-3.57,52.25-11.48,75.6-22.99,5.46-11.7,9.13-22.16,8.58-28.27-1.81-20.03-32.34-47.32-55.56-65.35h0Z" style="fill:#f9ba8f;"/><path d="M277.12,509.83c10.51-1.4,20.81-3.48,30.86-6.16-.58-5.08,.2-10.42,3.54-15.42,11.63-17.44,15.75-36.25-3.95-42.67s-16.11-25.57-16.11-25.57l-1.02-1.35c-12.7,14.52-24.99,24.61-33.23,30.6-1.08,.78-2.23,1.43-3.42,1.93,8.54,5.29,19.93,10.88,33.33,13.86,3.99,.89,6.14,5.22,4.36,8.9-3.7,7.7-9.48,20.69-14.37,35.87h0Z" style="fill:#fcad6d;"/><g><path d="M184.88,413.38c-27.02-17.37-30.1-39.4-26.58-56.88-1.45,.82-2.26,1.29-2.26,1.29,0,0-12.07,21.93-14.23,41.98-1.55,14.39-12.42,29.25-18.08,39.57-2.3,4.2-1.41,9.4,2.12,12.64,7.91,7.24,40.22,26.55,63.08,30.14,2.81,.44,5.68-.35,7.91-2.11,6.96-5.48,10.79-18.94,25.75-43.18-9.22-5.99-22.69-13.8-37.71-23.45h0Z" style="fill:#2a428c;"/><path d="M174.69,441.33c-7.67,18-10,23.67-10,23.67,0,0-3.75,6.32-10.96,4.41,11.46,5.79,24.38,11,35.19,12.7,2.81,.44,5.68-.35,7.91-2.11,6.96-5.48,10.79-18.94,25.75-43.18-9.22-5.99-22.69-13.8-37.7-23.45-27.02-17.37-30.1-39.41-26.58-56.88-1.45,.82-2.26,1.29-2.26,1.29,0,0-12.07,21.93-14.23,41.98,0,0,40.54,23.57,32.88,41.57h0Z" style="fill:#1a3372;"/></g><path d="M303.71,385.81c-10.51-9.29-29.84-25.36-49.17-36.14l-87.28-19.95c-7.37,11.55-29.95,54.14,15.64,83.44,30.2,19.41,47.45,30.66,56.71,36.76,6,3.95,13.82,3.78,19.63-.44,11.07-8.06,29.46-23.5,46.35-47.17,3.69-5.17,2.88-12.3-1.88-16.5h0Z" style="fill:#4f71b6;"/><path d="M259.24,449.48c8.02-5.84,19.88-15.57,32.22-29.47-5.21,.65-9.2-1.26-9.2-1.26,0,0,6.85,3.88-34.25-17.25s-28.33-49.13-28.33-49.13l-13.54-13.76-38.89-8.89c-7.37,11.55-29.95,54.14,15.64,83.44,30.2,19.41,47.45,30.66,56.71,36.76,6,3.95,13.82,3.79,19.63-.44Z" style="fill:#3c58a0;"/><path d="M380.63,193.44c-2.93-1.92-12.61,4.22-19.02,8.74-3.31,2.33-5.36,6.08-5.43,10.13-.09,5.21-.86,8.22-1.67,10.74h0c-.41,1.29-1.3,2.38-2.47,3.06-5.46,3.18-11.24,5.98-15.32,6.41-8.6,.92-26.25-.87-40.79,5.84-1.23,7.02-3.08,13.84-5.75,20.12-6.24,14.67-12.95,31.54-18.91,46.91,3.15-.49,5.43-2.23,6.65-3.44,.83-.82,1.82-1.44,2.92-1.83,9.29-3.29,51.26-19.56,85.83-55.63,1.37-1.43,3.07-2.49,4.93-3.17,8.76-3.21,19.02-11.3,22.37-18.75,4.27-9.5-8.83-26.19-13.33-29.14Z" style="fill:#f9ba8f;"/><path d="M317.3,233.38c-6.97,.56-14.51,1.82-21.38,4.99-1.23,7.02-3.08,13.84-5.75,20.12-6.24,14.67-12.95,31.54-18.91,46.91,3.15-.49,5.43-2.23,6.65-3.44,.83-.82,1.82-1.44,2.92-1.83,5.79-2.05,24.27-9.14,45.74-22.92-26.36-13.96-9.27-43.83-9.26-43.83h0Z" style="fill:#fcad6d;"/><g><path d="M363.99,38.78c-4.3-3.43-10.33-8.98-14.52-15.9-11.57-19.06-47.21-33.91-70.36-11.96-1.48,1.41-3.34,2.35-5.34,2.8-9.67,2.19-34.26,12.39-20.96,54.11,3.17,9.95,4.87,18.09,5.55,24.74,4.92-3.64,9.64-8.2,10.79-12.92,1.19-4.87,.62-8.94,.17-12.22-.52-3.74-.87-6.21,1.3-8.13,3.04-2.7,6.81-1.12,9.34,1.26,1.43,1.35,2,3.44,1.51,5.47l-.84,3.43c-.61,2.49,.92,5,3.4,5.61,2.4,.59,4.84-.81,5.55-3.17,4.83-16.17,9.76-27.06,13.18-29.13,2.7-1.64,7.79,.15,14.23,2.4,7.51,2.63,16.76,5.88,27.54,5.87-.11,.24-.24,.51-.37,.79l2.01-1.81s8.66-1.2,16.75-4.36c2.89-1.13,3.51-4.95,1.08-6.89h0Z" style="fill:#3c58a0;"/><path d="M273.77,13.72c-9.67,2.19-34.26,12.39-20.96,54.11,3.17,9.95,4.87,18.09,5.55,24.74,4.92-3.64,9.64-8.2,10.79-12.92,1.19-4.87,.62-8.94,.17-12.21-.52-3.74-.87-6.21,1.3-8.13,3.04-2.7,6.81-1.12,9.34,1.26,1.43,1.35,2,3.44,1.51,5.47l-.84,3.43c-.61,2.49,.92,5,3.4,5.61,2.4,.59,4.84-.81,5.55-3.17,4.83-16.17,9.76-27.06,13.18-29.13-26.95-5.34-23.65-31.86-23.65-31.86-1.48,1.41-3.34,2.35-5.34,2.8h0Z" style="fill:#2a428c;"/></g><path d="M293.77,159.51c-.38-2.24-.94-4.81-1.52-7.55v.11c-5.73-10.81-18.99-18.28-37.19-28.55-.65-.51-10.4-4.87-14.82-13.59-.88-1.74-1.96-4.59-1.8-6.7-16.85,10.52-59.79,42.76-56.89,96.65,3.08,57.03-10.95,112.28-15.17,127.4-.68,2.45,.32,5.06,2.48,6.42,15.53,9.77,32.86,16.09,50.83,18.67l22.71,1.26c2.44-.08,4.88-.22,7.32-.43l2.1-.19c2.21-.2,4.11-1.64,4.88-3.73,4.64-12.56,21.27-57.27,35.43-90.58,16.63-39.12,1.62-99.19,1.62-99.19h0Z" style="fill:#2a428c;"/><path d="M245.03,223.23s-.4-6.73,4.58-13.97l-4.99,.99c-2.56,.51-4.82,1.98-6.37,4.08-5.8,7.9-11.69,14.04-17.24,18.84,.26,5.81,.92,11.73,2.12,17.62,7.35,36.14,19.07,74.58-3.45,101.6,7.49,1.08,15.09,1.5,22.71,1.26,7.7-11.42,17.06-31.64,12.59-58.71-4.41-26.65-10.35-50.39-9.96-71.69h0Z" style="fill:#971d33;"/><path d="M341.93,78.83c-4.48-13.15,4.23-28.8,4.23-28.8-21.29,.69-37.3-12.12-43.93-8.1-5.2,3.16-11.22,21.72-13.57,29.54-.53,1.78-2.28,3-4.11,2.71-2.13-.34-3.47-2.42-2.97-4.47l.85-3.46c.56-2.3-.08-4.78-1.8-6.4-3.06-2.89-7.36-4.24-10.68-1.28-4.75,4.22,.72,10.69-1.77,20.85-1.53,6.25-9.91,12.37-16.14,16.16,.37,.32,.67,.73,.82,1.25,.05,1.04,.66,9.59,8.52,15.68,7.86,6.1,20.1,17.28,25.51,20.96,1.16,.79,2.24,1.97,3.13,3.35-.09-2.77,.11-5.38,.77-7.65,5.17-17.79,21.74,4.65,29.33,1.45,11.54-4.87,8.73-29.72,14.27-29.85,11.32-.25,12.01-8.77,7.54-21.92Z" style="fill:#f9ba8f;"/><path d="M284.55,74.18c-2.13-.34-3.47-2.42-2.97-4.47l.85-3.46c.56-2.3-.08-4.78-1.8-6.4-3.06-2.89-7.36-4.24-10.68-1.28-4.75,4.22,.72,10.69-1.77,20.85-1.53,6.25-9.91,12.37-16.14,16.16,.37,.32,.67,.73,.82,1.25,.05,1.04,.66,9.59,8.52,15.68,7.86,6.1,20.1,17.28,25.51,20.96,1.16,.79,2.24,1.97,3.13,3.35-.09-2.77,.11-5.38,.77-7.65,1.88-6.46,5.27-7.61,9.18-6.61-19.19-15.95-15.42-48.36-15.42-48.36h0Z" style="fill:#fcad6d;"/><path d="M293.16,144.23c.09-4.01-2.54-9.12-5.86-11.37-5.39-3.66-17.54-14.78-25.47-20.93-8.02-6.22-8.24-15.21-8.24-15.21-.56-2.18-3.07-3.19-4.99-2.03l-9.32,5.63c-1.16,.7-1.78,2.03-1.59,3.38,0,0-.2,10.77,15.37,19.55,19.34,10.91,33.27,18.52,38.87,29.81,.25,.51,1.03,.33,1.04-.24l.19-8.58Z" style="fill:#971d33;"/><path d="M282.55,305.16c.18-3.49-10-8.77-17.14-12.03-3.68-1.68-7.95-1.57-11.49,.41-4.55,2.55-7.53,3.4-10.12,3.96h0c-1.32,.29-2.71,.08-3.89-.59-5.5-3.11-10.83-6.7-13.26-10-5.73-7.77-14.2-27.01-30.41-35.2-.91-.46-.82-1.78,.14-2.1,3.66-1.23,10.46-4.04,18.61-9.87-13.49-7.33-39.93-25.72-47.69-60.17-7.39,7.71-14.24,17.77-18.77,30.81,0,0-21.42,20.94-18.78,41.04,.18,1.36,.05,2.73-.41,4.02-.81,2.29-1.71,6.31,.18,9.87,2.02,3.78,5.5,5.23,7.51,5.77,1.13,.3,2.16,.85,3.05,1.6,7.53,6.37,42.72,34.43,91.3,46.12,1.92,.46,3.69,1.4,5.22,2.66,7.19,5.95,19.35,10.74,27.47,9.88,10.36-1.1,18.18-20.82,18.46-26.19h0Z" style="fill:#f9ba8f;"/><path d="M265.41,293.13c-3.68-1.68-7.95-1.57-11.49,.41-4.55,2.55-7.53,3.4-10.12,3.96h0c-1.32,.29-2.71,.08-3.89-.59-.22-.12-.44-.25-.66-.38-.7,4.06-2.87,7.52-6.18,8.86-5.94,2.4-21.31-3.65-32.81-22.4-7.94-12.94-21.95-24.1-29.87-29.77-2.46-1.76-2.41-5.4,.06-7.13,13.53-9.46,15.23-28.68,15.23-28.68l.55-.66c-8.17-9.45-15.44-21.68-18.93-37.17-7.39,7.71-14.24,17.77-18.77,30.81,0,0-21.42,20.94-18.78,41.04,.18,1.36,.05,2.73-.41,4.02-.81,2.29-1.71,6.31,.18,9.87,2.02,3.78,5.5,5.23,7.51,5.77,1.13,.3,2.16,.85,3.05,1.6,7.53,6.37,42.72,34.43,91.3,46.12,1.92,.46,3.69,1.4,5.22,2.66,7.19,5.95,19.35,10.74,27.47,9.88,10.36-1.1,18.18-20.82,18.46-26.19,.18-3.49-10-8.77-17.13-12.03h0Z" style="fill:#fcad6d;"/><path d="M221.69,234.51c-13.25-7.08-40.62-25.71-47.49-61.37-2.47,2.07-4.93,4.35-7.33,6.9,7.46,35.07,34.82,53.28,47.67,60.05,2.29-1.61,4.69-3.46,7.16-5.59h0Z" style="fill:#dae2fe;"/><path d="M174.19,173.15c-2.47,2.07-4.93,4.35-7.33,6.9,3.33,15.66,10.63,27.95,18.83,37.36,1.41-3.45,3.31-5.89,5.57-7.81-7.6-9.4-14.16-21.4-17.06-36.46Z" style="fill:#aab9f2;"/><path d="M239.17,215.45c1.54-2.1,3.81-3.57,6.37-4.08l6.22-1.23c2.46-.49,4.88-1.14,7.21-2.07,13.47-5.38,23.7-17.83,25.41-33.45,2.31-21.08-12.3-40.64-33.17-44.43-16.84-3.06-32.99,4.66-41.61,18.1-3.15,4.91-7.66,8.79-13.02,11.1-6.13,2.63-14.6,7.11-22.99,14.28,6.97,35.68,34.49,54.26,47.64,61.26,5.75-4.88,11.9-11.22,17.96-19.46h0Z" style="fill:#4f71b6;"/><path d="M280.88,153.35c-5.4-11.73-16.24-20.72-29.68-23.17-16.84-3.06-32.99,4.66-41.61,18.1-3.15,4.91-7.66,8.79-13.02,11.1-6.13,2.63-14.6,7.11-22.99,14.28,2.94,15.04,9.53,27.04,17.16,36.41,9.41-8.57,25.54-6.69,38.36-30.49,15.57-28.92,51.79-26.23,51.79-26.23Z" style="fill:#3c58a0;"/></g></g></svg>