<?xml version="1.0" encoding="UTF-8"?><svg id="uuid-71dc1515-3a5b-40c2-bdb6-92f63872465e" xmlns="http://www.w3.org/2000/svg" viewBox="0 0 512 512"><g id="uuid-f3e06922-97ab-41e9-850b-c5acf0f31c9f"><circle cx="256" cy="256" r="256" style="fill:#7ac943;"/><path d="M198.93,67.39c-33.46,137.46,7.91,265.57,92.41,286.14,84.5,20.57,180.13-74.19,213.59-211.65,33.46-137.46-58.24-58.8-142.74-79.37s-129.79-132.58-163.26,4.88Z" style="fill:#00219a;"/><path d="M291.34,353.53c-84.5-20.57-125.87-148.68-92.4-286.13C218.84-14.39,242.94-7.87,276.99,15.19c-8.34,8.02-16.62,27.38-25.76,64.94-33.47,137.46-15.51,259.86,40.12,273.4Z" style="fill:#002171;"/><g><path d="M271.59,139.35c17.63,4.29,35.33,.65,49.36-8.64-8.84,20.46-31.38,32.2-53.77,26.75-22.39-5.45-37.01-26.23-35.46-48.47,8.19,14.69,22.23,26.07,39.87,30.36Z" style="fill:#434d70;"/><path d="M407.33,172.4c17.63,4.29,35.33,.65,49.36-8.64-8.84,20.46-31.38,32.2-53.77,26.75s-37.01-26.23-35.46-48.47c8.19,14.69,22.24,26.07,39.87,30.36Z" style="fill:#434d70;"/><path d="M316.53,259.9c-29.7-7.23-59.51-1.09-83.14,14.55,14.89-34.47,52.85-54.23,90.56-45.05,37.71,9.18,62.34,44.18,59.72,81.64-13.79-24.75-37.45-43.9-67.15-51.14Z" style="fill:#434d70;"/></g><path d="M243.59,511.7c-30.79-1.46-60.17-8.37-87.17-19.79-54.83-23.17-99.89-64.89-127.34-117.3,0,0-.01,0-.01-.01-8.88-20.48-16.34-42.54-22.01-65.83-3.48-14.3-5.6-26.26-6.53-36.24,0-.11-.02-.24-.03-.36-.41-4.59-.56-8.76-.47-12.53,0-.04,0-.08,0-.12,1.62-66.35,78.27-12.72,149.78-30.12,84.5-20.57,129.8-132.58,163.25,4.88,30.28,124.36-.71,241.09-69.48,277.42Z" style="fill:#a41d33;"/><path d="M156.42,491.91c-54.83-23.17-99.9-64.9-127.35-117.31-8.88-20.48-16.34-42.54-22.01-65.83-3.48-14.3-5.6-26.26-6.53-36.24,0-.07,0-.15-.02-.22-.42-4.64-.57-8.85-.48-12.66,.81-35.66,23.23-36.79,54.86-32.83-3.13,11.17-1.33,31.99,7.54,68.47,21.05,86.44,56.89,158.4,93.99,196.62Z" style="fill:#9d1d0f;"/><g><path d="M104.33,337.89c17.63-4.29,35.33-.64,49.36,8.64-8.84-20.46-31.38-32.2-53.77-26.75-22.39,5.45-37.01,26.23-35.46,48.47,8.19-14.69,22.23-26.07,39.87-30.36Z" style="fill:#434d70;"/><path d="M240.07,304.85c17.63-4.29,35.33-.64,49.36,8.64-8.84-20.46-31.38-32.2-53.77-26.75-22.39,5.45-37.01,26.23-35.46,48.47,8.19-14.69,22.24-26.07,39.87-30.36Z" style="fill:#434d70;"/><path d="M196.03,429.12c-29.7,7.23-59.51,1.09-83.14-14.55,14.89,34.47,52.85,54.23,90.56,45.05,37.71-9.18,62.34-44.18,59.72-81.64-13.79,24.75-37.45,43.91-67.15,51.14Z" style="fill:#434d70;"/></g></g></svg>