<?xml version="1.0"?>
<svg xmlns="http://www.w3.org/2000/svg" xmlns:xlink="http://www.w3.org/1999/xlink" xmlns:svgjs="http://svgjs.com/svgjs" version="1.1" width="512" height="512" x="0" y="0" viewBox="0 0 512 512" style="enable-background:new 0 0 512 512" xml:space="preserve" class=""><g><g><path d="m256 22.002c-135.309 0-244.999 109.69-244.999 244.999 0 87.337 45.707 163.987 114.498 207.369l65.618 28.928c20.667 5.662 42.419 8.702 64.883 8.702 11.065 0 21.954-.747 32.63-2.168l75.596-22.99c81.026-39.964 136.774-123.386 136.774-219.841-.001-135.309-109.691-244.999-245-244.999z" fill="#4fabf7" data-original="#4fabf7" class=""/><path d="m200.644 480.086c-22.855-3.594-55.166-22.895-63.077-30.14-.827-.758-1.503-1.626-2.033-2.562-3.553 8.271-7.16 17.585-10.034 26.987 20.091 12.671 42.151 22.498 65.618 28.928 5.084-7.889 9.782-16.014 13.848-23.49-1.392.397-2.863.506-4.322.277z" fill="#f9ba8f" data-original="#f9ba8f" class=""/><path d="m157.994 491.585c10.667 4.661 21.727 8.591 33.123 11.713 5.084-7.889 9.782-16.014 13.848-23.49-1.392.398-2.863.507-4.322.277-10.514-1.654-23.025-6.632-34.245-12.231l-1.163 1.559s3.02 13.519-7.241 22.172z" fill="#fcad6d" data-original="#fcad6d" class=""/><path d="m317.248 393.215c.411 3.035-.287 6.215-2.186 8.878-16.882 23.673-35.275 39.113-46.345 47.17-1.078.784-2.225 1.428-3.417 1.932 8.536 5.293 19.931 10.88 33.335 13.859 3.991.887 6.136 5.221 4.365 8.905-3.699 7.696-9.482 20.687-14.369 35.872 26.813-3.569 52.252-11.476 75.596-22.99 5.456-11.704 9.132-22.159 8.581-28.274-1.809-20.032-32.34-47.321-55.56-65.352z" fill="#f9ba8f" data-original="#f9ba8f" class=""/><path d="m288.63 509.832c10.513-1.399 20.811-3.475 30.858-6.164-.577-5.075.201-10.415 3.537-15.418 11.63-17.441 15.75-36.25-3.945-42.666s-16.11-25.57-16.11-25.57l-1.023-1.35c-12.704 14.517-24.994 24.606-33.23 30.6-1.078.784-2.225 1.428-3.417 1.932 8.536 5.293 19.931 10.88 33.335 13.859 3.991.887 6.136 5.221 4.365 8.905-3.7 7.696-9.482 20.687-14.37 35.872z" fill="#fcad6d" data-original="#fcad6d" class=""/><g><path d="m196.382 413.378c-27.024-17.368-30.095-39.405-26.58-56.881-1.453.817-2.255 1.29-2.255 1.29s-12.069 21.931-14.234 41.982c-1.553 14.385-12.423 29.248-18.083 39.568-2.303 4.199-1.415 9.405 2.117 12.639 7.912 7.245 40.222 26.546 63.077 30.14 2.814.443 5.677-.349 7.914-2.113 6.956-5.485 10.793-18.939 25.749-43.18-9.221-5.986-22.691-13.796-37.705-23.445z" fill="#2a428c" data-original="#2a428c" class=""/><path d="m186.192 441.333c-7.667 18-10 23.667-10 23.667s-3.753 6.324-10.957 4.413c11.458 5.789 24.38 11.003 35.189 12.703 2.814.443 5.677-.349 7.914-2.113 6.956-5.485 10.793-18.939 25.749-43.18-9.221-5.986-22.691-13.797-37.704-23.446-27.024-17.368-30.095-39.406-26.58-56.881-1.453.817-2.255 1.29-2.255 1.29s-12.069 21.931-14.234 41.982c0 .001 40.545 23.565 32.878 41.565z" fill="#1a3372" data-original="#1a3372" class=""/></g><path d="m315.216 385.81c-10.507-9.289-29.843-25.357-49.168-36.135l-87.281-19.953c-7.368 11.553-29.946 54.144 15.643 83.443 30.204 19.411 47.447 30.664 56.709 36.763 6 3.952 13.82 3.784 19.629-.444 11.071-8.057 29.463-23.497 46.345-47.17 3.688-5.171 2.881-12.298-1.877-16.504z" fill="#4f71b6" data-original="#4f71b6" class=""/><path d="m270.748 449.483c8.018-5.836 19.879-15.566 32.223-29.469-5.207.648-9.195-1.264-9.195-1.264s6.849 3.88-34.25-17.25-28.326-49.126-28.326-49.126l-13.54-13.762-38.894-8.892c-7.368 11.553-29.946 54.144 15.643 83.443 30.204 19.411 47.447 30.664 56.709 36.763 6.002 3.953 13.821 3.785 19.63-.443z" fill="#3c58a0" data-original="#3c58a0" class=""/><path d="m392.136 193.444c-2.926-1.918-12.613 4.22-19.022 8.742-3.308 2.334-5.36 6.081-5.431 10.129-.091 5.212-.857 8.219-1.675 10.739l-.001.002c-.414 1.29-1.296 2.378-2.467 3.06-5.462 3.184-11.244 5.977-15.315 6.413-8.599.922-26.248-.873-40.794 5.836-1.232 7.023-3.084 13.843-5.753 20.122-6.236 14.665-12.952 31.543-18.912 46.914 3.155-.49 5.428-2.233 6.646-3.441.829-.822 1.823-1.438 2.923-1.828 9.293-3.294 51.265-19.557 85.831-55.634 1.369-1.429 3.069-2.486 4.927-3.166 8.763-3.208 19.021-11.304 22.368-18.751 4.27-9.498-8.828-26.189-13.325-29.137z" fill="#f9ba8f" data-original="#f9ba8f" class=""/><path d="m328.807 233.381c-6.967.558-14.513 1.821-21.375 4.986-1.232 7.023-3.084 13.843-5.753 20.122-6.236 14.665-12.952 31.543-18.912 46.914 3.155-.491 5.428-2.233 6.646-3.441.829-.822 1.823-1.438 2.923-1.828 5.79-2.052 24.268-9.142 45.735-22.92-26.358-13.965-9.265-43.832-9.264-43.833z" fill="#fcad6d" data-original="#fcad6d" class=""/><g><path d="m375.497 38.779c-4.3-3.43-10.328-8.983-14.522-15.896-11.567-19.063-47.213-33.91-70.363-11.963-1.485 1.407-3.344 2.349-5.339 2.801-9.667 2.187-34.255 12.389-20.958 54.111 3.172 9.953 4.866 18.086 5.55 24.738 4.922-3.635 9.637-8.199 10.792-12.916 1.192-4.87.624-8.942.167-12.215-.522-3.739-.867-6.209 1.297-8.131 3.038-2.701 6.813-1.12 9.336 1.262 1.426 1.347 2.004 3.444 1.507 5.474l-.84 3.431c-.608 2.486.919 5.004 3.405 5.612 2.404.588 4.841-.806 5.549-3.174 4.835-16.168 9.761-27.059 13.179-29.133 2.703-1.64 7.792.145 14.232 2.404 7.507 2.632 16.756 5.877 27.535 5.868-.114.236-.241.506-.371.79l2.013-1.814s8.656-1.196 16.75-4.357c2.895-1.131 3.511-4.954 1.081-6.892z" fill="#3c58a0" data-original="#3c58a0" class=""/><path d="m285.272 13.722c-9.667 2.187-34.255 12.389-20.958 54.111 3.172 9.953 4.866 18.086 5.55 24.738 4.922-3.635 9.637-8.199 10.792-12.916 1.192-4.87.624-8.942.167-12.215-.522-3.739-.867-6.209 1.297-8.131 3.038-2.701 6.813-1.12 9.336 1.262 1.426 1.347 2.004 3.444 1.507 5.474l-.84 3.431c-.608 2.486.919 5.004 3.405 5.612 2.404.588 4.841-.806 5.549-3.174 4.835-16.168 9.761-27.059 13.179-29.133-26.952-5.34-23.646-31.859-23.646-31.859-1.483 1.406-3.343 2.348-5.338 2.8z" fill="#2a428c" data-original="#2a428c" class=""/></g><path d="m305.275 159.51c-.383-2.235-.943-4.811-1.515-7.546l-.002.11c-5.73-10.812-18.983-18.283-37.189-28.547-.653-.51-10.405-4.873-14.822-13.59-.883-1.744-1.963-4.587-1.796-6.697-16.85 10.519-59.793 42.756-56.886 96.65 3.076 57.029-10.953 112.285-15.174 127.395-.685 2.453.322 5.064 2.478 6.42 15.528 9.766 32.861 16.087 50.833 18.67l22.709 1.255c2.439-.078 4.88-.218 7.322-.434l2.1-.186c2.215-.196 4.115-1.643 4.884-3.729 4.635-12.561 21.274-57.275 35.435-90.579 16.633-39.122 1.623-99.192 1.623-99.192z" fill="#2a428c" data-original="#2a428c" class=""/><path d="m256.539 223.227s-.398-6.731 4.585-13.973l-4.986.987c-2.561.507-4.822 1.977-6.367 4.082-5.801 7.902-11.692 14.041-17.238 18.836.261 5.81.921 11.729 2.12 17.618 7.352 36.136 19.073 74.58-3.452 101.598 7.487 1.076 15.085 1.5 22.709 1.255 7.704-11.417 17.062-31.645 12.585-58.713-4.409-26.647-10.349-50.388-9.956-71.69z" fill="#971d33" data-original="#9fd332" class=""/><path d="m353.438 78.829c-4.476-13.149 4.227-28.801 4.227-28.801-21.285.69-37.299-12.121-43.926-8.1-5.203 3.157-11.224 21.716-13.57 29.543-.534 1.78-2.277 3.004-4.111 2.707-2.128-.344-3.47-2.415-2.968-4.467l.848-3.465c.563-2.302-.077-4.775-1.8-6.402-3.056-2.886-7.356-4.237-10.682-1.281-4.752 4.223.718 10.691-1.77 20.854-1.529 6.248-9.906 12.368-16.136 16.158.373.318.672.733.82 1.248.046 1.043.663 9.591 8.518 15.682 7.862 6.095 20.096 17.279 25.509 20.957 1.159.788 2.24 1.973 3.133 3.345-.088-2.771.11-5.384.77-7.653 5.175-17.785 21.74 4.649 29.33 1.445 11.536-4.871 8.728-29.725 14.271-29.848 11.316-.252 12.013-8.772 7.537-21.922z" fill="#f9ba8f" data-original="#f9ba8f" class=""/><path d="m296.059 74.179c-2.128-.344-3.47-2.415-2.968-4.467l.848-3.465c.563-2.302-.077-4.775-1.8-6.402-3.056-2.886-7.355-4.237-10.682-1.281-4.752 4.223.718 10.691-1.77 20.854-1.529 6.248-9.906 12.368-16.136 16.158.373.318.672.733.82 1.248.046 1.043.663 9.591 8.518 15.682 7.862 6.095 20.096 17.279 25.509 20.958 1.159.787 2.239 1.973 3.133 3.345-.088-2.771.11-5.384.77-7.653 1.881-6.464 5.267-7.613 9.18-6.613-19.192-15.954-15.422-48.364-15.422-48.364z" fill="#fcad6d" data-original="#fcad6d" class=""/><path d="m304.667 144.228c.09-4.005-2.544-9.119-5.857-11.371-5.388-3.662-17.544-14.784-25.472-20.931-8.019-6.218-8.238-15.214-8.238-15.214-.562-2.178-3.07-3.189-4.995-2.026l-9.317 5.627c-1.164.703-1.784 2.031-1.591 3.377 0 0-.195 10.77 15.368 19.549 19.34 10.909 33.271 18.523 38.869 29.808.254.512 1.027.334 1.04-.238z" fill="#971d33" data-original="#9fd332" class=""/><path d="m294.052 305.156c.183-3.494-10-8.769-17.135-12.028-3.682-1.682-7.954-1.567-11.486.411-4.548 2.547-7.531 3.4-10.121 3.963l-.002.001c-1.324.292-2.707.078-3.886-.589-5.502-3.114-10.827-6.702-13.255-9.998-5.726-7.774-14.203-27.005-30.413-35.204-.906-.458-.819-1.776.144-2.099 3.656-1.228 10.457-4.043 18.614-9.869-13.487-7.326-39.928-25.719-47.689-60.165-7.392 7.714-14.238 17.77-18.773 30.809 0 0-21.422 20.936-18.78 41.04.178 1.359.051 2.733-.407 4.025-.811 2.288-1.712 6.313.185 9.87 2.017 3.782 5.503 5.229 7.512 5.767 1.128.302 2.161.85 3.052 1.604 7.527 6.368 42.721 34.432 91.298 46.116 1.924.463 3.693 1.398 5.217 2.661 7.186 5.954 19.347 10.736 27.466 9.876 10.359-1.098 18.178-20.821 18.459-26.191z" fill="#f9ba8f" data-original="#f9ba8f" class=""/><path d="m276.917 293.129c-3.682-1.682-7.954-1.566-11.486.411-4.548 2.547-7.531 3.4-10.121 3.963l-.002.001c-1.324.292-2.707.078-3.886-.589-.219-.124-.438-.25-.656-.376-.695 4.059-2.873 7.525-6.183 8.863-5.942 2.402-21.308-3.652-32.808-22.402-7.938-12.943-21.951-24.102-29.87-29.773-2.455-1.758-2.413-5.403.061-7.133 13.532-9.465 15.229-28.684 15.229-28.684l.555-.658c-8.168-9.451-15.437-21.684-18.927-37.173-7.392 7.714-14.238 17.77-18.773 30.809 0 0-21.422 20.936-18.78 41.04.178 1.359.051 2.733-.407 4.025-.811 2.288-1.712 6.313.185 9.87 2.017 3.782 5.503 5.229 7.512 5.767 1.128.302 2.161.85 3.052 1.604 7.527 6.368 42.721 34.432 91.298 46.116 1.924.463 3.693 1.398 5.217 2.661 7.186 5.954 19.347 10.736 27.466 9.876 10.358-1.097 18.177-20.821 18.458-26.19.184-3.495-9.999-8.77-17.134-12.028z" fill="#fcad6d" data-original="#fcad6d" class=""/><path d="m233.191 234.511c-13.246-7.081-40.623-25.712-47.492-61.365-2.466 2.067-4.931 4.353-7.334 6.901 7.458 35.071 34.818 53.277 47.669 60.049 2.288-1.611 4.687-3.464 7.157-5.585z" fill="#dae2fe" data-original="#dae2fe" class=""/><path d="m185.699 173.146c-2.466 2.067-4.931 4.353-7.334 6.901 3.33 15.658 10.629 27.945 18.83 37.363 1.411-3.447 3.312-5.892 5.568-7.808-7.604-9.396-14.164-21.404-17.064-36.456z" fill="#aab9f2" data-original="#aab9f2" class=""/><path d="m250.676 215.448c1.545-2.105 3.806-3.574 6.368-4.082l6.22-1.232c2.456-.486 4.881-1.141 7.206-2.07 13.473-5.383 23.698-17.826 25.406-33.448 2.306-21.084-12.304-40.644-33.172-44.435-16.836-3.059-32.993 4.659-41.607 18.097-3.15 4.914-7.656 8.794-13.02 11.097-6.13 2.632-14.598 7.113-22.993 14.28 6.966 35.68 34.486 54.261 47.637 61.255 5.752-4.879 11.905-11.22 17.955-19.462z" fill="#4f71b6" data-original="#4f71b6" class=""/><path d="m292.39 153.349c-5.398-11.728-16.238-20.724-29.685-23.167-16.836-3.059-32.993 4.659-41.607 18.097-3.15 4.914-7.656 8.794-13.02 11.097-6.13 2.632-14.598 7.113-22.993 14.28 2.937 15.042 9.531 27.035 17.158 36.412 9.406-8.567 25.544-6.693 38.358-30.488 15.573-28.922 51.788-26.231 51.789-26.231z" fill="#3c58a0" data-original="#3c58a0" class=""/><g fill="#73c3f9"><path d="m11.001 267.001c0 60.552 21.977 115.964 58.379 158.716 47.56 2.268 95.523-102.647 50.118-141.051-53.268-45.055 33.694-121.333 69.694-173.333 22.335-32.261 5.97-60.413-9.673-77.14-97.852 32.128-168.518 124.209-168.518 232.808z" fill="#73c3f9" data-original="#73c3f9" class=""/><path d="m422.94 87.704c-16.854 4.081-38.358 13.647-45.936 36.07-13.145 38.893 35.522 36.727 50.189 63.56 10.874 19.895.667 61.335-28 79.668-28.667 18.332-110.387 68.332-41.527 113.666 46.947 30.907 64.902 45.857 66.033 64.917 47.577-44.687 77.3-108.159 77.3-178.583 0-70.799-30.042-134.57-78.059-179.298z" fill="#73c3f9" data-original="#73c3f9" class=""/></g></g></g></svg>
