<?xml version="1.0" encoding="iso-8859-1"?>
<!-- Generator: Adobe Illustrator 19.0.0, SVG Export Plug-In . SVG Version: 6.00 Build 0)  -->
<svg version="1.1" id="Capa_1" xmlns="http://www.w3.org/2000/svg" xmlns:xlink="http://www.w3.org/1999/xlink" x="0px" y="0px"
	 viewBox="0 0 512 512" style="enable-background:new 0 0 512 512;" xml:space="preserve">
<path style="fill:#B17F4D;" d="M512,461.765v10.118c0,5.523-4.477,10-10,10H270.052h-28.103H10c-5.523,0-10-4.477-10-10v-10.118
	c0-5.523,4.477-10,10-10h1.086c4.573-22.899,24.781-40.157,49.026-40.157h-4.893c-8.284,0-15-6.716-15-15v-0.118
	c0-8.284,6.716-15,15-15h7.533l15.381-100.392h-2.919c-8.284,0-15-6.716-15-15v-0.118c0-8.284,6.716-15,15-15h34.818v-18.069v-0.049
	c-17.925-10.416-29.993-29.865-29.993-52.157c0-33.267,26.857-60.235,59.987-60.235s59.987,26.968,59.987,60.235
	c0,6.669-1.087,13.08-3.081,19.075H315.07c-1.994-5.994-3.082-12.406-3.082-19.075c0-33.267,26.857-60.235,59.987-60.235
	s59.987,26.968,59.987,60.235c0,22.292-12.069,41.741-29.993,52.157v0.049v18.069h34.818c8.284,0,15,6.716,15,15v0.118
	c0,8.284-6.716,15-15,15h-2.919l15.381,100.392h7.533c8.284,0,15,6.716,15,15v0.118c0,8.284-6.716,15-15,15h-4.893
	c24.244,0,44.453,17.257,49.026,40.157H502C507.523,451.765,512,456.242,512,461.765z"/>
<path style="fill:#D19149;" d="M272.167,396.608v-0.118c0-8.284,6.716-15,15-15h169.614c8.284,0,15,6.716,15,15v0.118
	c0,8.284-6.716,15-15,15H287.167C278.883,411.608,272.167,404.892,272.167,396.608z M62.271,396.549
	c0,8.317,6.714,15.059,14.997,15.059h147.564c8.284,0,15-6.716,15-15v-0.118c0-8.284-6.716-15-15-15H77.268
	C68.985,381.49,62.271,388.232,62.271,396.549z M336.683,334.87c2.251,14.692,14.841,25.538,29.645,25.538h79.69l-9.229-60.235
	h-70.462C347.945,300.173,333.887,316.626,336.683,334.87z M399.971,207.31c10.233,0,19.922-2.34,28.565-6.515
	c2.215-6.283,3.424-13.043,3.424-20.09c0-33.267-26.857-60.235-59.987-60.235c-14.232,0-27.299,4.987-37.584,13.303
	c-0.26,2.391-0.404,4.818-0.404,7.278C333.986,177.645,363.528,207.31,399.971,207.31z M307.163,281.098h129.622
	c8.284,0,15-6.716,15-15v-0.118c0-8.284-6.716-15-15-15H307.163c-8.284,0-15,6.716-15,15v0.118
	C292.163,274.382,298.879,281.098,307.163,281.098z M82.267,266.039c0,8.317,6.714,15.059,14.997,15.059h107.574
	c8.284,0,15-6.716,15-15v-0.118c0-8.284-6.716-15-15-15H97.263C88.981,250.98,82.267,257.722,82.267,266.039z M134.379,360.408
	h79.69l-9.229-60.235h-70.461c-18.383,0-32.44,16.453-29.645,34.697C106.985,349.562,119.575,360.408,134.379,360.408z M502,451.765
	H270.052h-28.103H32.05c-5.521,0-9.998,4.495-9.998,10.039v10.039c0,5.544,4.476,10.039,9.998,10.039h209.898h28.103H502
	c5.523,0,10-4.477,10-10v-10.118C512,456.242,507.523,451.765,502,451.765z M168.023,207.31c10.233,0,19.922-2.34,28.565-6.515
	c2.215-6.283,3.424-13.043,3.424-20.09c0-33.267-26.857-60.235-59.987-60.235c-14.232,0-27.299,4.987-37.584,13.303
	c-0.26,2.391-0.404,4.818-0.404,7.278C102.038,177.645,131.58,207.31,168.023,207.31z"/>
<path style="fill:#E3A349;" d="M404.228,171.041c-5.719,6.016-16.83,4.686-24.819-2.971s-9.828-18.74-4.109-24.757
	c5.719-6.016,16.831-4.686,24.819,2.971S409.947,165.025,404.228,171.041z M143.352,143.313c-5.719,6.016-3.879,17.1,4.109,24.757
	c7.988,7.657,19.1,8.987,24.819,2.971s3.879-17.1-4.109-24.757C160.182,138.627,149.071,137.297,143.352,143.313z"/>
<path style="fill:#FFDF64;" d="M329.756,421.647H182.131l19.995-130.51H309.76L329.756,421.647z M202.126,200.784H309.76
	l16.452-107.378c1.864-12.163-7.508-23.132-19.763-23.132h-25.511v-45.28C280.938,11.19,269.747,0,255.943,0l0,0
	c-13.804,0-24.994,11.19-24.994,24.994v45.28h-25.511c-12.255,0-21.626,10.969-19.763,23.132L202.126,200.784z"/>
<path style="fill:#F1BA55;" d="M380.858,491.725v0.235c0,5.523-4.477,10-10,10h-229.83c-5.523,0-10-4.477-10-10v-0.235
	c0-27.614,22.386-50,50-50h-4.893c-8.284,0-15-6.716-15-15v-0.118c0-8.284,6.716-15,15-15h7.59l18.458-120.471h-6.052
	c-8.284,0-15-6.716-15-15v-0.118c0-8.284,6.716-15,15-15h-19.996c-8.284,0-15-6.716-15-15v-20.196c0-8.284,6.716-15,15-15h19.994
	c-8.283-0.001-14.999-6.716-14.999-15v-0.118c0-8.284,6.716-15,15-15h2.919l-3.228-21.067c0.019,0,0.038-0.002,0.057-0.003
	l-9.077-59.244h-10.667c-8.284,0-15-6.716-15-15v-0.118c0-8.284,6.716-15,15-15h29.359h19.995h5.516V25.098
	C231.006,11.237,242.196,0,256,0c3.75,0,7.305,0.835,10.498,2.321c-8.558,3.984-14.497,12.682-14.497,22.777v45.177h83.75
	c8.284,0,15,6.716,15,15v0.118c0,8.284-6.716,15-15,15H206.797l3.858,25.181c3.001,19.59,19.788,34.051,39.526,34.051h65.577
	c0.105,0.123,0.156,0.182,0.261,0.305l-3.183,20.777h2.919c8.284,0,15,6.716,15,15v0.118c0,8.284-6.715,14.999-14.999,15h19.994
	c8.284,0,15,6.716,15,15v20.196c0,8.284-6.716,15-15,15h-19.996c8.284,0,15,6.716,15,15v0.118c0,8.284-6.716,15-15,15h-5.938
	l2.922,19.074h-57.004c-19.739,0-36.525,14.461-39.526,34.051l-10.318,67.345h129.859c8.284,0,15,6.716,15,15v0.118
	c0,8.284-6.716,15-15,15h-4.893C358.472,441.726,380.858,464.111,380.858,491.725z"/>
<path style="fill:#FFDF64;" d="M390.97,491.882V502c0,5.523-4.477,10-10,10H130.916c-5.523,0-10-4.477-10-10v-10.118
	c0-5.523,4.477-10,10-10H380.97C386.493,481.882,390.97,486.359,390.97,491.882z M217.012,291.137h98.8c8.284,0,15-6.716,15-15
	v-0.118c0-8.284-6.716-15-15-15h-98.8c-8.284,0-15,6.716-15,15v0.118C202.012,284.422,208.728,291.137,217.012,291.137z
	 M217.012,210.823h98.8c8.284,0,15-6.716,15-15v-0.118c0-8.284-6.716-15-15-15h-98.8c-8.284,0-15,6.716-15,15v0.118
	C202.012,204.108,208.728,210.823,217.012,210.823z"/>
<g>
</g>
<g>
</g>
<g>
</g>
<g>
</g>
<g>
</g>
<g>
</g>
<g>
</g>
<g>
</g>
<g>
</g>
<g>
</g>
<g>
</g>
<g>
</g>
<g>
</g>
<g>
</g>
<g>
</g>
</svg>
