<svg id="Capa_1" enable-background="new 0 0 512 512" height="512" viewBox="0 0 512 512" width="512" xmlns="http://www.w3.org/2000/svg"><g><path d="m196.825 133.424c-4.673 0-8.454-3.785-8.454-8.454v-23.309c0-4.512-1.758-8.759-4.953-11.958l-51.745-51.745c-3.302-3.302-3.302-8.652 0-11.954s8.652-3.302 11.954 0l51.745 51.745c6.39 6.394 9.906 14.884 9.906 23.912v23.309c.001 4.669-3.78 8.454-8.453 8.454z" fill="#dad8db"/><path d="m196.825 471.565h-151.825v-287.42l151.825-15.476v57.744l-25.36 42.267 25.36 42.268z" fill="#e5646e"/><path d="m196.825 141.877-160.617 42.268v287.42h16.907v-246.014c0-11.555 7.811-21.649 18.996-24.549l124.714-32.333z" fill="#db4655"/><path d="m213.732 488.472h-185.977c-4.669 0-8.454-3.785-8.454-8.454v-8.454c0-4.669 3.785-8.454 8.454-8.454h185.978c4.669 0 8.454 3.785 8.454 8.454v8.454c-.001 4.669-3.786 8.454-8.455 8.454z" fill="#f6d190"/><path d="m10.606 183.084-2.381-9.184c-1.172-4.519 1.542-9.133 6.061-10.305l203.927-52.87c4.519-1.172 9.133 1.542 10.304 6.061l2.381 9.184c1.172 4.519-1.542 9.133-6.061 10.305l-203.927 52.87c-4.518 1.172-9.132-1.541-10.304-6.061z" fill="#f6d190"/><circle cx="137.651" cy="31.982" fill="#6f6571" r="16.907"/><path d="m154.558 268.68c0 23.344 18.924 42.268 42.268 42.268v-16.907l-25.361-25.361 25.361-25.36v-16.907c-23.344 0-42.268 18.924-42.268 42.267z" fill="#ffe07d"/><path d="m36.208 480.018c-4.669 0-8.454-3.785-8.454-8.454v-8.454h-8.454c-4.669 0-8.454 3.785-8.454 8.454v16.907c0 4.668 3.785 8.454 8.454 8.454h194.431c4.669 0 8.454-3.785 8.454-8.454v-8.454h-185.977z" fill="#ecbd83"/><path d="m230.899 125.971-203.926 52.87c-4.519 1.172-9.133-1.542-10.305-6.062l-2.381-9.184-7.953 2.062c-4.519 1.172-7.233 5.785-6.062 10.305l4.243 16.366c1.172 4.519 5.785 7.233 10.305 6.062l211.88-54.932c4.519-1.172 7.233-5.785 6.062-10.305z" fill="#ecbd83"/><path d="m171.465 268.68c0 14.006 11.354 25.361 25.361 25.361v-50.721c-14.007 0-25.361 11.354-25.361 25.36z" fill="#fff0af"/><path d="m315.175 133.424c4.673 0 8.454-3.785 8.454-8.454v-23.309c0-4.512 1.758-8.759 4.953-11.958l51.745-51.745c3.302-3.302 3.302-8.652 0-11.954s-8.652-3.302-11.954 0l-51.745 51.746c-6.39 6.394-9.906 14.884-9.906 23.912v23.309c-.001 4.668 3.78 8.453 8.453 8.453z" fill="#dad8db"/><path d="m323.667 471.565h152.125v-261.254l-152.125-68.434z" fill="#b3e59f"/><path d="m315.175 471.565h16.907v-276.663c0-11.06 10.444-19.142 21.15-16.366l122.56 31.774v-26.165l-160.617-42.268v84.536l25.361 42.267-25.361 42.268z" fill="#95d6a4"/><path d="m492.699 488.472h-185.978c-4.669 0-8.454-3.785-8.454-8.454v-8.454c0-4.669 3.785-8.454 8.454-8.454h185.978c4.669 0 8.454 3.785 8.454 8.454v8.454c-.001 4.669-3.786 8.454-8.454 8.454z" fill="#f6d190"/><path d="m509.213 185.662 2.515-9.701c1.172-4.519-1.542-9.133-6.061-10.305l-204.611-53.048c-4.519-1.172-9.133 1.542-10.304 6.061l-2.515 9.701c-1.172 4.519 1.542 9.133 6.061 10.305l204.611 53.048c4.518 1.173 9.132-1.541 10.304-6.061z" fill="#f6d190"/><circle cx="374.349" cy="31.982" fill="#6f6571" r="16.907"/><path d="m357.442 268.68c0 23.344-18.924 42.268-42.268 42.268v-16.907l25.361-25.361-25.361-25.36v-16.907c23.344 0 42.268 18.923 42.268 42.267z" fill="#ffe07d"/><path d="m315.175 480.018c-4.669 0-8.454-3.785-8.454-8.454v-8.454h-8.454c-4.669 0-8.454 3.785-8.454 8.454v16.907c0 4.668 3.785 8.454 8.454 8.454h194.431c4.669 0 8.454-3.785 8.454-8.454v-8.454h-185.977z" fill="#ecbd83"/><path d="m340.535 268.68c0 14.006-11.354 25.361-25.361 25.361v-50.721c14.007 0 25.361 11.354 25.361 25.36z" fill="#fff0af"/><path d="m304.602 132.615c-4.519-1.172-7.233-5.785-6.062-10.304l2.515-9.701-7.268-1.884c-4.519-1.171-9.133 1.542-10.305 6.062l-4.243 16.367c-1.172 4.519 1.542 9.133 6.062 10.305l211.879 54.931c4.519 1.172 9.133-1.542 10.305-6.062l1.728-6.666z" fill="#ecbd83"/></g></svg>