<svg id="Layer_1" enable-background="new 0 0 480 480" height="512" viewBox="0 0 480 480" width="512" xmlns="http://www.w3.org/2000/svg"><path d="m364.527 128.173c24.955 92.42-29.693 187.583-122.059 212.553s-187.474-29.71-212.428-122.13 29.692-187.583 122.058-212.553 187.474 29.71 212.429 122.13z" fill="#ff5e78"/><path d="m147.021 7.506c-57.422 17.386-99.496 62.206-115.698 116.118 6.802 7.627 17.937 9.818 34.914 3.984 65.766-22.601 79.162-82.589 80.784-120.102z" fill="#ff93a2"/><path d="m44.75 204.455c-5.538 2.106-11.45 2.778-17.173 3.722 20.271 98.523 118.993 158.473 214.891 132.549 92.366-24.969 147.014-120.132 122.059-212.553-17.356-64.278-68.647-110.3-129.349-123.966-19.328 86.27-108.735 169.177-190.428 200.248z" fill="#ff8d78"/><path d="m364.367 127.607c-106.372 87.188-229.008 123.459-318.8 129.514 37.62 68.368 118.249 104.866 196.901 83.604 92.131-24.905 147.283-119.946 121.899-213.118z" fill="#ffb978"/><path d="m401.653 480v-57.879c0-5.131 1.834-10.093 5.172-13.989l26.156-30.532c14.854-17.34 23.019-39.424 23.019-62.262v-56.309c0-16.454-13.331-29.792-29.775-29.792h-8.601v-98.227c0-14.085-11.411-25.503-25.488-25.503-14.061 0-25.488 11.403-25.488 25.503v-42.679c0-14.085-11.411-25.503-25.488-25.503-14.061 0-25.488 11.403-25.488 25.503v42.679c0-14.085-11.411-25.503-25.488-25.503-14.061 0-25.488 11.403-25.488 25.503v129.697h-14.803c-18.801 0-34.042 15.25-34.042 34.062v41.584c0 16.028 6.364 31.4 17.691 42.734l24.862 24.877c4.029 4.031 6.292 9.498 6.292 15.199v60.497z" fill="#ffccb3"/><g fill="#ffb6ab"><path d="m426.225 229.237h-8.601s7.362 13.338 7.362 29.792v56.309c0 22.838-14.242 44.923-29.096 62.262l-26.156 30.532c-3.337 3.896-5.172 8.858-5.172 13.989v57.802l37.091.077v-57.879c0-5.131 1.834-10.093 5.172-13.989l26.156-30.532c14.854-17.34 23.019-39.424 23.019-62.262v-56.309c0-16.454-13.331-29.792-29.775-29.792z"/><path d="m319.205 106.192h-3.534v24.818c0-4.777-1.315-9.245-3.599-13.066v139.631h7.133z"/><path d="m370.566 117.428c-2.479 3.933-3.919 8.588-3.919 13.582v-20.15h-3.214v151.383h7.133z"/></g></svg>