<?xml version="1.0" encoding="iso-8859-1"?>
<!-- Generator: Adobe Illustrator 19.0.0, SVG Export Plug-In . SVG Version: 6.00 Build 0)  -->
<svg version="1.1" id="Capa_1" xmlns="http://www.w3.org/2000/svg" xmlns:xlink="http://www.w3.org/1999/xlink" x="0px" y="0px"
	 viewBox="0 0 512 512" style="enable-background:new 0 0 512 512;" xml:space="preserve">
<circle style="fill:#C96CE0;" cx="256" cy="256" r="256"/>
<g>
	<circle style="fill:#B055C6;" cx="256" cy="256" r="4"/>
	<circle style="fill:#B055C6;" cx="280" cy="272" r="4"/>
	<circle style="fill:#B055C6;" cx="256" cy="288" r="4"/>
	<circle style="fill:#B055C6;" cx="280" cy="304" r="4"/>
	<circle style="fill:#B055C6;" cx="256" cy="320" r="4"/>
	<circle style="fill:#B055C6;" cx="280" cy="336" r="4"/>
	<circle style="fill:#B055C6;" cx="256" cy="352" r="4"/>
	<circle style="fill:#B055C6;" cx="280" cy="368" r="4"/>
	<circle style="fill:#B055C6;" cx="256" cy="384" r="4"/>
	<circle style="fill:#B055C6;" cx="280" cy="400" r="4"/>
	<circle style="fill:#B055C6;" cx="256" cy="416" r="4"/>
	<circle style="fill:#B055C6;" cx="280" cy="432" r="4"/>
	<circle style="fill:#B055C6;" cx="256" cy="448" r="4"/>
	<circle style="fill:#B055C6;" cx="280" cy="464" r="4"/>
	<circle style="fill:#B055C6;" cx="256" cy="480" r="4"/>
	<circle style="fill:#B055C6;" cx="280" cy="496" r="4"/>
	<circle style="fill:#B055C6;" cx="256" cy="160" r="4"/>
	<circle style="fill:#B055C6;" cx="280" cy="176" r="4"/>
	<circle style="fill:#B055C6;" cx="256" cy="192" r="4"/>
	<circle style="fill:#B055C6;" cx="280" cy="208" r="4"/>
	<circle style="fill:#B055C6;" cx="256" cy="224" r="4"/>
	<circle style="fill:#B055C6;" cx="280" cy="240" r="4"/>
	<circle style="fill:#B055C6;" cx="256" cy="64" r="4"/>
	<circle style="fill:#B055C6;" cx="280" cy="80" r="4"/>
	<circle style="fill:#B055C6;" cx="256" cy="96" r="4"/>
	<circle style="fill:#B055C6;" cx="280" cy="112" r="4"/>
	<circle style="fill:#B055C6;" cx="256" cy="128" r="4"/>
	<circle style="fill:#B055C6;" cx="280" cy="144" r="4"/>
	<circle style="fill:#B055C6;" cx="280" cy="16" r="4"/>
	<circle style="fill:#B055C6;" cx="256" cy="32" r="4"/>
	<circle style="fill:#B055C6;" cx="280" cy="48" r="4"/>
	<circle style="fill:#B055C6;" cx="304" cy="256" r="4"/>
	<circle style="fill:#B055C6;" cx="328" cy="272" r="4"/>
	<circle style="fill:#B055C6;" cx="304" cy="288" r="4"/>
	<circle style="fill:#B055C6;" cx="328" cy="304" r="4"/>
	<circle style="fill:#B055C6;" cx="304" cy="320" r="4"/>
	<circle style="fill:#B055C6;" cx="328" cy="336" r="4"/>
	<circle style="fill:#B055C6;" cx="304" cy="352" r="4"/>
	<circle style="fill:#B055C6;" cx="328" cy="368" r="4"/>
	<circle style="fill:#B055C6;" cx="304" cy="384" r="4"/>
	<circle style="fill:#B055C6;" cx="328" cy="400" r="4"/>
	<circle style="fill:#B055C6;" cx="304" cy="416" r="4"/>
	<circle style="fill:#B055C6;" cx="328" cy="432" r="4"/>
	<circle style="fill:#B055C6;" cx="304" cy="448" r="4"/>
	<circle style="fill:#B055C6;" cx="328" cy="464" r="4"/>
	<circle style="fill:#B055C6;" cx="304" cy="480" r="4"/>
	<circle style="fill:#B055C6;" cx="328" cy="496" r="4"/>
	<circle style="fill:#B055C6;" cx="304" cy="160" r="4"/>
	<circle style="fill:#B055C6;" cx="328" cy="176" r="4"/>
	<circle style="fill:#B055C6;" cx="304" cy="192" r="4"/>
	<circle style="fill:#B055C6;" cx="328" cy="208" r="4"/>
	<circle style="fill:#B055C6;" cx="304" cy="224" r="4"/>
	<circle style="fill:#B055C6;" cx="328" cy="240" r="4"/>
	<circle style="fill:#B055C6;" cx="304" cy="64" r="4"/>
	<circle style="fill:#B055C6;" cx="328" cy="80" r="4"/>
	<circle style="fill:#B055C6;" cx="304" cy="96" r="4"/>
	<circle style="fill:#B055C6;" cx="328" cy="112" r="4"/>
	<circle style="fill:#B055C6;" cx="304" cy="128" r="4"/>
	<circle style="fill:#B055C6;" cx="328" cy="144" r="4"/>
	<circle style="fill:#B055C6;" cx="328" cy="16" r="4"/>
	<circle style="fill:#B055C6;" cx="304" cy="32" r="4"/>
	<circle style="fill:#B055C6;" cx="328" cy="48" r="4"/>
	<circle style="fill:#B055C6;" cx="352" cy="256" r="4"/>
	<circle style="fill:#B055C6;" cx="376" cy="272" r="4"/>
	<circle style="fill:#B055C6;" cx="352" cy="288" r="4"/>
	<circle style="fill:#B055C6;" cx="376" cy="304" r="4"/>
	<circle style="fill:#B055C6;" cx="352" cy="320" r="4"/>
	<circle style="fill:#B055C6;" cx="376" cy="336" r="4"/>
	<circle style="fill:#B055C6;" cx="352" cy="352" r="4"/>
	<circle style="fill:#B055C6;" cx="376" cy="368" r="4"/>
	<circle style="fill:#B055C6;" cx="352" cy="384" r="4"/>
	<circle style="fill:#B055C6;" cx="376" cy="400" r="4"/>
	<circle style="fill:#B055C6;" cx="352" cy="416" r="4"/>
	<circle style="fill:#B055C6;" cx="376" cy="432" r="4"/>
	<circle style="fill:#B055C6;" cx="352" cy="448" r="4"/>
	<circle style="fill:#B055C6;" cx="376" cy="464" r="4"/>
	<circle style="fill:#B055C6;" cx="352" cy="480" r="4"/>
	<circle style="fill:#B055C6;" cx="352" cy="160" r="4"/>
	<circle style="fill:#B055C6;" cx="376" cy="176" r="4"/>
	<circle style="fill:#B055C6;" cx="352" cy="192" r="4"/>
	<circle style="fill:#B055C6;" cx="376" cy="208" r="4"/>
	<circle style="fill:#B055C6;" cx="352" cy="224" r="4"/>
	<circle style="fill:#B055C6;" cx="376" cy="240" r="4"/>
	<circle style="fill:#B055C6;" cx="352" cy="64" r="4"/>
	<circle style="fill:#B055C6;" cx="376" cy="80" r="4"/>
	<circle style="fill:#B055C6;" cx="352" cy="96" r="4"/>
	<circle style="fill:#B055C6;" cx="376" cy="112" r="4"/>
	<circle style="fill:#B055C6;" cx="352" cy="128" r="4"/>
	<circle style="fill:#B055C6;" cx="376" cy="144" r="4"/>
	<circle style="fill:#B055C6;" cx="352" cy="32" r="4"/>
	<circle style="fill:#B055C6;" cx="376" cy="48" r="4"/>
	<circle style="fill:#B055C6;" cx="400" cy="256" r="4"/>
	<circle style="fill:#B055C6;" cx="424" cy="272" r="4"/>
	<circle style="fill:#B055C6;" cx="400" cy="288" r="4"/>
	<circle style="fill:#B055C6;" cx="424" cy="304" r="4"/>
	<circle style="fill:#B055C6;" cx="400" cy="320" r="4"/>
	<circle style="fill:#B055C6;" cx="424" cy="336" r="4"/>
	<circle style="fill:#B055C6;" cx="400" cy="352" r="4"/>
	<circle style="fill:#B055C6;" cx="424" cy="368" r="4"/>
	<circle style="fill:#B055C6;" cx="400" cy="384" r="4"/>
	<circle style="fill:#B055C6;" cx="424" cy="400" r="4"/>
	<circle style="fill:#B055C6;" cx="400" cy="416" r="4"/>
	<circle style="fill:#B055C6;" cx="424" cy="432" r="4"/>
	<circle style="fill:#B055C6;" cx="400" cy="448" r="4"/>
	<circle style="fill:#B055C6;" cx="400" cy="160" r="4"/>
	<circle style="fill:#B055C6;" cx="424" cy="176" r="4"/>
	<circle style="fill:#B055C6;" cx="400" cy="192" r="4"/>
	<circle style="fill:#B055C6;" cx="424" cy="208" r="4"/>
	<circle style="fill:#B055C6;" cx="400" cy="224" r="4"/>
	<circle style="fill:#B055C6;" cx="424" cy="240" r="4"/>
	<circle style="fill:#B055C6;" cx="400" cy="64" r="4"/>
	<circle style="fill:#B055C6;" cx="424" cy="80" r="4"/>
	<circle style="fill:#B055C6;" cx="400" cy="96" r="4"/>
	<circle style="fill:#B055C6;" cx="424" cy="112" r="4"/>
	<circle style="fill:#B055C6;" cx="400" cy="128" r="4"/>
	<circle style="fill:#B055C6;" cx="424" cy="144" r="4"/>
	<circle style="fill:#B055C6;" cx="448" cy="256" r="4"/>
	<circle style="fill:#B055C6;" cx="472" cy="272" r="4"/>
	<circle style="fill:#B055C6;" cx="448" cy="288" r="4"/>
	<circle style="fill:#B055C6;" cx="472" cy="304" r="4"/>
	<circle style="fill:#B055C6;" cx="448" cy="320" r="4"/>
	<circle style="fill:#B055C6;" cx="472" cy="336" r="4"/>
	<circle style="fill:#B055C6;" cx="448" cy="352" r="4"/>
	<circle style="fill:#B055C6;" cx="472" cy="368" r="4"/>
	<circle style="fill:#B055C6;" cx="448" cy="384" r="4"/>
	<circle style="fill:#B055C6;" cx="448" cy="416" r="4"/>
	<circle style="fill:#B055C6;" cx="448" cy="160" r="4"/>
	<circle style="fill:#B055C6;" cx="472" cy="176" r="4"/>
	<circle style="fill:#B055C6;" cx="448" cy="192" r="4"/>
	<circle style="fill:#B055C6;" cx="472" cy="208" r="4"/>
	<circle style="fill:#B055C6;" cx="448" cy="224" r="4"/>
	<circle style="fill:#B055C6;" cx="472" cy="240" r="4"/>
	<circle style="fill:#B055C6;" cx="448" cy="96" r="4"/>
	<circle style="fill:#B055C6;" cx="448" cy="128" r="4"/>
	<circle style="fill:#B055C6;" cx="472" cy="144" r="4"/>
	<circle style="fill:#B055C6;" cx="496" cy="256" r="4"/>
	<circle style="fill:#B055C6;" cx="496" cy="288" r="4"/>
	<circle style="fill:#B055C6;" cx="496" cy="320" r="4"/>
	<circle style="fill:#B055C6;" cx="496" cy="192" r="4"/>
	<circle style="fill:#B055C6;" cx="496" cy="224" r="4"/>
	<path style="fill:#B055C6;" d="M260,512h-8c0-2.208,1.792-4,4-4C258.208,508,260,509.792,260,512z"/>
	<path style="fill:#B055C6;" d="M260,0c0,2.208-1.792,4-4,4s-4-1.792-4-4H260z"/>
</g>
<g>
	<path style="fill:#FFFFFF;" d="M150.516,420.36c-0.752,0-1.516-0.212-2.192-0.656c-9.184-6.04-17.912-12.912-25.936-20.424
		c-1.612-1.508-1.696-4.04-0.184-5.652s4.044-1.692,5.656-0.184c7.692,7.2,16.06,13.788,24.864,19.576
		c1.844,1.216,2.36,3.696,1.144,5.54C153.092,419.728,151.816,420.36,150.516,420.36z"/>
	<path style="fill:#FFFFFF;" d="M71.68,206.324c-0.372,0-0.748-0.052-1.12-0.164c-2.12-0.62-3.34-2.84-2.72-4.96
		c5.768-19.784,14.588-38.44,26.216-55.456c12.832-18.784,28.668-35.084,47.072-48.46c1.792-1.3,4.288-0.9,5.588,0.884
		c1.3,1.788,0.904,4.288-0.884,5.588c-17.66,12.832-32.856,28.48-45.168,46.5c-11.152,16.32-19.608,34.212-25.144,53.184
		C75.008,205.188,73.416,206.324,71.68,206.324z"/>
	<path style="fill:#FFFFFF;" d="M72.676,317.16c-1.704,0-3.284-1.096-3.816-2.808C62.968,295.44,59.988,275.808,60,256
		c0-4.632,0-9.424,0.544-14.176c0.252-2.196,2.256-3.76,4.432-3.516c2.192,0.252,3.768,2.236,3.516,4.432
		C68,247.028,68,251.388,68,256c-0.012,19.004,2.844,37.836,8.5,55.968c0.66,2.108-0.52,4.352-2.628,5.012
		C73.476,317.1,73.072,317.16,72.676,317.16z"/>
</g>
<circle style="opacity:0.64;fill:#C96CE0;enable-background:new    ;" cx="272" cy="272" r="144"/>
<path style="fill:#FFFFFF;" d="M250.56,112c-77.396,2.924-138.616,66.548-138.56,144c0,0.84,0,1.64,0,2.48
	c20.508,8.776,42.404,13.868,64.68,15.04C178.2,242.4,188,162.32,250.56,112z"/>
<path style="fill:#77E2E5;" d="M176.76,273.52C225.6,275.72,256,256,256,256s-1.88-36,24.44-77.4l0,0
	c12.176-18.72,27.556-35.144,45.44-48.52C304.512,118.192,280.456,111.968,256,112c-1.8,0-3.64,0-5.44,0
	C188,162.32,178.2,242.4,176.76,273.52z"/>
<g>
	<path style="fill:#FFFFFF;" d="M325.88,130.08c-17.884,13.376-33.264,29.8-45.44,48.52c26.24,16.8,90.64,65.4,102.88,144.68
		C419.948,253.98,394.416,168.112,325.88,130.08z"/>
	<path style="fill:#FFFFFF;" d="M134.08,332.64c41.704,66.344,128.804,87.156,196,46.84c-2.648-22.128-9.176-43.616-19.28-63.48
		C283.12,330.16,208.8,361.6,134.08,332.64z"/>
</g>
<g>
	<path style="fill:#77E2E5;" d="M280.44,178.6C254.12,220,256,256,256,256s32.28,16.48,54.8,60l0,0
		c10.132,19.9,16.672,41.428,19.32,63.6c22.48-13.5,40.872-32.856,53.2-56C371.08,244,306.68,195.4,280.44,178.6z"/>
	<path style="fill:#77E2E5;" d="M281.56,276c-32,15.12-94.8,36-165.6,13.4c3.62,15.356,9.756,30.008,18.16,43.36
		c74.68,28.84,149-2.6,176.68-16.76C303.192,301.228,293.328,287.732,281.56,276z"/>
</g>
<path style="fill:#F79231;" d="M281.56,276c-7.548-7.824-16.152-14.556-25.56-20c0,0-30.4,19.72-79.24,17.52l0,0
	c-22.304-1.164-44.228-6.256-64.76-15.04c0.22,10.38,1.56,20.708,4,30.8C186.76,312,249.56,290.96,281.56,276z"/>
<path style="fill:#FFE961;" d="M260.44,224c-2.956,10.408-4.448,21.18-4.44,32c0,0,32.28,16.48,54.8,60l0,0
	c10.128,19.888,16.668,41.404,19.32,63.56c8.892-5.344,17.18-11.636,24.72-18.76C339.04,288,289.52,244,260.44,224z"/>
<path style="fill:#0575C9;" d="M226.04,268c10.492-2.596,20.576-6.632,29.96-12c0,0-1.88-36,24.48-77.4l0,0
	c12.156-18.7,27.508-35.112,45.36-48.48c-9.072-5.016-18.664-9.04-28.6-12C242.2,168,228.92,232.92,226.04,268z"/>
<linearGradient id="SVGID_1_" gradientUnits="userSpaceOnUse" x1="51.6997" y1="530.6198" x2="27.2077" y2="554.2777" gradientTransform="matrix(4 0 0 -4 147 2473)">
	<stop  offset="0" style="stop-color:#C96CE0"/>
	<stop  offset="1" style="stop-color:#C96CE0;stop-opacity:0"/>
</linearGradient>
<path style="opacity:0.24;fill:url(#SVGID_1_);enable-background:new    ;" d="M353.68,161.4
	c34.572,71.62,4.536,157.708-67.084,192.28c-39.548,19.088-85.648,19.088-125.196,0c54.344,51.848,140.432,49.828,192.28-4.516
	C403.816,296.616,403.816,213.948,353.68,161.4z"/>
<g>
</g>
<g>
</g>
<g>
</g>
<g>
</g>
<g>
</g>
<g>
</g>
<g>
</g>
<g>
</g>
<g>
</g>
<g>
</g>
<g>
</g>
<g>
</g>
<g>
</g>
<g>
</g>
<g>
</g>
</svg>
