<svg id="Capa_1" enable-background="new 0 0 512 512" height="512" viewBox="0 0 512 512" width="512" xmlns="http://www.w3.org/2000/svg"><g><path d="m238.144 327.065c-2.418 0-4.799-1.132-6.306-3.254-22.423-31.571-17.158-97.668 2.996-122.125 2.714-3.294 7.583-3.764 10.876-1.049 3.293 2.714 3.763 7.583 1.049 10.876-7.603 9.225-13.079 28.611-13.951 49.385-.933 22.226 3.414 42.4 11.627 53.965 2.471 3.479 1.653 8.303-1.825 10.774-1.356.965-2.918 1.428-4.466 1.428z" fill="#785252"/><path d="m328.27 319.718c-.594 0-1.197-.069-1.801-.213-4.15-.991-6.712-5.159-5.721-9.309 6.847-28.68-17.873-79.621-39.169-91.209-3.748-2.039-5.133-6.731-3.094-10.48 2.04-3.746 6.73-5.132 10.48-3.094 26.901 14.639 55.501 71.975 46.813 108.37-.846 3.548-4.014 5.935-7.508 5.935z" fill="#785252"/><path d="m353.148 2.091c-24.878-7.644-51.243 6.327-58.887 31.205l-28.646 93.229c-3.471 11.297 9.175 20.69 18.987 14.102l80.973-54.366c32.927-22.108 25.484-72.521-12.427-84.17z" fill="#efedef"/><path d="m353.148 2.091c-24.878-7.644-51.243 6.327-58.887 31.205l-28.646 93.229c-3.471 11.297 9.175 20.69 18.987 14.102l80.973-54.366c32.927-22.108 25.484-72.521-12.427-84.17z" fill="#dddbee"/><path d="m353.147 2.091c-8.747-2.688-17.675-2.694-25.912-.502.599.158 1.197.318 1.795.502 37.911 11.649 45.354 62.062 12.427 84.17l-74.76 50.194c3.38 5.782 11.283 8.617 17.904 4.172l80.973-54.366c32.928-22.108 25.485-72.521-12.427-84.17z" fill="#bfc5eb"/><path d="m164.716 140.072c-29.055 0-55.481 11.256-75.156 29.645-6.032 5.638-6.43 14.947-11.074 21.807-4.665 6.891-13.57 11.34-16.594 19.224-4.694 12.237-7.266 25.525-7.266 39.414v22.923c0 6.21 5.034 11.244 11.244 11.244h16.608c14.297 0 27.918-2.898 40.307-8.138 10.046-4.249 17.282-14.039 25.412-21.072 5.98-5.174 13.362-7.021 18.027-13.423 12.456-17.094 19.806-38.148 19.806-60.918l9.998-40.706z" fill="#e5936a"/><path d="m146.29 210.043c-15.094-17.948-34.865-31.857-56.725-40.321-12.092 11.302-21.631 25.295-27.666 41.028 16.916 5.45 32.32 15.635 43.765 29.245 8.678 10.319 15.017 22.546 18.659 35.524 16.778-7.421 31.213-19.168 41.894-33.827-5.189-11.381-11.874-22.074-19.927-31.649z" fill="#6a61b2"/><path d="m218.31 117.106c-34.608 5.701-58.041 38.377-52.34 72.985s38.377 58.042 72.985 52.341 146.92-53.018 141.219-87.626c-5.701-34.609-127.256-43.401-161.864-37.7z" fill="#ecb880"/><path d="m380.174 154.805c-.806-4.893-3.93-9.269-8.795-13.161-12.152 33.246-108.542 73.157-140.147 78.364-26.894 4.43-52.614-8.739-65.423-31.068.056.384.097.767.16 1.152 5.701 34.608 38.377 58.041 72.985 52.341s146.921-53.02 141.22-87.628z" fill="#e5936a"/><path d="m377.628 99.388c-44.042 0-79.74 14.979-79.74 59.021s67.993 79.746 79.74 79.746 79.746-35.704 79.746-79.746-35.705-59.021-79.746-59.021z" fill="#e9a761"/><path d="m454.374 158.409c0 14.551-4.418 28.186-14.791 39.934-20.998 23.801-54.09 39.812-61.955 39.812s-40.951-16.011-61.949-39.812c-10.373-11.748-15.792-25.383-15.792-39.934 0-19.634 5.091-33.487 16.85-42.813 14.628-11.606 36.478-16.208 60.89-16.208s46.269 4.602 60.896 16.208c11.76 9.326 15.851 23.178 15.851 42.813z" fill="#ecb880"/><path d="m438.524 115.596c-14.627-11.606-36.485-16.208-60.896-16.208-4.279 0-8.472.151-12.569.447 19.276 1.391 36.264 6.19 48.327 15.762 11.759 9.326 18.85 23.179 18.85 42.813 0 14.551-7.418 28.186-17.791 39.934-14.814 16.792-35.637 29.696-49.385 35.846 5.738 2.567 10.252 3.966 12.568 3.966 7.865 0 40.957-16.011 61.955-39.812 10.373-11.748 14.791-25.383 14.791-39.934 0-19.635-4.091-33.488-15.85-42.814z" fill="#e5936a"/><path d="m457.374 158.409c0 14.551-7.418 28.186-17.791 39.934-16.471-6.632-28.099-22.754-28.099-41.592 0-18.445 11.137-34.284 27.041-41.156 11.758 9.327 18.849 23.179 18.849 42.814z" fill="#6a61b2"/><path d="m438.524 115.596c-5.779 2.497-10.924 6.183-15.139 10.742 5.648 8.346 8.85 18.902 8.85 32.071 0 10.028-3.525 19.621-9.11 28.461 4.515 4.968 10.125 8.924 16.456 11.473 10.373-11.748 17.791-25.383 17.791-39.934.002-19.634-7.089-33.487-18.848-42.813z" fill="#514898"/><path d="m343.778 156.751c0 18.838-11.628 34.96-28.099 41.592-10.373-11.748-17.792-25.383-17.792-39.934 0-19.634 7.091-33.487 18.85-42.813 15.915 6.882 27.041 22.721 27.041 41.155z" fill="#6a61b2"/><path d="m194.14 2.091c24.878-7.644 51.243 6.327 58.887 31.205l28.646 93.229c3.471 11.297-9.175 20.69-18.987 14.102l-80.973-54.366c-32.928-22.108-25.485-72.521 12.427-84.17z" fill="#dddbee"/><path d="m281.673 126.525-28.646-93.229c-7.461-24.281-32.753-38.16-57.092-31.707 15.189 4.041 28.019 15.576 32.975 31.707l28.646 93.229c1.129 3.675.546 7.143-1.083 9.93l6.213 4.172c9.812 6.588 22.458-2.805 18.987-14.102z" fill="#bfc5eb"/><path d="m431.742 512h-351.484c-13.18 0-23.864-10.684-23.864-23.864v-162.729c0-13.18 10.684-23.864 23.864-23.864h351.484c13.18 0 23.864 10.684 23.864 23.864v162.729c.001 13.18-10.684 23.864-23.864 23.864z" fill="#77d1b3"/><path d="m431.742 301.542h-22.526c13.18 0 23.864 10.684 23.864 23.864v162.729c0 13.18-10.684 23.864-23.864 23.864h22.526c13.18 0 23.864-10.685 23.864-23.864v-162.729c.001-13.18-10.684-23.864-23.864-23.864z" fill="#61aab8"/><g><g fill="#6a61b2"><path d="m165.747 450.431h-51.233c-4.267 0-7.726 3.459-7.726 7.726s3.459 7.726 7.726 7.726h51.233c4.267 0 7.726-3.459 7.726-7.726s-3.459-7.726-7.726-7.726z"/><path d="m281.617 450.431h-51.233c-4.267 0-7.726 3.459-7.726 7.726s3.459 7.726 7.726 7.726h51.233c4.267 0 7.726-3.459 7.726-7.726s-3.459-7.726-7.726-7.726z"/><path d="m397.486 450.431h-51.233c-4.267 0-7.726 3.459-7.726 7.726s3.459 7.726 7.726 7.726h51.233c4.267 0 7.726-3.459 7.726-7.726s-3.458-7.726-7.726-7.726z"/></g><path d="m234.4 429.905h26.501c13.468 0 24.425-10.958 24.425-24.426 0-6.454-2.521-12.327-6.624-16.698 4.103-4.371 6.624-10.244 6.624-16.698 0-13.468-10.957-24.425-24.425-24.425h-26.501c-4.267 0-7.726 3.459-7.726 7.726v33.396 33.397c0 4.27 3.459 7.728 7.726 7.728zm26.501-15.452h-18.774v-17.945h18.774c4.947 0 8.972 4.025 8.972 8.973 0 4.947-4.025 8.972-8.972 8.972zm-18.774-51.341h18.774c4.947 0 8.972 4.025 8.972 8.972s-4.025 8.972-8.972 8.972h-18.774z" fill="#e8eef8"/><path d="m113.583 434.498c4.149 1.005 8.324-1.538 9.331-5.684l5.495-22.623h23.442l5.495 22.623c.858 3.534 4.02 5.904 7.502 5.904.603 0 1.217-.071 1.829-.22 4.147-1.007 6.692-5.185 5.685-9.332l-15.661-64.48c-1.863-7.67-8.678-13.027-16.571-13.027s-14.707 5.357-16.57 13.027l-15.661 64.48c-1.007 4.147 1.538 8.325 5.684 9.332zm26.547-71.386c.74 0 1.38.503 1.555 1.222l6.413 26.404h-15.935l6.413-26.404c.174-.719.814-1.222 1.554-1.222z" fill="#e8eef8"/></g><g fill="#9d6c6c"><path d="m289.161 326.814c-1.106 0-2.228-.238-3.294-.741-3.859-1.823-5.51-6.428-3.687-10.286 6.057-12.827 6.796-33.451 1.978-55.168-4.504-20.3-13.296-38.423-22.399-46.172-3.249-2.766-3.641-7.642-.876-10.891 2.767-3.248 7.643-3.643 10.892-.875 24.133 20.541 40.913 84.688 24.378 119.704-1.318 2.792-4.096 4.429-6.992 4.429z"/><path d="m200.841 326.824c-2.842 0-5.577-1.574-6.927-4.293-16.64-33.514-1.648-95.808 21.279-116.115 3.194-2.831 8.078-2.534 10.906.661 2.829 3.194 2.534 8.077-.661 10.906-18.149 16.075-30.796 71.267-17.684 97.676 1.898 3.822.338 8.458-3.484 10.356-1.103.549-2.275.809-3.429.809z"/></g></g></svg>