<svg width="844" height="408" xmlns="http://www.w3.org/2000/svg" xmlns:xlink="http://www.w3.org/1999/xlink" xml:space="preserve" overflow="hidden"><defs><clipPath id="clip0"><rect x="436" y="312" width="844" height="408"/></clipPath><clipPath id="clip1"><rect x="436" y="313" width="844" height="407"/></clipPath><clipPath id="clip2"><rect x="436" y="313" width="844" height="407"/></clipPath><clipPath id="clip3"><rect x="436" y="313" width="1154" height="942"/></clipPath></defs><g clip-path="url(#clip0)" transform="translate(-436 -312)"><g clip-path="url(#clip1)"><g clip-path="url(#clip2)"><g clip-path="url(#clip3)"><path d="M29.664 934.945C29.664 941.518 29.9365 941.756 40.1197 942.54L40.1197 945.639 7.18612 945.639 7.18612 942.54C17.4034 941.79 17.6077 941.518 17.6077 934.945L17.6077 874.663C17.6077 868.056 17.3693 867.852 7.18612 867.205L7.18612 864.071 42.2312 864.071C62.6657 864.071 68.8301 872.177 68.8301 883.961 68.8301 895.745 60.2476 902.25 49.3152 903.85L49.3152 904.361C62.1208 907.358 65.9693 914.919 67.7062 926.499 69.0685 935.456 70.7032 941.518 80.035 942.54L80.035 945.639 70.4308 945.639C62.87 945.639 58.2723 942.642 56.5354 934.945 55.2752 929.087 54.2876 922.139 53.1296 917.303 51.1202 908.584 46.5225 906.098 37.327 906.098L29.664 906.098ZM29.664 902.761 38.1443 902.761C50.4391 902.761 55.8883 897.414 55.8883 885.085 55.8883 870.44 46.4543 867.443 37.7697 867.443 30.0387 867.443 29.664 868.329 29.664 873.301Z" fill="#85754E" fill-rule="nonzero" fill-opacity="1" transform="matrix(1 0 0 1.00164 428.875 304.847)"/><path d="M136.638 945.639 136.638 942.233 141.611 941.722C145.221 941.484 145.868 939.985 144.608 936.648 142.633 930.552 138.512 918.734 136.536 913.284L109.937 913.284C107.451 921.22 105.203 927.554 103.33 934.638 101.832 939.747 102.479 941.45 106.191 941.722L112.287 942.369 112.287 945.469 86.6762 945.469 86.6762 942.369C94.1348 941.995 95.3949 940.598 98.6303 932.152 106.566 910.798 115.012 885.425 122.471 863.424L131.155 863.424C137.967 882.701 150.33 917.916 156.528 935.149 158.776 941.109 159.934 941.62 167.358 942.233L167.358 945.639ZM123.015 874.118 122.607 874.118C119.201 884.336 114.637 897.958 111.163 909.538L135.004 909.538C132.415 901.024 126.455 882.973 123.118 874.289Z" fill="#85754E" fill-rule="nonzero" fill-opacity="1" transform="matrix(1 0 0 1.00164 428.875 304.847)"/><path d="M215.277 864.071C229.445 864.071 239.867 866.319 247.325 873.539 254.784 880.759 257.542 891.079 257.542 903.135 257.542 932.833 239.39 945.639 212.144 945.639L175.975 945.639 175.975 942.54C185.545 941.893 186.192 941.518 186.192 934.945L186.192 874.663C186.192 868.056 185.545 867.852 175.975 867.205L175.975 864.071ZM198.248 931.948C198.248 940.905 199.849 942.165 209.93 942.165 229.547 942.165 243.988 933.957 243.988 903.51 243.988 883.62 236.018 867.477 211.292 867.341 198.998 867.341 198.248 867.954 198.248 873.812Z" fill="#85754E" fill-rule="nonzero" fill-opacity="1" transform="matrix(1 0 0 1.00164 428.875 304.847)"/><path d="M324.159 864.071 324.159 883.62 320.753 883.62C319.016 871.53 316.019 867.443 302.362 867.443L291.464 867.443C287.479 867.443 287.104 867.818 287.104 871.666L287.104 903.237 302.634 903.237C312.852 903.237 313.839 899.389 314.827 891.692L318.233 891.692 318.233 918.938 314.827 918.938C313.839 911.343 312.715 907.018 302.634 907.018L287.104 907.018 287.104 935.115C287.104 941.552 287.615 941.927 299.297 942.574L299.297 945.673 264.865 945.673 264.865 942.574C274.673 941.927 275.082 941.552 275.082 935.115L275.082 874.663C275.082 868.056 274.844 867.852 264.865 867.205L264.865 864.071Z" fill="#85754E" fill-rule="nonzero" fill-opacity="1" transform="matrix(1 0 0 1.00164 428.875 304.847)"/><path d="M415.773 904.872C415.773 930.211 403.206 947.614 376.607 947.614 350.008 947.614 337.577 930.211 337.577 904.872 337.577 879.533 350.008 861.96 376.743 861.96 403.479 861.96 415.773 879.499 415.773 904.872ZM351.064 904.872C351.064 922.139 355.764 944.277 376.675 944.277 397.587 944.277 402.014 922.139 402.014 904.872 402.014 887.605 397.314 865.468 376.403 865.468 355.492 865.468 351.132 887.707 351.132 904.872Z" fill="#85754E" fill-rule="nonzero" fill-opacity="1" transform="matrix(1 0 0 1.00164 428.875 304.847)"/><path d="M445.948 934.945C445.948 941.518 446.187 941.756 456.37 942.54L456.37 945.639 423.436 945.639 423.436 942.54C433.653 941.79 433.892 941.518 433.892 934.945L433.892 874.663C433.892 868.056 433.619 867.852 423.436 867.205L423.436 864.071 458.481 864.071C478.745 864.071 485.08 872.177 485.08 883.961 485.08 895.745 476.532 902.25 465.565 903.85L465.565 904.361C478.371 907.358 482.219 914.919 483.956 926.499 485.353 935.456 486.953 941.518 496.285 942.54L496.285 945.639 486.715 945.639C479.12 945.639 474.522 942.642 472.785 934.945 471.559 929.087 470.538 922.139 469.55 917.303 467.575 908.584 462.977 906.098 453.781 906.098L445.948 906.098ZM445.948 902.761 454.394 902.761C466.689 902.761 472.172 897.414 472.172 885.085 472.172 870.44 462.704 867.443 454.02 867.443 446.323 867.443 445.948 868.329 445.948 873.301Z" fill="#85754E" fill-rule="nonzero" fill-opacity="1" transform="matrix(1 0 0 1.00164 428.875 304.847)"/><path d="M544 864.071C558.167 864.071 568.623 866.319 576.082 873.539 583.54 880.759 586.299 891.079 586.299 903.135 586.299 932.833 568.146 945.639 540.934 945.639L504.731 945.639 504.731 942.54C514.301 941.893 514.948 941.518 514.948 934.945L514.948 874.663C514.948 868.056 514.336 867.852 504.731 867.205L504.731 864.071ZM526.971 931.948C526.971 940.905 528.571 942.165 538.652 942.165 558.304 942.165 572.71 933.957 572.71 903.51 572.71 883.62 564.775 867.477 540.015 867.341 527.72 867.341 526.971 867.954 526.971 873.812Z" fill="#85754E" fill-rule="nonzero" fill-opacity="1" transform="matrix(1 0 0 1.00164 428.875 304.847)"/><path d="M699.404 922.378 697.258 942.642C688.936 945.87 680.096 947.555 671.17 947.614 642.698 947.614 628.53 933.991 628.53 905.247 627.999 893.921 631.771 882.813 639.088 874.152 645.899 866.217 657.138 861.96 672.294 861.96 680.892 861.854 689.425 863.464 697.394 866.694L697.394 885.732 693.988 885.732C691.741 872.109 683.771 865.468 671.102 865.468 649.101 865.468 642.017 886.106 642.017 904.974 642.017 919.891 646.989 944.277 671.34 944.277 687.518 944.277 692.592 934.706 695.964 922.378Z" fill="#85754E" fill-rule="nonzero" fill-opacity="1" transform="matrix(1 0 0 1.00164 428.875 304.847)"/><path d="M788.498 904.872C788.498 930.211 775.965 947.614 749.332 947.614 722.699 947.614 710.302 930.211 710.302 904.872 710.302 879.533 722.733 861.96 749.468 861.96 776.203 861.96 788.498 879.499 788.498 904.872ZM723.789 904.872C723.789 922.139 728.523 944.277 749.4 944.277 770.277 944.277 774.773 922.139 774.773 904.872 774.773 887.605 770.039 865.468 749.161 865.468 728.284 865.468 723.857 887.707 723.857 904.872Z" fill="#85754E" fill-rule="nonzero" fill-opacity="1" transform="matrix(1 0 0 1.00164 428.875 304.847)"/><path d="M818.536 932.084C818.536 940.292 819.524 942.029 833.59 942.029 845.885 942.029 852.492 939.406 855.455 922.889L858.861 922.889 856.477 945.639 796.297 945.639 796.297 942.54C805.969 941.654 806.514 941.518 806.514 935.081L806.514 874.663C806.514 868.056 806.003 867.852 796.297 867.205L796.297 864.071 829.741 864.071 829.741 867.205C818.775 867.818 818.536 868.056 818.536 874.663Z" fill="#85754E" fill-rule="nonzero" fill-opacity="1" transform="matrix(1 0 0 1.00164 428.875 304.847)"/><path d="M889.546 932.084C889.546 940.292 890.534 942.029 904.6 942.029 916.894 942.029 923.467 939.406 926.465 922.889L929.87 922.889 927.52 945.639 867.307 945.639 867.307 942.54C876.979 941.654 877.524 941.518 877.524 935.081L877.524 874.663C877.524 868.056 877.013 867.852 867.307 867.205L867.307 864.071 900.717 864.071 900.717 867.205C889.785 867.818 889.546 868.056 889.546 874.663Z" fill="#85754E" fill-rule="nonzero" fill-opacity="1" transform="matrix(1 0 0 1.00164 428.875 304.847)"/><path d="M948.466 874.663C948.466 868.056 948.091 867.852 938.248 867.205L938.248 864.071 997.44 864.071 997.44 883.723 994.205 883.723C992.468 871.53 989.232 867.443 975.303 867.443L965.086 867.443C961.237 867.443 960.726 867.954 960.726 871.666L960.726 901.126 975.541 901.126C985.759 901.126 987.359 897.516 988.347 890.057L991.753 890.057 991.753 916.929 988.347 916.929C987.223 908.584 985.588 905.111 975.541 905.111L960.42 905.111 960.42 932.084C960.42 940.428 961.442 942.029 975.337 942.029 990.152 942.029 995.976 938.623 998.837 923.876L1002.07 923.876 999.722 945.639 938.282 945.639 938.282 942.54C947.989 941.893 948.5 941.518 948.5 935.081Z" fill="#85754E" fill-rule="nonzero" fill-opacity="1" transform="matrix(1 0 0 1.00164 428.875 304.847)"/><path d="M1083.47 942.914C1074.57 945.678 1065.34 947.258 1056.02 947.614 1045.8 947.614 1035.38 946.388 1026.42 940.156 1017.47 933.923 1012.02 921.39 1012.02 906.098 1012.02 878.614 1026.8 862.062 1056.29 862.062 1065.18 862.11 1074.01 863.665 1082.38 866.66L1082.38 886.073 1078.97 886.073C1076.49 872.007 1068.31 865.638 1055.13 865.638 1032.01 865.638 1025.44 886.379 1025.44 904.668 1025.44 918.938 1030.03 944.447 1056.87 944.447 1060.36 944.552 1063.83 943.961 1067.09 942.71 1069.57 941.825 1071.07 940.326 1071.07 936.341L1071.07 918.325C1071.07 912.501 1070.46 911.752 1058.78 911.002L1058.78 907.903 1091.34 907.903 1091.34 911.002C1083.74 911.752 1083.13 912.365 1083.13 918.223Z" fill="#85754E" fill-rule="nonzero" fill-opacity="1" transform="matrix(1 0 0 1.00164 428.875 304.847)"/><path d="M1107.28 874.663C1107.28 868.056 1106.9 867.852 1097.06 867.205L1097.06 864.071 1156.22 864.071 1156.22 883.723 1152.98 883.723C1151.24 871.53 1148.01 867.443 1134.11 867.443L1123.9 867.443C1120.01 867.443 1119.54 867.954 1119.54 871.666L1119.54 901.126 1134.11 901.126C1144.33 901.126 1145.93 897.516 1146.92 890.057L1150.32 890.057 1150.32 916.929 1146.92 916.929C1145.79 908.584 1144.19 905.111 1134.11 905.111L1119.33 905.111 1119.33 932.084C1119.33 940.428 1120.32 942.029 1134.25 942.029 1149.03 942.029 1154.89 938.623 1157.75 923.876L1160.98 923.876 1158.6 945.639 1097.09 945.639 1097.09 942.54C1106.76 941.893 1107.31 941.518 1107.31 935.081Z" fill="#85754E" fill-rule="nonzero" fill-opacity="1" transform="matrix(1 0 0 1.00164 428.875 304.847)"/><path d="M706.862 719.872C712.857 719.064 718.897 718.631 724.947 718.578 728.759 718.526 732.567 718.834 736.322 719.497 730.634 711.63 722.699 699.914 720.724 694.636 690.821 691.707 677.743 708.259 674.201 713.946 681.375 718.519 689.78 720.778 698.28 720.417 701.149 720.416 704.016 720.234 706.862 719.872Z" fill="#85754E" fill-rule="nonzero" fill-opacity="1" transform="matrix(1 0 0 1.00164 428.875 304.847)"/><path d="M463.556 719.872C466.414 720.235 469.292 720.417 472.172 720.417 480.67 720.76 489.07 718.503 496.251 713.946 492.845 708.224 479.869 691.673 449.729 694.636 447.889 699.88 439.92 711.46 434.232 719.327 437.73 718.725 441.275 718.44 444.824 718.476 451.091 718.548 457.347 719.015 463.556 719.872Z" fill="#85754E" fill-rule="nonzero" fill-opacity="1" transform="matrix(1 0 0 1.00164 428.875 304.847)"/><path d="M832.432 649.612C834.098 643.049 835.023 636.32 835.191 629.552 834.816 627.236 821.976 622.127 799.703 621.071L797.898 621.071C790.643 621.071 785.092 623.217 782.572 627.1 780.941 629.548 780.759 632.686 782.095 635.308 784.411 639.905 811.895 645.695 832.432 649.612Z" fill="#85754E" fill-rule="nonzero" fill-opacity="1" transform="matrix(1 0 0 1.00164 428.875 304.847)"/><path d="M915.498 680.706C895.54 670.678 874.392 663.217 852.56 658.501L845.101 657.138 843.875 656.9C804.948 649.816 789.383 645.525 782.572 642.119L784.275 653.562C792.346 656.968 858.111 684.01 864.582 686.87 873.233 690.617 910.968 703.593 922.071 698.382 922.87 698.016 923.625 697.559 924.319 697.02 925.276 696.349 925.887 695.289 925.988 694.125 926.362 689.799 919.96 683.567 915.498 680.706Z" fill="#85754E" fill-rule="nonzero" fill-opacity="1" transform="matrix(1 0 0 1.00164 428.875 304.847)"/><path d="M387.846 627.066C385.326 623.183 379.809 621.037 372.52 621.037L370.749 621.037C348.476 622.093 335.602 627.202 335.261 629.518 335.4 636.286 336.314 643.017 337.986 649.578 358.421 645.661 386.007 639.871 388.357 635.239 389.648 632.617 389.454 629.507 387.846 627.066Z" fill="#85754E" fill-rule="nonzero" fill-opacity="1" transform="matrix(1 0 0 1.00164 428.875 304.847)"/><path d="M326.577 656.9 325.351 657.138 317.858 658.501C296.026 663.217 274.878 670.678 254.92 680.706 250.492 683.567 244.056 689.799 244.328 694.125 244.429 695.289 245.04 696.349 245.997 697.02 246.691 697.559 247.445 698.016 248.245 698.382 259.381 703.593 297.117 690.617 305.734 686.87 312.239 684.01 378.14 656.832 386.041 653.562L387.778 641.881C377.663 647.091 354.64 651.791 326.577 656.9Z" fill="#85754E" fill-rule="nonzero" fill-opacity="1" transform="matrix(1 0 0 1.00164 428.875 304.847)"/><path d="M484.774 652.575C460.218 640.961 426.876 642.834 388.629 658.024 387.914 658.33 314.486 688.676 307.777 691.536 307.368 691.536 270.007 706.726 251.412 704.41 258.188 716.572 264.183 729.154 269.36 742.078 295.809 742.702 322.059 737.359 346.16 726.445 355.049 722.461 362.78 718.782 370.272 715.24 397.518 702.367 417.204 693.035 448.264 689.629 469.107 687.347 482.56 693.92 490.155 699.846 492.953 702.032 495.501 704.522 497.749 707.271 499.342 695.312 503.439 683.823 509.772 673.554 503.525 664.397 494.876 657.138 484.774 652.575Z" fill="#85754E" fill-rule="nonzero" fill-opacity="1" transform="matrix(1 0 0 1.00164 428.875 304.847)"/><path d="M742.725 728.284C741.465 725.389 734.823 723.687 724.947 723.687 719.113 723.73 713.289 724.151 707.509 724.947 704.411 725.291 701.295 725.45 698.178 725.423 688.298 725.866 678.543 723.081 670.387 717.488 642.112 726.282 612.674 730.771 583.063 730.805 537.597 730.805 506.707 720.179 499.725 717.556 491.606 723.112 481.898 725.874 472.07 725.423 468.974 725.412 465.88 725.219 462.807 724.845 456.813 724.015 450.773 723.56 444.722 723.482 431.337 723.482 428.511 726.547 427.932 727.876 426.876 730.226 428.953 734.415 433.756 739.728 442.508 749.434 465.599 759.515 497.102 767.348 525.883 774.602 555.398 778.544 585.073 779.098 632.515 779.098 713.061 764.113 736.526 739.694 743.236 732.916 743.27 729.613 742.725 728.284Z" fill="#85754E" fill-rule="nonzero" fill-opacity="1" transform="matrix(1 0 0 1.00164 428.875 304.847)"/><path d="M862.641 691.536C855.829 688.607 782.504 658.33 781.754 658.024 754.951 647.398 716.432 637.828 685.338 652.711 675.362 657.279 666.824 664.486 660.646 673.554 667.002 683.852 671.11 695.377 672.703 707.373 678.594 700.119 691.23 689.152 713.878 689.152 716.654 689.167 719.428 689.326 722.188 689.629 753.248 693.035 772.9 702.367 800.146 715.24 807.638 718.646 815.369 722.461 824.258 726.445 848.356 737.369 874.608 742.712 901.058 742.078 906.249 729.154 912.255 716.573 919.04 704.41 900.445 706.726 863.05 691.707 862.641 691.536Z" fill="#85754E" fill-rule="nonzero" fill-opacity="1" transform="matrix(1 0 0 1.00164 428.875 304.847)"/><path d="M817.379 310.74 847.656 310.74 847.077 307.743 816.936 307.743C816.902 308.731 817.072 309.923 817.379 310.74Z" fill="#85754E" fill-rule="nonzero" fill-opacity="1" transform="matrix(1 0 0 1.00164 428.875 304.847)"/><path d="M828.481 368.229 831.036 367.446 825.689 345.342 828.175 344.763 833.488 366.662 836.621 365.675 831.785 343.98 834.271 343.401 839.039 364.789 842.445 363.768 838.017 342.754 840.504 342.243 844.897 363.018 847.962 362.065 843.841 341.8 846.361 341.29 850.414 361.281 853.037 360.464 848.814 340.813 851.3 340.268 855.455 359.715 858.861 358.625C857.328 353.278 853.548 339.825 849.869 324.227L819.456 324.227C821.549 339.067 824.563 353.763 828.481 368.229Z" fill="#85754E" fill-rule="nonzero" fill-opacity="1" transform="matrix(1 0 0 1.00164 428.875 304.847)"/><path d="M820.784 239.628C819.976 239.864 819.198 240.195 818.468 240.616 814.568 243.258 812.223 247.655 812.202 252.366 811.112 262.31 813.224 283.528 816.289 305.189L845.442 305.189C840.912 282.847 838.256 260.914 843.296 254.988 843.68 254.539 844.127 254.149 844.625 253.83 836.962 243.136 830.661 237.789 820.784 239.628Z" fill="#85754E" fill-rule="nonzero" fill-opacity="1" transform="matrix(1 0 0 1.00164 428.875 304.847)"/><path d="M817.583 313.328C817.753 314.316 817.889 315.338 818.06 316.326L848.03 316.326C847.792 315.338 847.588 314.316 847.383 313.328Z" fill="#85754E" fill-rule="nonzero" fill-opacity="1" transform="matrix(1 0 0 1.00164 428.875 304.847)"/><path d="M695.18 157.311C692.139 148.516 690.294 139.352 689.697 130.065 689.697 129.589 689.118 96.9275 674.576 91.0355 665.891 87.6298 659.931 86.3356 656.423 87.4595 659.829 90.2863 662.043 97.0637 663.235 107.587 663.609 110.823 663.95 114.126 664.29 117.464 666.129 135.889 668.071 154.927 678.731 165.792 679.344 166.405 695.759 182.275 716.024 182.275L717.454 182.275C700.936 174.476 696.372 162.318 695.18 157.311Z" fill="#85754E" fill-rule="nonzero" fill-opacity="1" transform="matrix(1 0 0 1.00164 428.875 304.847)"/><path d="M807.536 140.283C812.214 140.489 816.871 141.047 821.465 141.951 820.035 141.134 818.605 140.385 817.072 139.636 816.663 139.636 765.986 118.69 740.681 142.735L737.275 146.14C722.767 160.002 712.277 169.981 703.593 167.086 708.862 173.829 716.043 178.826 724.197 181.424 734.21 178.904 743.304 172.126 752.84 165.008 757.914 161.194 763.057 157.311 768.711 153.837 777.225 144.267 790.643 139.636 807.536 140.283Z" fill="#85754E" fill-rule="nonzero" fill-opacity="1" transform="matrix(1 0 0 1.00164 428.875 304.847)"/><path d="M659.931 108.064C658.296 94.271 655.163 90.7631 653.869 89.8776L653.562 89.7073C652.827 90.8945 652.372 92.2342 652.234 93.6239 651.941 99.1828 651.941 104.753 652.234 110.312 652.915 137.762 652.881 160.785 645.797 164.327 640.992 167.21 635.283 168.194 629.79 167.086 633.877 172.16 642.119 178.052 658.773 180.198 665.417 177.494 671.166 172.974 675.359 167.154 664.767 155.336 662.826 136.502 660.987 117.907 660.714 114.603 660.306 111.3 659.931 108.064Z" fill="#85754E" fill-rule="nonzero" fill-opacity="1" transform="matrix(1 0 0 1.00164 428.875 304.847)"/><path d="M839.516 240.241 839.073 242.046C842.508 245.338 845.59 248.979 848.269 252.911L848.03 252.911 848.269 252.911C855.08 253.728 858.895 252.911 861.381 250.663 866.251 245.929 867.136 233.191 864.786 203.663 861.243 181.105 848.866 160.886 830.388 147.469L830.389 147.469C830.048 147.469 803.143 138.546 782.878 147.469 790.643 146.447 799.022 149.376 807.502 156.187 813.611 161.145 818.918 167.015 823.236 173.591 826.983 180.504 845.714 215.039 839.516 240.241Z" fill="#85754E" fill-rule="nonzero" fill-opacity="1" transform="matrix(1 0 0 1.00164 428.875 304.847)"/><path d="M845.442 318.846 818.468 318.846C818.468 319.833 818.775 320.821 818.945 321.809L849.597 321.809 848.507 318.812 845.374 318.812Z" fill="#85754E" fill-rule="nonzero" fill-opacity="1" transform="matrix(1 0 0 1.00164 428.875 304.847)"/><path d="M804.232 186.192 365.709 186.192 365.709 336.351C365.709 391.49 380.353 580.066 570.905 699.097L584.937 707.577 586.673 706.556C787.612 588.989 803.96 394.828 804.198 338.054Z" fill="#85754E" fill-rule="nonzero" fill-opacity="1" transform="matrix(1 0 0 1.00164 428.875 304.847)"/><path d="M397.655 213.847 554.728 213.847 554.728 324.976 397.655 324.976Z" fill="#001689" fill-rule="nonzero" fill-opacity="1" transform="matrix(1 0 0 1.00164 436.061 313)"/><path d="M564.468 335.636 402.286 335.636 402.286 219.398 564.468 219.398ZM407.395 330.527 559.359 330.527 559.359 224.507 407.395 224.507Z" fill="#FFFFFF" fill-rule="nonzero" fill-opacity="1" transform="matrix(1 0 0 1.00164 428.875 304.847)"/><path d="M404.773 370.477 561.948 370.477 561.948 641.131C561.948 641.131 430.622 557.418 404.773 370.477Z" fill="#E7E3F2" fill-rule="nonzero" fill-opacity="1" transform="matrix(1 0 0 1.00164 428.875 304.847)"/><path d="M564.4 645.763 560.483 643.277C560.143 643.073 526.903 621.616 491.04 577.512 443.048 518.057 412.322 446.554 402.218 370.817L401.878 367.82 564.434 367.82ZM407.736 373.031C418.091 446.774 448.259 516.326 495.025 574.277 513.698 597.623 535.31 618.457 559.325 636.261L559.325 373.031Z" fill="#FFFFFF" fill-rule="nonzero" fill-opacity="1" transform="matrix(1 0 0 1.00164 428.875 304.847)"/><path d="M766.531 370.647 609.628 370.647 609.628 641.268C609.628 641.268 740.681 557.554 766.531 370.647Z" fill="#001689" fill-rule="nonzero" fill-opacity="1" transform="matrix(1 0 0 1.00164 428.875 304.847)"/><path d="M606.904 645.933 606.904 368.093 769.46 368.093 769.085 370.988C758.975 446.723 728.249 518.224 680.263 577.682 644.401 621.787 611.161 643.209 610.82 643.447ZM612.012 373.201 612.012 636.431C636.077 618.573 657.735 597.682 676.449 574.277 723.112 516.396 753.23 446.959 763.602 373.338Z" fill="#FFFFFF" fill-rule="nonzero" fill-opacity="1" transform="matrix(1 0 0 1.00164 428.875 304.847)"/><path d="M602.272 213.847 759.345 213.847 759.345 324.976 602.272 324.976Z" fill="#E7E3F2" fill-rule="nonzero" fill-opacity="1" transform="matrix(1 0 0 1.00164 436.061 313)"/><path d="M769.085 335.636 606.904 335.636 606.904 219.398 769.085 219.398ZM612.012 330.527 763.977 330.527 763.977 224.507 612.012 224.507Z" fill="#FFFFFF" fill-rule="nonzero" fill-opacity="1" transform="matrix(1 0 0 1.00164 428.875 304.847)"/><path d="M474.284 238.402 457.596 238.402C457.596 238.402 453.509 237.414 428.306 254.477 432.504 252.227 436.92 250.413 441.487 249.062L457.97 249.062Z" fill="#FFFFFF" fill-rule="nonzero" fill-opacity="1" transform="matrix(1 0 0 1.00164 428.875 304.847)"/><path d="M457.868 254.137 457.868 306.108C457.868 306.108 457.868 312.681 441.793 321.264L472.785 303.486 472.785 284.856C472.785 284.856 474.829 283.903 477.281 286.9 479.733 289.897 495.91 308.901 495.91 308.901 495.91 308.901 502.245 312.307 507.115 309.821 511.986 307.334 527.55 295.857 527.55 295.857 522.355 298.659 516.999 301.15 511.509 303.316 510.215 303.111 488.384 276.274 488.384 276.274 488.384 276.274 487.839 274.775 491.381 272.528 494.923 270.28 502.756 264.694 502.756 264.694 502.756 264.694 509.84 255.942 505.174 249.948 500.508 243.953 493.22 235.405 493.22 235.405 491.332 233.737 488.589 233.463 486.408 234.724 482.696 236.972 461.989 250.867 461.989 250.867 460.528 251.842 459.15 252.936 457.868 254.137Z" fill="#FFFFFF" fill-rule="nonzero" fill-opacity="1" transform="matrix(1 0 0 1.00164 428.875 304.847)"/><path d="M473.875 249.675 473.875 276.206C473.875 276.206 474.318 278.351 478.575 275.899 482.832 273.447 492.743 266.295 492.743 266.295 492.743 266.295 497.034 262.004 495.161 259.279 492.913 255.874 484.365 244.805 484.365 244.805 480.15 243.241 475.466 245.389 473.901 249.603 473.893 249.627 473.884 249.651 473.875 249.675Z" fill="#001689" fill-rule="nonzero" fill-opacity="1" transform="matrix(1 0 0 1.00164 428.875 304.847)"/><path d="M749.604 660.135 749.604 661.225C747.969 661.225 747.595 661.225 747.016 662.588 745.313 666.334 741.294 675.734 739.455 680.025L735.232 679.412C734.891 676.006 733.836 667.56 733.495 665.006 733.052 666.164 728.965 677.13 728.455 678.629L724.061 677.743C723.346 671.442 722.392 664.869 721.405 658.535 721.405 657.513 720.894 657.206 719.429 656.866L719.429 655.776 728.897 657.104 728.897 658.194 727.433 658.194C726.65 658.194 726.718 658.637 726.752 659.284 727.058 662.69 728.046 670.08 728.352 673.316 730.464 667.9 732.337 662.315 733.802 658.228L737.48 658.739C737.854 662.826 739.081 671.136 739.557 674.712 741.499 670.182 742.963 666.266 744.564 661.94 744.768 661.225 744.768 660.782 744.155 660.612L742.486 660.135 742.486 659.046Z" fill="#FFFFFF" fill-rule="nonzero" fill-opacity="1" transform="matrix(1 0 0 1.00164 428.875 304.847)"/><path d="M754.713 680.604C754.338 682.068 754.713 682.307 756.552 682.92L756.28 684.044 746.539 681.557 746.846 680.434C748.855 680.842 749.196 680.774 749.57 679.31L753.317 664.529C753.691 663.064 753.317 662.792 751.477 662.213L751.75 661.089 761.49 663.575 761.184 664.699C759.14 664.222 758.868 664.324 758.459 665.823Z" fill="#FFFFFF" fill-rule="nonzero" fill-opacity="1" transform="matrix(1 0 0 1.00164 428.875 304.847)"/><path d="M774.875 674.133C775.181 670.387 773.853 668.445 772.014 667.832 770.503 667.255 768.81 668.012 768.233 669.523 768.193 669.627 768.159 669.734 768.131 669.842 767.382 671.987 769.119 673.52 771.129 675.393 773.138 677.266 775.556 679.582 774.228 683.431 773.206 686.462 770.345 689.186 764.487 687.211 762.253 686.595 760.28 685.268 758.868 683.431L760.332 677.947 761.388 678.322C761.388 682.375 762.682 685.134 764.794 685.849 766.255 686.542 768.002 685.919 768.695 684.457 768.794 684.249 768.867 684.03 768.915 683.805 769.494 682.068 768.915 680.74 766.667 678.629 763.738 675.938 761.831 673.69 763.023 670.114 764.215 666.538 767.144 664.733 772.355 666.47 774.289 667.075 776.036 668.165 777.429 669.637L775.794 674.474Z" fill="#FFFFFF" fill-rule="nonzero" fill-opacity="1" transform="matrix(1 0 0 1.00164 428.875 304.847)"/><path d="M791.87 674.542C794.791 675.427 797.241 677.436 798.681 680.127 799.586 682.807 799.339 685.742 798 688.233 793.879 697.905 786.284 695.044 782.197 693.375L774.023 689.97 774.466 688.88C776.442 689.629 776.748 689.561 777.327 688.165L783.287 674.167C783.934 672.703 783.696 672.464 781.823 671.579L782.299 670.523ZM781.993 690.549C781.686 691.264 781.993 691.707 783.56 692.422 786.216 693.546 789.349 693.614 792.517 686.121 794.901 680.604 794.049 677.028 790.609 675.563 788.975 674.882 788.668 674.916 788.43 675.563Z" fill="#FFFFFF" fill-rule="nonzero" fill-opacity="1" transform="matrix(1 0 0 1.00164 428.875 304.847)"/><path d="M819.763 698.722C816.834 705.057 811.997 707.373 805.595 704.41 799.192 701.447 797.83 696.338 800.724 689.97 803.619 683.601 808.49 681.319 814.892 684.282 821.295 687.245 822.657 692.388 819.763 698.722ZM806.14 692.388C804.403 696.168 802.461 701.345 806.344 703.116 810.227 704.887 812.883 700.051 814.586 696.304 816.289 692.558 818.332 687.347 814.382 685.542 810.431 683.737 807.604 688.914 806.003 692.388Z" fill="#FFFFFF" fill-rule="nonzero" fill-opacity="1" transform="matrix(1 0 0 1.00164 428.875 304.847)"/><path d="M817.379 709.587 817.821 708.531C819.388 708.974 819.831 709.417 820.75 707.782 821.261 706.828 821.772 705.738 822.794 703.32L826.812 693.818C827.391 692.422 827.187 692.149 825.314 691.264L825.757 690.208 833.42 693.614C833.181 697.394 833.045 705.125 832.943 707.782 836.349 704.138 839.039 700.97 842.377 697.394L849.699 700.459 849.222 701.549C847.315 700.8 846.974 700.868 846.361 702.299L840.435 716.296C839.857 717.692 840.061 717.965 841.934 718.85L841.491 719.906 832.5 716.126 832.943 715.07C834.884 715.819 835.225 715.751 835.838 714.355L841.696 700.391C838.29 704.206 831.478 712.175 829.162 714.729L827.323 713.946C827.732 707.782 828.311 699.063 828.481 694.806L824.497 704.206C823.835 705.706 823.255 707.241 822.76 708.803 822.113 710.711 823.271 710.813 824.701 711.596L824.224 712.652Z" fill="#FFFFFF" fill-rule="nonzero" fill-opacity="1" transform="matrix(1 0 0 1.00164 428.875 304.847)"/><path d="M333.967 715.206C334.342 716.228 334.717 716.603 335.534 716.364L337.271 715.853 337.68 716.943 327.292 720.724 326.951 719.634 328.552 718.919C329.37 718.544 329.404 718.033 329.029 717.011L323.307 701.243 322.217 701.617C319.697 702.537 319.799 703.967 319.799 707.203L318.71 707.611 316.734 702.128 333.763 695.862 335.772 701.311 334.682 701.719C332.571 699.267 331.719 698.109 329.165 699.029L328.109 699.438Z" fill="#FFFFFF" fill-rule="nonzero" fill-opacity="1" transform="matrix(1 0 0 1.00164 428.875 304.847)"/><path d="M349.191 708.599C349.838 709.995 350.145 710.029 352.086 709.246L352.563 710.302 343.435 714.491 342.958 713.435C344.832 712.482 345.002 712.209 344.389 710.813L338.02 696.986C337.373 695.555 337.101 695.555 335.125 696.338L334.614 695.283 344.321 690.855C347.726 689.323 351.132 688.199 353.073 692.558 354.268 695.093 353.182 698.117 350.646 699.312 350.604 699.332 350.562 699.351 350.519 699.37L350.519 699.54C353.138 698.758 355.952 699.87 357.331 702.23 358.727 704.24 359.919 705.636 361.826 704.785L362.303 705.84 360.089 706.862C356.99 708.293 355.287 708.19 353.652 706.419 352.696 705.35 351.819 704.212 351.03 703.014 350.375 701.785 348.849 701.32 347.621 701.975 347.552 702.012 347.485 702.051 347.42 702.094L346.398 702.571ZM345.785 701.141 346.841 700.664C349.77 699.301 349.293 697.258 348.34 695.146 347.113 692.524 345.342 691.945 343.606 692.728 341.869 693.512 342.311 693.614 342.686 694.363Z" fill="#FFFFFF" fill-rule="nonzero" fill-opacity="1" transform="matrix(1 0 0 1.00164 428.875 304.847)"/><path d="M373.474 677.334 373.951 678.39C372.146 679.276 371.975 679.548 372.657 680.944L377.493 691.4C378.175 692.647 378.46 694.073 378.31 695.487 378.038 697.973 376.164 699.914 372.622 701.583 370.207 703.202 367.146 703.521 364.449 702.435 363.099 701.557 362.052 700.284 361.452 698.791L356.615 688.403C355.968 686.973 355.662 686.939 353.857 687.722L353.38 686.666 362.235 682.545 362.746 683.601C361.009 684.521 360.77 684.759 361.452 686.155L366.526 697.088C367.991 700.221 369.762 701.345 372.009 700.289 374.257 699.233 374.598 697.122 373.133 694.023L368.059 683.09C367.412 681.66 367.105 681.626 365.3 682.409L364.789 681.353Z" fill="#FFFFFF" fill-rule="nonzero" fill-opacity="1" transform="matrix(1 0 0 1.00164 428.875 304.847)"/><path d="M393.5 688.539C393.908 689.561 394.317 689.867 395.134 689.595L396.837 689.016 397.28 690.106 387.063 694.397 386.62 693.307 388.187 692.524C388.97 692.115 388.97 691.57 388.561 690.583L382.056 675.121 381.001 675.563C378.514 676.585 378.685 677.982 378.821 681.251L377.765 681.694 375.517 676.313 392.546 669.195 394.794 674.576 393.738 675.018C391.524 672.669 390.639 671.613 388.119 672.6L387.063 673.043Z" fill="#FFFFFF" fill-rule="nonzero" fill-opacity="1" transform="matrix(1 0 0 1.00164 428.875 304.847)"/><path d="M405.76 675.734 408.042 682.988C408.519 684.452 408.791 684.521 410.835 683.976L411.176 685.099 401.605 688.096 401.265 687.007C403.24 686.257 403.444 686.019 403.002 684.589L398.472 670.046C398.029 668.582 397.723 668.479 395.679 669.058L395.339 667.935 404.909 664.938 405.249 666.027C403.274 666.743 403.07 666.981 403.547 668.445L405.284 674.337 412.095 672.158 410.256 666.3C409.779 664.835 409.439 664.733 407.463 665.312L407.123 664.188 416.693 661.191 417.033 662.281C415.058 662.996 414.854 663.201 415.296 664.699L419.894 679.242C420.337 680.672 420.643 680.774 422.687 680.229L423.027 681.319 413.457 684.35 413.117 683.226C415.092 682.511 415.296 682.273 414.82 680.842L412.538 673.588Z" fill="#FFFFFF" fill-rule="nonzero" fill-opacity="1" transform="matrix(1 0 0 1.00164 428.875 304.847)"/><path d="M535.86 480.21C536.707 480.3 537.558 480.069 538.244 479.563 538.762 478.866 539.026 478.013 538.993 477.145L539.81 477.145 539.81 483.411 530.138 483.411 530.138 476.804C531.891 476.5 533.456 475.522 534.497 474.08 535.612 472.5 536.175 470.596 536.098 468.664 536.211 466.472 535.466 464.323 534.021 462.67 530.875 459.669 525.927 459.669 522.782 462.67 521.346 464.328 520.602 466.474 520.704 468.664 520.645 470.594 521.206 472.492 522.305 474.08 523.354 475.53 524.933 476.509 526.698 476.804L526.698 483.207 516.992 483.207 516.992 476.94 517.673 476.94C517.623 477.81 517.889 478.669 518.422 479.358 519.108 479.865 519.959 480.096 520.806 480.006L525.2 480.006 525.2 477.894C522.742 477.549 520.455 476.441 518.661 474.727 517.128 473.087 516.307 470.908 516.379 468.664 516.351 465.978 517.619 463.443 519.785 461.853 525.01 458.358 531.827 458.358 537.052 461.853 540.869 465.029 541.39 470.698 538.214 474.515 538.135 474.61 538.054 474.703 537.971 474.795 536.196 476.516 533.917 477.626 531.466 477.962L531.466 480.21Z" fill="#001689" fill-rule="nonzero" fill-opacity="1" transform="matrix(1 0 0 1.00164 428.875 304.847)"/><path d="M465.225 459.435 466.144 459.435 474.795 478.95C475.078 479.704 475.519 480.389 476.089 480.959 476.552 481.33 477.131 481.523 477.724 481.504L477.928 481.504 477.928 482.117 468.698 482.117 468.698 481.47C469.351 481.496 470.002 481.38 470.606 481.129 470.96 480.885 471.156 480.469 471.117 480.04 471.133 479.847 471.133 479.653 471.117 479.461 471.132 479.302 471.132 479.142 471.117 478.984L469.312 474.795 459.775 474.795 458.209 478.371C458.041 478.721 457.904 479.086 457.8 479.461 457.762 479.675 457.762 479.894 457.8 480.108 457.793 480.52 457.999 480.906 458.345 481.13 458.874 481.388 459.46 481.506 460.048 481.47L460.388 481.47 460.388 482.117 452.964 482.117 452.964 481.504C453.611 481.497 454.236 481.269 454.735 480.857 455.358 480.192 455.854 479.418 456.199 478.575ZM460.354 473.398 468.63 473.398 464.646 464.135Z" fill="#001689" fill-rule="nonzero" fill-opacity="1" transform="matrix(1 0 0 1.00164 428.875 304.847)"/><path d="M465.02 446.118 467.03 448.128 485.863 466.962 489.61 463.215 470.776 444.381 468.767 442.372 461.751 435.356 461.751 432.393 455.007 439.137 458.004 439.137 465.02 446.118Z" fill="#001689" fill-rule="evenodd" fill-opacity="1" transform="matrix(1 0 0 1.00164 436.061 313)"/><path d="M510.453 484.092 508.478 482.083 489.61 463.249 485.863 466.996 504.731 485.829 506.707 487.839 513.722 494.821 513.722 497.818 520.466 491.108 517.469 491.108 510.453 484.092Z" fill="#001689" fill-rule="evenodd" fill-opacity="1" transform="matrix(1 0 0 1.00164 436.061 313)"/><path d="M506.707 442.372 504.731 444.381 485.863 463.215 489.61 466.962 508.478 448.128 510.453 446.118 517.469 439.137 520.466 439.137 513.722 432.393 513.722 435.356 506.707 442.372Z" fill="#001689" fill-rule="evenodd" fill-opacity="1" transform="matrix(1 0 0 1.00164 436.061 313)"/><path d="M468.767 487.839 470.776 485.829 489.61 466.996 485.863 463.249 467.03 482.083 465.02 484.092 458.004 491.108 455.007 491.108 461.751 497.818 461.751 494.821 468.767 487.839Z" fill="#001689" fill-rule="evenodd" fill-opacity="1" transform="matrix(1 0 0 1.00164 436.061 313)"/><path d="M512.258 398.881 499.623 400.788 486.374 400.788C486.374 400.788 474.897 399.834 473.126 400.005L473.126 401.401C473.126 401.401 492.368 400.788 492.368 412.095 492.368 418.668 492.368 452.249 492.164 479.29L492.164 499.418C492.164 508.852 492.164 515.085 492.164 515.085L492.164 522.271 489.848 524.587 500.065 524.587 497.749 522.271 497.749 515.187 497.749 416.114C497.381 408.599 503.175 402.209 510.689 401.84 511.315 401.81 511.941 401.822 512.564 401.878 520.814 401.219 528.037 407.372 528.696 415.622 528.755 416.363 528.759 417.108 528.708 417.851 528.708 420.575 529.968 437.161 512.735 437.161 512.735 437.161 503.301 436.855 501.7 433.483L499.793 433.483 499.793 440.84 501.564 440.84 503.301 439.545C503.301 439.545 519.274 441.487 525.677 437.161 532.079 432.836 535.553 428.851 535.553 417.851 535.553 406.85 527.107 398.881 512.258 398.881Z" fill="#001689" fill-rule="nonzero" fill-opacity="1" transform="matrix(1 0 0 1.00164 428.875 304.847)"/><path d="M501.053 749.672 499.112 755.462C496.679 755.884 494.181 755.72 491.824 754.985 483.922 752.874 482.185 747.799 483.854 741.635 484.451 738.755 486.088 736.197 488.452 734.449 491.403 732.81 494.921 732.537 498.09 733.699 500.32 734.223 502.396 735.261 504.152 736.731L502.722 742.078 501.598 741.771C501.326 739.149 501.326 736.015 497.511 734.96 492.198 733.529 490.087 740.749 489.61 742.554 488.724 745.96 487.703 752.363 492.811 753.759 496.217 754.611 497.886 752.329 499.895 749.332Z" fill="#FFFFFF" fill-rule="nonzero" fill-opacity="1" transform="matrix(1 0 0 1.00164 428.875 304.847)"/><path d="M525.132 751.035C523.735 757.846 519.546 761.252 512.633 759.822 505.719 758.391 503.233 753.691 504.629 746.846 506.025 740 510.215 736.628 517.128 738.059 524.042 739.489 526.528 744.223 525.132 751.035ZM510.317 748.004C509.465 752.056 508.75 757.574 512.939 758.425 517.128 759.277 518.593 753.93 519.444 749.877 520.296 745.824 521.011 740.341 516.788 739.455 512.564 738.57 511.066 744.257 510.317 748.004Z" fill="#FFFFFF" fill-rule="nonzero" fill-opacity="1" transform="matrix(1 0 0 1.00164 428.875 304.847)"/><path d="M525.915 762.001 525.915 760.843C527.55 760.843 528.095 761.218 528.537 759.379 528.945 757.791 529.23 756.174 529.389 754.543L530.853 744.325C531.058 742.793 530.853 742.588 528.776 742.214L528.776 741.056 537.018 742.248C537.767 745.96 539.606 753.487 540.185 756.075 542.501 751.682 544.374 748.038 546.656 743.576L554.523 744.7 554.523 745.858C552.446 745.62 552.139 745.858 551.935 747.322L549.789 762.376C549.585 763.874 549.789 764.079 551.867 764.453L551.867 765.611 542.194 764.249 542.194 763.091C544.272 763.329 544.578 763.091 544.783 761.661L546.928 746.675C544.613 751.239 539.947 760.741 538.448 763.704L536.507 763.398C535.315 757.335 533.646 748.753 532.727 744.598L531.296 754.815C531.026 756.438 530.856 758.076 530.785 759.719 530.785 761.729 531.807 761.524 533.374 761.899L533.203 763.057Z" fill="#FFFFFF" fill-rule="nonzero" fill-opacity="1" transform="matrix(1 0 0 1.00164 428.875 304.847)"/><path d="M554.728 765.884 554.728 764.726C556.839 764.726 557.112 764.726 557.214 763.125L558.372 747.969C558.372 746.403 558.372 746.199 556.158 745.96L556.158 744.802 566.546 745.62C568.429 745.563 570.288 746.061 571.893 747.05 573.432 748.326 574.183 750.32 573.868 752.295 573.847 754.226 572.912 756.032 571.348 757.165 568.704 758.417 565.712 758.73 562.867 758.05L562.425 763.534C562.425 765.066 562.425 765.237 565.149 765.577L565.149 766.701ZM563.242 755.258C563.242 756.45 563.889 756.859 565.047 756.927 567.669 757.131 568.453 754.883 568.453 752.09 568.725 748.514 567.193 747.084 565.285 746.948 563.378 746.812 563.719 747.118 563.651 747.935Z" fill="#FFFFFF" fill-rule="nonzero" fill-opacity="1" transform="matrix(1 0 0 1.00164 428.875 304.847)"/><path d="M583.745 767.45 583.745 766.292 585.55 766.122C586.163 766.122 586.231 765.679 586.026 765.066 585.516 763.329 584.834 761.252 584.46 760.026L578.432 760.026C577.921 761.763 577.308 763.432 576.899 765.032 576.899 765.713 576.899 766.054 577.444 766.122L579.283 766.122 579.283 767.314 572.471 767.314 572.471 766.292C574.106 766.292 574.379 765.986 574.924 764.76 576.49 761.116 579.555 751.954 581.429 746.267L585.584 746.267C587.252 751.546 590.215 760.911 591.748 764.998 592.191 766.156 592.599 766.395 594.166 766.429L594.166 767.587ZM581.599 750.422C581.02 752.295 579.828 756.075 579.045 758.527L584.119 758.527C583.37 756.484 582.178 752.397 581.599 750.354Z" fill="#FFFFFF" fill-rule="nonzero" fill-opacity="1" transform="matrix(1 0 0 1.00164 428.875 304.847)"/><path d="M607.619 751.273C606.461 747.663 604.52 746.403 602.578 746.539 600.961 746.574 599.678 747.913 599.713 749.53 599.716 749.669 599.729 749.808 599.752 749.945 599.752 752.227 602.067 752.942 604.622 753.93 607.176 754.917 610.343 756.109 610.582 760.162 610.82 763.363 609.185 766.974 603.021 767.382 600.722 767.668 598.392 767.202 596.38 766.054L595.631 760.435 596.754 760.435C598.253 764.249 600.535 766.224 602.885 766.088 604.52 766.144 605.892 764.864 605.948 763.228 605.954 763.046 605.943 762.863 605.916 762.682 605.916 760.877 604.758 759.822 601.829 758.766 598.117 757.369 595.494 756.075 595.256 752.295 595.018 748.514 596.993 745.722 602.476 745.483 604.492 745.303 606.521 745.643 608.368 746.471L608.709 751.546Z" fill="#FFFFFF" fill-rule="nonzero" fill-opacity="1" transform="matrix(1 0 0 1.00164 428.875 304.847)"/><path d="M625.363 749.434C624.034 746.028 621.957 744.734 620.084 744.938 618.454 745.088 617.255 746.531 617.405 748.16 617.41 748.222 617.418 748.283 617.427 748.344 617.7 750.626 619.914 751.239 622.502 752.09 625.09 752.942 628.292 753.998 628.768 758.051 629.109 761.252 627.679 764.862 621.548 765.611 619.227 766.036 616.831 765.677 614.737 764.59L613.715 759.004 614.839 759.004C616.508 762.716 618.892 764.59 621.208 764.351 622.863 764.33 624.187 762.971 624.166 761.316 624.163 761.122 624.142 760.93 624.103 760.741 623.898 758.936 622.808 757.948 619.811 756.995 616.031 755.803 613.375 754.611 613 750.864 612.625 747.118 614.43 744.223 619.811 743.61 621.813 743.343 623.849 743.577 625.737 744.291L626.316 749.366Z" fill="#FFFFFF" fill-rule="nonzero" fill-opacity="1" transform="matrix(1 0 0 1.00164 428.875 304.847)"/><path d="M639.19 759.856C639.428 761.354 639.701 761.49 641.812 761.252L641.983 762.41 632.038 763.874 631.868 762.716C633.911 762.342 634.184 762.137 633.945 760.639L631.732 745.551C631.493 744.053 631.187 743.883 629.143 744.121L629.143 742.997 639.054 741.499 639.054 742.657C636.976 743.031 636.738 743.236 636.976 744.768Z" fill="#FFFFFF" fill-rule="nonzero" fill-opacity="1" transform="matrix(1 0 0 1.00164 428.875 304.847)"/><path d="M663.371 747.765C664.665 754.577 662.077 759.311 655.129 760.605 648.181 761.899 644.094 758.527 642.8 751.682 641.506 744.836 644.094 740.136 651.008 738.808 657.922 737.48 662.043 740.92 663.371 747.765ZM648.488 750.592C649.271 754.645 650.667 760.026 654.891 759.208 659.114 758.391 658.296 752.908 657.649 748.991 657.002 745.075 655.47 739.557 651.212 740.375 646.955 741.192 647.773 746.846 648.488 750.592Z" fill="#FFFFFF" fill-rule="nonzero" fill-opacity="1" transform="matrix(1 0 0 1.00164 428.875 304.847)"/><path d="M683.124 753.691C678.288 749.161 673.35 744.598 668.377 740.068L668.377 740.068 670.625 748.753C670.991 750.358 671.458 751.94 672.021 753.487 672.669 755.428 673.69 754.747 675.427 754.509L675.7 755.632 668.513 757.506 668.207 756.348C669.74 755.769 670.353 755.871 670.08 753.998 669.817 752.376 669.453 750.772 668.99 749.196L666.436 739.251C666.061 737.752 665.721 737.65 663.711 738.093L663.405 736.969 670.591 735.13C674.814 739.046 678.901 742.657 683.124 746.471L681.557 740.409C680.91 737.889 680.604 736.765 680.229 735.709 679.514 733.802 678.56 734.449 676.823 734.721L676.517 733.597 683.669 731.758 683.976 732.882C682.477 733.461 681.932 733.359 682.171 735.198 682.341 736.288 682.613 737.446 683.26 739.966L686.666 752.806Z" fill="#FFFFFF" fill-rule="nonzero" fill-opacity="1" transform="matrix(1 0 0 1.00164 428.875 304.847)"/><path d="M741.328 308.731 731.111 245.009 645.627 245.009 635.41 308.731 681.694 308.731C685.189 312.493 691.072 312.709 694.834 309.214 695.001 309.059 695.162 308.898 695.317 308.731Z" fill="#001689" fill-rule="nonzero" fill-opacity="1" transform="matrix(1 0 0 1.00164 428.875 304.847)"/><path d="M727.433 292.792 634.218 292.792 643.311 236.87 718.34 236.87 727.433 292.792Z" fill="#E7E3F2" fill-rule="nonzero" fill-opacity="1" transform="matrix(1 0 0 1.00164 436.061 313)"/><path d="M687.96 243.919C687.96 243.919 669.297 235.03 651.178 243.919L647.364 295.38C647.364 295.38 673.009 289.182 688.233 298.377 703.456 289.182 729.102 295.38 729.102 295.38L725.423 243.919C707.305 235.03 688.641 243.919 688.641 243.919Z" fill="#FFFFFF" fill-rule="nonzero" fill-opacity="1" transform="matrix(1 0 0 1.00164 428.875 304.847)"/><path d="M688.233 300.353 687.347 299.842C680.767 296.348 673.367 294.689 665.925 295.04 659.82 295.061 653.735 295.735 647.773 297.049L645.491 297.594 649.544 242.83 650.429 242.387C656.163 239.672 662.443 238.309 668.786 238.402 675.462 238.424 682.069 239.755 688.233 242.319 694.397 239.755 701.004 238.424 707.68 238.402 714.033 238.352 720.314 239.762 726.037 242.523L726.922 242.966 730.975 297.73 728.693 297.185C722.731 295.871 716.646 295.198 710.54 295.176 703.123 294.742 695.725 296.306 689.118 299.706ZM665.925 291.634C673.644 291.317 681.318 292.957 688.233 296.402 695.148 292.957 702.821 291.317 710.54 291.634 716.141 291.669 721.727 292.217 727.229 293.269L723.652 245.214C718.64 242.929 713.188 241.767 707.68 241.808 701.336 241.828 695.061 243.113 689.22 245.588L688.88 245.758 687.586 245.758 687.245 245.588C681.403 243.119 675.129 241.834 668.786 241.808 663.277 241.767 657.826 242.929 652.813 245.214L649.237 293.439C654.733 292.33 660.319 291.726 665.925 291.634Z" fill="#001689" fill-rule="nonzero" fill-opacity="1" transform="matrix(1 0 0 1.00164 428.875 304.847)"/><path d="M681.047 289.386 672.873 297.56 689.22 297.56 681.047 289.386Z" fill="#001689" fill-rule="nonzero" fill-opacity="1" transform="matrix(1 0 0 1.00164 436.061 313)"/><path d="M679.173 234.758 682.579 234.758 682.579 291.225 679.173 291.225Z" fill="#001689" fill-rule="nonzero" fill-opacity="1" transform="matrix(1 0 0 1.00164 436.061 313)"/><path d="M322.626 316.291 352.46 316.291C352.631 315.304 352.767 314.282 352.937 313.294L323.273 313.294C323.069 314.282 322.865 315.304 322.626 316.291Z" fill="#85754E" fill-rule="nonzero" fill-opacity="1" transform="matrix(1 0 0 1.00164 428.875 304.847)"/><path d="M305.836 203.8C303.384 233.328 304.269 246.065 309.242 250.799 311.728 253.183 315.508 253.864 322.354 253.047L322.592 253.047 322.354 253.047C325.033 249.115 328.114 245.474 331.549 242.182L331.106 240.377C324.806 215.073 343.503 180.504 347.386 173.931 351.733 167.337 357.062 161.445 363.189 156.46 371.669 149.648 380.047 146.719 387.812 147.741 367.582 138.716 340.643 147.537 340.302 147.741 321.796 161.082 309.387 181.264 305.836 203.8Z" fill="#85754E" fill-rule="nonzero" fill-opacity="1" transform="matrix(1 0 0 1.00164 428.875 304.847)"/><path d="M325.793 253.83C326.291 254.149 326.738 254.539 327.122 254.988 332.162 260.948 329.506 282.847 324.976 305.189L354.197 305.189C357.263 283.528 359.374 262.31 358.284 252.366 358.245 247.659 355.904 243.27 352.018 240.616 351.288 240.195 350.511 239.864 349.702 239.628 339.859 237.789 333.559 243.136 325.793 253.83Z" fill="#85754E" fill-rule="nonzero" fill-opacity="1" transform="matrix(1 0 0 1.00164 428.875 304.847)"/><path d="M311.762 358.761 315.168 359.851 319.357 340.574 321.843 341.119 317.62 360.77 320.242 361.588 324.295 341.596 326.815 342.107 322.694 362.371 325.759 363.325 330.153 342.55 332.639 343.061 328.212 364.074 331.617 365.096 336.385 343.708 338.872 344.287 333.763 365.675 336.896 366.662 342.209 344.763 344.695 345.342 339.348 367.446 341.903 368.229C345.85 353.81 348.898 339.16 351.03 324.363L320.753 324.363C317.075 339.961 313.328 353.414 311.762 358.761Z" fill="#85754E" fill-rule="nonzero" fill-opacity="1" transform="matrix(1 0 0 1.00164 428.875 304.847)"/><path d="M324.465 307.743 323.546 307.743 322.933 310.74 353.244 310.74C353.244 309.752 353.55 308.731 353.687 307.743Z" fill="#85754E" fill-rule="nonzero" fill-opacity="1" transform="matrix(1 0 0 1.00164 428.875 304.847)"/><path d="M325.078 318.846 321.945 318.846 320.855 321.809 351.507 321.809C351.507 320.821 351.847 319.833 351.984 318.846Z" fill="#85754E" fill-rule="nonzero" fill-opacity="1" transform="matrix(1 0 0 1.00164 428.875 304.847)"/><path d="M570.564 59.0215 573.459 58.1361 573.868 61.1331C574.413 65.22 578.67 97.4383 578.738 109.937L580.203 109.937C580.431 107.038 581.974 104.403 584.392 102.785L585.073 102.377 585.754 102.819C588.058 104.597 589.496 107.273 589.705 110.176 590.215 110.142 590.727 110.142 591.237 110.176 591.237 97.7449 595.562 65.1859 596.107 61.0991L596.516 58.102 599.411 58.9875C606.665 61.3034 625.533 85.8588 633.775 96.9615 635.329 93.6818 637.057 90.4872 638.952 87.3914 628.813 65.7687 614.852 46.1547 597.742 29.4937L596.993 28.7785 588.07 23.4996 581.905 23.4996 573.016 28.7445 572.267 29.4597C555.143 46.1089 541.181 65.7255 531.058 87.3573 532.999 90.5587 534.736 93.7942 536.234 96.9275 544.442 85.8929 563.31 61.3034 570.564 59.0215ZM631.697 82.5552C632.882 82.5552 633.843 83.5159 633.843 84.7009 633.843 85.8858 632.882 86.8465 631.697 86.8465 630.512 86.8465 629.552 85.8858 629.552 84.7009 629.552 83.5159 630.512 82.5552 631.697 82.5552ZM626.112 73.8706C627.297 73.8707 628.257 74.8315 628.257 76.0165 628.257 77.2015 627.296 78.162 626.111 78.1618 624.926 78.1617 623.966 77.2009 623.966 76.0159 623.966 76.0047 623.966 75.9934 623.966 75.9822 623.985 74.8105 624.94 73.8704 626.112 73.8706ZM620.22 64.7091C621.499 64.709 622.536 65.7458 622.536 67.0248 622.536 67.0362 622.536 67.0477 622.536 67.0591 622.555 68.3192 621.549 69.356 620.289 69.375 620.266 69.3754 620.243 69.3754 620.22 69.375 618.941 69.3938 617.889 68.3723 617.87 67.0934 617.87 67.082 617.87 67.0705 617.87 67.0591 617.87 65.7613 618.922 64.7091 620.22 64.7091ZM613.988 56.6716C615.248 56.6526 616.284 57.6588 616.303 58.9189 616.304 58.9417 616.304 58.9646 616.303 58.9875 616.322 60.2664 615.301 61.3184 614.022 61.3372 614.01 61.3374 613.999 61.3375 613.988 61.3375 612.69 61.3375 611.638 60.2853 611.638 58.9875 611.656 57.7086 612.708 56.687 613.987 56.7056 613.987 56.7056 613.987 56.7056 613.988 56.7056ZM607.925 49.3152C609.223 49.3152 610.275 50.3673 610.275 51.6651 610.275 52.963 609.223 54.0151 607.925 54.0151 606.628 54.0151 605.575 52.963 605.575 51.6651 605.594 50.3806 606.641 49.3491 607.925 49.3492ZM601.523 42.5037C602.82 42.5037 603.872 43.5558 603.872 44.8536 603.872 46.1515 602.82 47.2036 601.523 47.2036 600.225 47.2036 599.173 46.1515 599.173 44.8536 599.245 43.6093 600.276 42.6378 601.523 42.6399ZM595.46 35.4879C596.758 35.488 597.81 36.5402 597.81 37.8381 597.81 39.1359 596.758 40.1879 595.46 40.1878 594.162 40.1876 593.11 39.1354 593.11 37.8376 593.11 37.8263 593.11 37.815 593.11 37.8038 593.2 36.5728 594.226 35.6208 595.46 35.6241ZM585.005 28.6764C586.284 28.6576 587.336 29.6791 587.354 30.958 587.355 30.9694 587.355 30.9808 587.355 30.9923 587.355 32.2901 586.302 33.3422 585.005 33.3422 583.707 33.3422 582.655 32.2901 582.655 30.9923 582.745 29.7669 583.776 28.8253 585.005 28.8467ZM585.005 37.94C586.284 37.9212 587.336 38.9427 587.354 40.2216 587.355 40.233 587.355 40.2445 587.355 40.2559 587.355 41.5537 586.302 42.6059 585.005 42.6059 583.707 42.6059 582.655 41.5537 582.655 40.2559 582.745 39.0306 583.776 38.0889 585.005 38.1103ZM585.005 48.1572C586.284 48.1384 587.336 49.1599 587.354 50.4388 587.355 50.4503 587.355 50.4617 587.355 50.4731 587.355 51.771 586.302 52.8231 585.005 52.8231 583.707 52.8231 582.655 51.771 582.655 50.4731 582.745 49.2478 583.776 48.3061 585.005 48.3275ZM585.005 57.2506C586.491 57.2506 587.695 58.4552 587.695 59.9411 587.695 61.427 586.491 62.6316 585.005 62.6316 583.519 62.6316 582.314 61.427 582.314 59.9411 582.404 58.522 583.583 57.418 585.005 57.4208ZM585.005 67.4678C586.735 67.4678 588.138 68.8706 588.138 70.6011 588.138 72.3315 586.735 73.7344 585.005 73.7344 583.274 73.7344 581.871 72.3315 581.871 70.6011 581.962 68.9374 583.339 67.6356 585.005 67.6381ZM585.005 79.5241C586.735 79.5241 588.138 80.9269 588.138 82.6574 588.138 84.3879 586.735 85.7907 585.005 85.7907 583.274 85.7907 581.871 84.3879 581.871 82.6574 581.962 80.9938 583.339 79.6919 585.005 79.6944ZM585.005 91.4102C586.735 91.4102 588.138 92.813 588.138 94.5435 588.138 96.2739 586.735 97.6767 585.005 97.6767 583.274 97.6767 581.871 96.2739 581.871 94.5435 581.962 92.8798 583.339 91.578 585.005 91.5805ZM574.549 35.6241C575.847 35.6242 576.899 36.6764 576.899 37.9743 576.899 39.2721 575.846 40.3241 574.549 40.324 573.251 40.3239 572.199 39.2716 572.199 37.9738 572.199 37.9625 572.199 37.9513 572.199 37.94 572.218 36.6555 573.264 35.6239 574.549 35.6241ZM568.453 42.6399C569.751 42.6399 570.803 43.692 570.803 44.9899 570.803 46.2877 569.751 47.3398 568.453 47.3398 567.155 47.3398 566.103 46.2877 566.103 44.9899 566.103 43.692 567.155 42.6399 568.453 42.6399ZM538.312 86.9146C537.127 86.9333 536.151 85.9879 536.133 84.803 536.114 83.6182 537.06 82.6425 538.244 82.6239 539.429 82.6052 540.405 83.5506 540.423 84.7355 540.424 84.758 540.424 84.7805 540.423 84.803 540.352 85.9215 539.433 86.7969 538.312 86.8124ZM543.897 78.2299C542.712 78.2487 541.737 77.3035 541.718 76.1186 541.699 74.9338 542.644 73.9581 543.829 73.9392 545.014 73.9204 545.99 74.8657 546.009 76.0505 546.009 76.0618 546.009 76.0731 546.009 76.0843 545.955 77.2162 545.03 78.1111 543.897 78.1278ZM549.789 69.5112C548.51 69.53 547.458 68.5085 547.44 67.2296 547.439 67.2182 547.439 67.2068 547.439 67.1953 547.439 65.8975 548.491 64.8454 549.789 64.8454 551.087 64.8454 552.139 65.8975 552.139 67.1953 552.084 68.4476 551.043 69.4287 549.789 69.4091ZM556.022 61.3034C554.724 61.3034 553.672 60.2513 553.672 58.9534 553.672 57.6744 554.708 56.6374 555.987 56.6373 555.999 56.6373 556.01 56.6374 556.022 56.6375 557.282 56.6186 558.319 57.6247 558.338 58.8848 558.338 58.9077 558.338 58.9306 558.338 58.9534 558.356 60.2323 557.335 61.2843 556.056 61.3031 556.045 61.3033 556.033 61.3034 556.022 61.3034ZM559.734 51.6311C559.715 50.3334 560.752 49.2661 562.05 49.2473 563.347 49.2285 564.415 50.2653 564.433 51.563 564.452 52.8607 563.416 53.9279 562.118 53.9467 562.107 53.9469 562.095 53.947 562.084 53.947 560.825 53.9482 559.789 52.957 559.734 51.6992Z" fill="#85754E" fill-rule="nonzero" fill-opacity="1" transform="matrix(1 0 0 1.00164 428.875 304.847)"/><path d="M585.005 33.5125C586.302 33.5125 587.355 32.4604 587.355 31.1626 587.355 29.8647 586.302 28.8126 585.005 28.8126 583.707 28.8126 582.655 29.8647 582.655 31.1626 582.655 32.4604 583.707 33.5125 585.005 33.5125Z" fill="#FFFFFF" fill-rule="nonzero" fill-opacity="1" transform="matrix(1 0 0 1.00164 428.875 304.847)"/><path d="M574.549 40.29C575.847 40.29 576.899 39.2378 576.899 37.94 576.899 36.6421 575.847 35.59 574.549 35.59 573.251 35.59 572.199 36.6421 572.199 37.94 572.199 39.2378 573.251 40.29 574.549 40.29Z" fill="#FFFFFF" fill-rule="nonzero" fill-opacity="1" transform="matrix(1 0 0 1.00164 428.875 304.847)"/><path d="M568.453 47.3058C569.732 47.3246 570.784 46.3031 570.802 45.0242 570.803 45.0128 570.803 45.0013 570.803 44.9899 570.959 43.7014 570.041 42.5305 568.752 42.3746 567.464 42.2186 566.293 43.1367 566.137 44.4251 566.114 44.6127 566.114 44.8023 566.137 44.9899 566.137 46.2689 567.174 47.3058 568.453 47.3058Z" fill="#FFFFFF" fill-rule="nonzero" fill-opacity="1" transform="matrix(1 0 0 1.00164 428.875 304.847)"/><path d="M564.434 51.6992C564.453 50.4015 563.416 49.3342 562.118 49.3154 560.821 49.2966 559.753 50.3334 559.734 51.6311 559.716 52.9288 560.752 53.996 562.05 54.0149 562.061 54.015 562.073 54.0151 562.084 54.0151 563.369 54.0152 564.415 52.9837 564.434 51.6992Z" fill="#FFFFFF" fill-rule="nonzero" fill-opacity="1" transform="matrix(1 0 0 1.00164 428.875 304.847)"/><path d="M556.022 56.7056C554.743 56.6868 553.691 57.7083 553.672 58.9872 553.672 58.9987 553.672 59.0101 553.672 59.0215 553.672 60.3194 554.724 61.3715 556.022 61.3715 557.301 61.3716 558.338 60.3349 558.338 59.0559 558.338 59.0444 558.338 59.033 558.338 59.0215 558.357 57.7615 557.35 56.7246 556.09 56.7056 556.068 56.7053 556.045 56.7053 556.022 56.7056Z" fill="#FFFFFF" fill-rule="nonzero" fill-opacity="1" transform="matrix(1 0 0 1.00164 428.875 304.847)"/><path d="M549.789 64.7091C548.491 64.7091 547.439 65.7613 547.439 67.0591 547.439 68.357 548.491 69.4091 549.789 69.4091 551.087 69.4091 552.139 68.357 552.139 67.0591 552.139 65.7613 551.087 64.7091 549.789 64.7091Z" fill="#FFFFFF" fill-rule="nonzero" fill-opacity="1" transform="matrix(1 0 0 1.00164 428.875 304.847)"/><path d="M543.897 73.8706C542.712 73.8519 541.737 74.7973 541.718 75.9822 541.7 77.167 542.645 78.1426 543.83 78.1613 545.015 78.18 545.99 77.2346 546.009 76.0497 546.009 76.0272 546.009 76.0047 546.009 75.9821 545.991 74.8236 545.056 73.8888 543.897 73.8706Z" fill="#FFFFFF" fill-rule="nonzero" fill-opacity="1" transform="matrix(1 0 0 1.00164 428.875 304.847)"/><path d="M538.312 82.5552C537.127 82.5364 536.151 83.4817 536.133 84.6665 536.114 85.8514 537.059 86.8271 538.244 86.8459 539.429 86.8647 540.404 85.9195 540.423 84.7346 540.423 84.7234 540.423 84.7121 540.423 84.7009 540.424 83.529 539.484 82.5738 538.312 82.5552Z" fill="#FFFFFF" fill-rule="nonzero" fill-opacity="1" transform="matrix(1 0 0 1.00164 428.875 304.847)"/><path d="M595.46 40.29C596.758 40.29 597.81 39.2378 597.81 37.94 597.81 36.6421 596.758 35.59 595.46 35.59 594.162 35.59 593.11 36.6421 593.11 37.94 593.11 39.2378 594.162 40.29 595.46 40.29Z" fill="#FFFFFF" fill-rule="nonzero" fill-opacity="1" transform="matrix(1 0 0 1.00164 428.875 304.847)"/><path d="M601.523 47.3058C602.801 47.3246 603.853 46.3031 603.872 45.0242 603.872 45.0128 603.872 45.0013 603.872 44.9899 603.872 43.692 602.82 42.6399 601.523 42.6399 600.225 42.6399 599.173 43.692 599.173 44.9899 599.172 46.2689 600.209 47.3059 601.488 47.306 601.5 47.306 601.511 47.306 601.523 47.3058Z" fill="#FFFFFF" fill-rule="nonzero" fill-opacity="1" transform="matrix(1 0 0 1.00164 428.875 304.847)"/><path d="M607.925 54.0151C609.214 53.8591 610.132 52.6882 609.976 51.3998 609.846 50.3257 608.999 49.4792 607.925 49.3492 606.637 49.1933 605.466 50.1113 605.31 51.3998 605.154 52.6882 606.072 53.8591 607.361 54.0151 607.548 54.0378 607.738 54.0378 607.925 54.0151Z" fill="#FFFFFF" fill-rule="nonzero" fill-opacity="1" transform="matrix(1 0 0 1.00164 428.875 304.847)"/><path d="M613.988 61.3034C615.267 61.3035 616.304 60.2668 616.304 58.9877 616.304 58.9763 616.304 58.9649 616.303 58.9534 616.322 57.6933 615.316 56.6565 614.056 56.6375 614.033 56.6372 614.01 56.6372 613.987 56.6375 612.709 56.6187 611.657 57.6402 611.638 58.9191 611.638 58.9306 611.638 58.942 611.638 58.9534 611.638 60.2513 612.69 61.3034 613.987 61.3034Z" fill="#FFFFFF" fill-rule="nonzero" fill-opacity="1" transform="matrix(1 0 0 1.00164 428.875 304.847)"/><path d="M620.22 69.4091C621.48 69.428 622.517 68.4219 622.536 67.1618 622.536 67.1389 622.536 67.116 622.536 67.0932 622.555 65.8143 621.533 64.7622 620.254 64.7434 620.243 64.7433 620.232 64.7432 620.22 64.7432 618.922 64.7432 617.87 65.7953 617.87 67.0932 617.87 68.3722 618.907 69.4092 620.186 69.4093 620.197 69.4093 620.209 69.4092 620.22 69.4091Z" fill="#FFFFFF" fill-rule="nonzero" fill-opacity="1" transform="matrix(1 0 0 1.00164 428.875 304.847)"/><path d="M626.112 78.1278C627.297 78.1278 628.258 77.1671 628.258 75.9822 628.258 74.7972 627.297 73.8365 626.112 73.8365 624.927 73.8365 623.966 74.7972 623.966 75.9822 623.966 77.1671 624.927 78.1278 626.112 78.1278Z" fill="#FFFFFF" fill-rule="nonzero" fill-opacity="1" transform="matrix(1 0 0 1.00164 428.875 304.847)"/><path d="M631.697 86.8124C632.882 86.8123 633.843 85.8515 633.843 84.6665 633.843 83.4815 632.882 82.521 631.697 82.5212 630.512 82.5213 629.551 83.4821 629.552 84.6671 629.552 84.6783 629.552 84.6896 629.552 84.7009 629.57 85.8725 630.526 86.8126 631.697 86.8124Z" fill="#FFFFFF" fill-rule="nonzero" fill-opacity="1" transform="matrix(1 0 0 1.00164 428.875 304.847)"/><path d="M585.005 42.7761C586.302 42.7761 587.355 41.724 587.355 40.4262 587.355 39.1283 586.302 38.0762 585.005 38.0762 583.707 38.0762 582.655 39.1283 582.655 40.4262 582.655 41.724 583.707 42.7761 585.005 42.7761Z" fill="#FFFFFF" fill-rule="nonzero" fill-opacity="1" transform="matrix(1 0 0 1.00164 428.875 304.847)"/><path d="M585.005 52.9934C586.302 52.9934 587.355 51.9413 587.355 50.6434 587.355 49.3456 586.302 48.2935 585.005 48.2935 583.707 48.2935 582.655 49.3456 582.655 50.6434 582.655 51.9413 583.707 52.9934 585.005 52.9934Z" fill="#FFFFFF" fill-rule="nonzero" fill-opacity="1" transform="matrix(1 0 0 1.00164 428.875 304.847)"/><path d="M585.005 62.8019C586.491 62.8019 587.695 61.5973 587.695 60.1114 587.695 58.6254 586.491 57.4208 585.005 57.4208 583.519 57.4208 582.314 58.6254 582.314 60.1114 582.314 61.5973 583.519 62.8019 585.005 62.8019Z" fill="#FFFFFF" fill-rule="nonzero" fill-opacity="1" transform="matrix(1 0 0 1.00164 428.875 304.847)"/><path d="M585.005 73.9046C586.735 73.9046 588.138 72.5018 588.138 70.7714 588.138 69.0409 586.735 67.6381 585.005 67.6381 583.274 67.6381 581.871 69.0409 581.871 70.7714 581.871 72.5018 583.274 73.9046 585.005 73.9046Z" fill="#FFFFFF" fill-rule="nonzero" fill-opacity="1" transform="matrix(1 0 0 1.00164 428.875 304.847)"/><path d="M585.005 85.961C586.735 85.961 588.138 84.5582 588.138 82.8277 588.138 81.0972 586.735 79.6944 585.005 79.6944 583.274 79.6944 581.871 81.0972 581.871 82.8277 581.871 84.5582 583.274 85.961 585.005 85.961Z" fill="#FFFFFF" fill-rule="nonzero" fill-opacity="1" transform="matrix(1 0 0 1.00164 428.875 304.847)"/><path d="M585.005 97.847C586.735 97.847 588.138 96.4442 588.138 94.7137 588.138 92.9833 586.735 91.5805 585.005 91.5805 583.274 91.5805 581.871 92.9833 581.871 94.7137 581.871 96.4442 583.274 97.847 585.005 97.847Z" fill="#FFFFFF" fill-rule="nonzero" fill-opacity="1" transform="matrix(1 0 0 1.00164 428.875 304.847)"/><path d="M566.375 0 575.945 8.10567 579.692 8.10567 589.262 0 566.375 0Z" fill="#85754E" fill-rule="nonzero" fill-opacity="1" transform="matrix(1 0 0 1.00164 436.061 313)"/><path d="M581.429 10.0129 581.429 12.7034 589.739 17.6077 589.739 2.92894 581.429 10.0129Z" fill="#85754E" fill-rule="nonzero" fill-opacity="1" transform="matrix(1 0 0 1.00164 436.061 313)"/><path d="M565.898 17.6077 574.208 12.7034 574.208 10.0129 565.898 2.92894 565.898 17.6077Z" fill="#85754E" fill-rule="nonzero" fill-opacity="1" transform="matrix(1 0 0 1.00164 436.061 313)"/><path d="M507.217 107.69C508.444 97.1659 510.623 90.3885 514.029 87.5617 510.623 86.4378 504.561 87.5617 495.876 91.1377 481.334 97.0296 480.755 129.691 480.755 130.031 480.167 139.319 478.323 148.485 475.272 157.277 474.08 162.25 469.55 174.306 452.896 182.309L454.36 182.309C474.795 182.309 491.108 166.371 491.653 165.826 502.313 154.927 504.254 135.923 506.094 117.498 506.502 114.229 506.843 110.925 507.217 107.69Z" fill="#85754E" fill-rule="nonzero" fill-opacity="1" transform="matrix(1 0 0 1.00164 428.875 304.847)"/><path d="M563.31 129.044C562.954 128.154 562.692 127.229 562.527 126.285L562.527 125.944 562.22 125.944C560.96 125.229 560.245 124.48 560.313 124.003 560.381 123.526 561.88 122.607 562.901 122.334L563.31 122.334 563.31 121.926C563.675 120.065 565.331 118.74 567.227 118.792L568.01 118.792 568.282 118.009C568.21 116.671 569.144 115.489 570.462 115.25L571.109 115.25 571.109 114.603C570.95 113.544 571.219 112.466 571.859 111.606 572.149 111.306 572.534 111.114 572.948 111.061L573.629 111.3C573.8 103.841 571.382 82.0444 569.304 66.0033 562.493 71.725 548.427 89.2305 538.652 102.683 542.595 112.145 545.22 122.103 546.452 132.279 547.678 131.904 548.972 131.53 550.436 131.189 554.681 130.219 558.98 129.503 563.31 129.044Z" fill="#85754E" fill-rule="nonzero" fill-opacity="1" transform="matrix(1 0 0 1.00164 428.875 304.847)"/><path d="M540.764 167.086C535.271 168.194 529.562 167.21 524.757 164.327 517.673 160.921 517.639 137.762 518.286 110.312 518.573 104.753 518.573 99.1829 518.286 93.6239 518.149 92.2446 517.694 90.9159 516.958 89.7414 515.63 90.4225 512.326 93.5558 510.589 108.064 510.215 111.3 509.908 114.603 509.567 117.907 507.728 136.332 505.787 155.37 495.195 167.154 499.389 172.974 505.137 177.494 511.781 180.198 528.435 178.052 536.677 172.16 540.764 167.086Z" fill="#85754E" fill-rule="nonzero" fill-opacity="1" transform="matrix(1 0 0 1.00164 428.875 304.847)"/><path d="M600.671 65.6968C598.594 81.7719 596.176 103.535 596.346 111.061L597.299 110.755C597.643 110.882 597.956 111.079 598.219 111.334 598.843 112.187 599.111 113.249 598.968 114.297L598.968 114.944 599.615 114.944C600.925 115.196 601.853 116.37 601.795 117.703L601.795 118.486 602.646 118.486C604.598 118.357 606.35 119.674 606.767 121.585L606.767 121.994 607.176 121.994C608.164 122.232 609.696 122.981 609.764 123.663 609.833 124.344 609.117 124.889 607.857 125.604L607.551 125.604 607.551 125.944C607.387 126.826 607.148 127.692 606.835 128.533 612.485 128.856 618.1 129.631 623.626 130.849 624.924 120.946 627.523 111.258 631.357 102.036 621.514 88.924 607.517 71.5206 600.671 65.6968Z" fill="#85754E" fill-rule="nonzero" fill-opacity="1" transform="matrix(1 0 0 1.00164 428.875 304.847)"/><path d="M401.878 153.769C407.463 157.175 412.674 161.126 417.749 164.94 427.285 172.058 436.378 178.836 446.391 181.356 454.487 178.735 461.607 173.739 466.825 167.018 458.175 169.913 447.685 159.866 433.245 146.072L429.839 142.667C404.534 118.588 353.857 139.261 353.346 139.601 351.847 140.351 350.417 141.1 349.021 141.883 353.627 140.979 358.295 140.422 362.984 140.214 379.877 139.636 393.295 144.267 401.878 153.769Z" fill="#85754E" fill-rule="nonzero" fill-opacity="1" transform="matrix(1 0 0 1.00164 428.875 304.847)"/><path d="M547.984 160.07 547.984 160.07C547.965 160.171 547.965 160.275 547.984 160.376 547.984 160.376 547.984 160.547 547.984 160.649L547.984 160.853 547.984 161.126C548.004 161.216 548.004 161.308 547.984 161.398L547.984 161.671C547.943 161.824 547.885 161.972 547.814 162.113L547.814 162.113C547.75 162.334 547.67 162.551 547.576 162.76L547.576 162.761C547.576 162.761 547.576 163.169 547.337 163.374 547.337 163.578 547.337 163.782 547.065 163.953L547.065 164.157C546.995 164.359 546.903 164.553 546.792 164.736L546.792 164.974 546.486 165.587 546.486 165.792 546.077 166.439 546.077 166.643 545.566 167.392C545.122 168.03 544.644 168.644 544.136 169.231L544.136 169.231C543.893 169.542 543.631 169.838 543.352 170.117L543.182 170.321C542.944 170.56 542.739 170.798 542.467 171.036L542.229 171.275 541.513 171.956 541.207 172.228 540.458 172.876 540.117 173.148 539.3 173.795 538.959 174.034 537.971 174.749 537.699 174.919C536.796 175.56 535.852 176.14 534.872 176.656L534.531 176.656 533.305 177.303 532.795 177.576 531.671 178.086 530.99 178.359 529.9 178.836 529.15 179.142 527.992 179.551 527.209 179.823C526.8 179.99 526.379 180.127 525.949 180.232L525.132 180.504 523.701 180.913 522.952 181.117 520.67 181.662C522.147 181.897 523.637 182.045 525.132 182.105L528.231 182.105 529.185 182.105 531.16 182.105 532.25 182.105 533.953 182.105 535.042 182.105 536.609 181.867 537.631 181.867 539.163 181.526 540.117 181.322 541.684 180.913 542.433 180.709 544.374 180.028 544.613 180.028 546.69 179.176 547.167 178.938 548.631 178.223 549.244 177.882 550.436 177.235 551.083 176.826 552.173 176.111 552.752 175.702C553.127 175.464 553.433 175.191 553.774 174.953L554.319 174.544 555.341 173.693 555.749 173.318 556.907 172.228 557.112 172.228 558.372 170.9 558.372 170.696 559.325 169.572C559.457 169.44 559.572 169.291 559.666 169.129L560.381 168.21C560.514 168.057 560.639 167.898 560.756 167.733 560.96 167.426 561.164 167.154 561.335 166.847 561.46 166.685 561.574 166.515 561.675 166.337 561.88 166.064 562.05 165.758 562.22 165.485L562.527 164.974C562.729 164.699 562.901 164.402 563.038 164.089L563.31 163.646 563.821 162.658C563.827 162.545 563.827 162.431 563.821 162.318 564.059 161.875 564.264 161.432 564.434 161.024 564.447 160.922 564.447 160.819 564.434 160.717 564.434 160.376 564.74 160.07 564.843 159.763 564.925 159.599 564.994 159.428 565.047 159.253L565.354 158.537C565.421 158.359 565.478 158.177 565.524 157.992 565.618 157.794 565.698 157.589 565.762 157.379 565.772 157.198 565.772 157.016 565.762 156.835L565.967 156.256C566.013 156.071 566.069 155.889 566.137 155.711 566.137 155.711 566.137 155.404 566.137 155.234 566.137 155.064 566.137 154.859 566.137 154.689L566.137 154.348C566.149 154.156 566.149 153.962 566.137 153.769 552.241 155.472 548.597 159.15 547.984 160.07Z" fill="#85754E" fill-rule="nonzero" fill-opacity="1" transform="matrix(1 0 0 1.00164 428.875 304.847)"/><path d="M647.909 181.526 646.444 181.083 645.627 180.845 644.367 180.504 643.583 180.198 642.426 179.789 641.642 179.483 640.586 179.04 639.871 178.699 638.849 178.223 638.202 177.916 637.215 177.405 636.636 177.099 635.682 176.52 635.171 176.247 634.184 175.6 633.843 175.362C632.994 174.804 632.176 174.202 631.391 173.557L631.391 173.557 630.437 172.739 630.063 172.331C629.824 172.092 629.552 171.888 629.347 171.65L629.041 171.377 628.428 170.73 628.155 170.423 627.611 169.81 627.372 169.504 626.861 168.891 626.657 168.584 626.18 167.971 626.01 167.699 625.567 167.086 625.567 166.847 625.158 166.166C624.714 165.408 624.316 164.623 623.966 163.816L623.966 163.816C623.901 163.629 623.822 163.446 623.728 163.271 623.743 163.204 623.743 163.134 623.728 163.067 623.692 162.912 623.635 162.763 623.558 162.624L623.558 162.386 623.558 162.011 623.558 161.773C623.558 161.773 623.558 161.568 623.558 161.466L623.558 161.228C623.558 161.228 623.558 161.058 623.558 160.955L623.558 160.751 623.558 160.002 623.353 160.002C621.469 156.778 615.452 154.609 605.303 153.497L605.507 154.314 605.712 155.098 605.712 155.336C605.712 155.574 605.712 155.847 605.95 156.119L605.95 156.392C605.95 156.664 606.12 156.937 606.188 157.209L606.188 157.448C606.335 157.899 606.505 158.343 606.699 158.776 606.699 159.014 606.87 159.253 606.972 159.525 607.074 159.798 606.972 159.866 607.176 160.036L607.517 160.785 607.755 161.296 608.13 162.113 608.402 162.624C608.402 162.897 608.675 163.169 608.845 163.442 608.922 163.619 609.013 163.79 609.117 163.953 609.254 164.266 609.426 164.563 609.628 164.838 609.699 165.008 609.79 165.168 609.901 165.315L610.514 166.268 610.752 166.677 611.57 167.835 611.57 168.039C612.251 168.97 613 169.89 613.817 170.798L614.022 171.036 615.043 172.092C615.177 172.208 615.302 172.334 615.418 172.467L616.406 173.386 616.848 173.761 617.87 174.613 618.347 175.021 619.437 175.805C619.604 175.948 619.787 176.074 619.982 176.179L621.174 176.962 621.685 177.303 623.115 178.086 623.524 178.325C624.837 179.007 626.191 179.609 627.576 180.13L628.121 180.334 629.756 180.879 630.573 181.117 632.072 181.526 633.026 181.73 634.558 182.037 635.58 182.241 637.181 182.48 638.271 182.48 639.973 182.48 641.063 182.48 643.039 182.48 644.026 182.48C645.014 182.48 646.07 182.48 647.125 182.48 648.62 182.42 650.11 182.272 651.587 182.037L649.271 181.492Z" fill="#85754E" fill-rule="nonzero" fill-opacity="1" transform="matrix(1 0 0 1.00164 428.875 304.847)"/><path d="M551.731 141.849C548.631 142.224 546.281 143.62 546.418 144.948 546.554 146.277 549.21 147.026 552.31 146.651 555.409 146.277 557.759 144.914 557.588 143.586 557.418 142.258 554.625 141.509 551.731 141.849Z" fill="#FFFFFF" fill-rule="nonzero" fill-opacity="1" transform="matrix(1 0 0 1.00164 428.875 304.847)"/><path d="M566.035 144.335C569.134 144.335 571.586 142.973 571.518 141.645 571.45 140.317 568.861 139.363 565.762 139.533 562.663 139.704 560.211 140.896 560.279 142.224 560.347 143.552 562.935 144.506 566.035 144.335Z" fill="#FFFFFF" fill-rule="nonzero" fill-opacity="1" transform="matrix(1 0 0 1.00164 428.875 304.847)"/><path d="M584.971 142.53C588.07 142.53 590.624 141.475 590.624 140.146 590.624 138.818 588.104 137.728 585.005 137.694 581.905 137.66 579.385 138.75 579.385 140.078 579.385 141.406 581.871 142.496 584.971 142.53Z" fill="#FFFFFF" fill-rule="nonzero" fill-opacity="1" transform="matrix(1 0 0 1.00164 428.875 304.847)"/><path d="M617.87 146.651C620.935 147.026 623.592 146.243 623.728 144.948 623.864 143.654 621.514 142.224 618.449 141.849 615.384 141.475 612.727 142.258 612.557 143.586 612.387 144.914 614.771 146.447 617.87 146.651Z" fill="#FFFFFF" fill-rule="nonzero" fill-opacity="1" transform="matrix(1 0 0 1.00164 428.875 304.847)"/><path d="M603.975 144.335C607.074 144.335 609.662 143.552 609.73 142.224 609.798 140.896 607.346 139.704 604.213 139.533 601.08 139.363 598.56 140.317 598.491 141.645 598.423 142.973 600.875 144.199 603.975 144.335Z" fill="#FFFFFF" fill-rule="nonzero" fill-opacity="1" transform="matrix(1 0 0 1.00164 428.875 304.847)"/><path d="M585.039 122.607C583.684 122.607 582.587 123.705 582.587 125.059 582.587 126.413 583.684 127.511 585.039 127.511 586.393 127.511 587.491 126.413 587.491 125.059 587.51 123.724 586.443 122.626 585.107 122.607 585.084 122.606 585.062 122.606 585.039 122.607Z" fill="#FFFFFF" fill-rule="nonzero" fill-opacity="1" transform="matrix(1 0 0 1.00164 428.875 304.847)"/><path d="M679.208 514.574 685.44 505.174 674.882 509.159 671.442 498.397 667.969 509.159 657.445 505.174 663.677 514.574 653.971 520.33 665.21 521.283 663.677 532.488 671.442 524.314 679.208 532.488 677.675 521.283 688.914 520.33 679.208 514.574Z" fill="#FFFFFF" fill-rule="nonzero" fill-opacity="1" transform="matrix(1 0 0 1.00164 436.061 313)"/><path d="M712.482 436.31 718.51 427.217 708.293 431.099 704.955 420.712 701.617 431.099 691.4 427.217 697.462 436.31 688.062 441.895 698.927 442.815 697.428 453.645 704.955 445.744 712.482 453.645 710.983 442.815 721.847 441.895 712.482 436.31Z" fill="#FFFFFF" fill-rule="nonzero" fill-opacity="1" transform="matrix(1 0 0 1.00164 436.061 313)"/><path d="M692.115 469.788 689.186 462.568 686.257 469.788 678.492 470.333 684.452 475.34 682.579 482.9 689.186 478.814 695.794 482.9 693.954 475.34 699.88 470.333 692.115 469.788Z" fill="#FFFFFF" fill-rule="nonzero" fill-opacity="1" transform="matrix(1 0 0 1.00164 436.061 313)"/><path d="M668.752 407.055 667.287 417.578 674.61 409.881 681.932 417.578 680.468 407.055 691.06 406.135 681.932 400.72 687.824 391.865 677.879 395.611 674.61 385.496 671.374 395.611 661.43 391.865 667.287 400.72 658.16 406.135 668.752 407.055Z" fill="#FFFFFF" fill-rule="nonzero" fill-opacity="1" transform="matrix(1 0 0 1.00164 436.061 313)"/><path d="M640.416 442.338 646.683 432.938 636.125 436.923 632.651 426.195 629.211 436.923 618.653 432.938 624.886 442.338 615.18 448.094 626.453 449.081 624.886 460.252 632.651 452.078 640.45 460.252 638.884 449.081 650.122 448.094 640.416 442.338Z" fill="#FFFFFF" fill-rule="nonzero" fill-opacity="1" transform="matrix(1 0 0 1.00164 436.061 313)"/><path d="M584.903 152.441C578.977 152.441 573.97 152.748 569.747 153.19 569.016 156.25 567.978 159.228 566.648 162.079 578.99 163.327 591.427 163.327 603.77 162.079 602.44 159.197 601.413 156.183 600.705 153.088 596.005 152.611 590.897 152.441 584.903 152.441Z" fill="#85754E" fill-rule="nonzero" fill-opacity="1" transform="matrix(1 0 0 1.00164 428.875 304.847)"/><path d="M624.171 136.638C623.023 136.124 621.807 135.78 620.561 135.617 614.426 134.638 608.24 134.013 602.033 133.744L601.08 133.744 600.501 133.744 599.82 133.744 599.343 133.744C597.245 133.102 595.29 132.061 593.587 130.678L594.2 130.678C595.271 130.675 596.337 130.526 597.367 130.236 598.578 130.066 599.695 129.49 600.535 128.601 600.721 128.351 600.871 128.076 600.978 127.784L600.978 127.784C601.148 127.307 601.25 127 602.715 126.694L604.179 126.353 602.987 125.434C601.516 124.316 600.297 122.9 599.411 121.279L599.649 120.904 599.343 120.631C598.914 120.069 598.245 119.741 597.538 119.746 597.187 119.748 596.84 119.817 596.516 119.95L596.176 117.805 595.869 117.6C595.064 117.226 594.199 116.995 593.315 116.919 591.537 118.51 589.635 119.957 587.627 121.244L586.912 120.189 586.197 119.133C588.369 117.759 590.4 116.173 592.259 114.399L592.94 113.65C593.1 113.45 593.237 113.233 593.349 113.003 592.739 112.839 592.107 112.77 591.476 112.798 590.597 112.813 589.72 112.893 588.853 113.037L587.355 113.309 587.355 111.777C587.442 109.517 586.635 107.314 585.107 105.646 583.59 107.215 582.757 109.322 582.791 111.504L582.791 113.105 581.224 112.832C580.404 112.672 579.573 112.57 578.738 112.526 578.208 112.443 577.668 112.443 577.137 112.526 577.306 112.883 577.524 113.216 577.784 113.513L577.784 113.513C579.678 115.651 581.816 117.56 584.153 119.201L583.404 120.257 582.689 121.313C580.77 120.007 578.959 118.549 577.274 116.953 576.261 116.977 575.264 117.209 574.345 117.634L574.038 117.839 573.732 119.984C573.405 119.858 573.06 119.789 572.71 119.78 571.993 119.775 571.314 120.102 570.871 120.666L570.632 121.04 570.871 121.449C569.841 122.907 568.588 124.194 567.159 125.263L566.001 126.183 567.465 126.523C568.895 126.83 568.998 127.136 569.168 127.613L569.372 128.056C569.46 128.263 569.574 128.458 569.713 128.635 570.566 129.45 571.647 129.984 572.812 130.168 573.843 130.456 574.909 130.604 575.979 130.61L576.627 130.61C574.953 131.965 573.033 132.982 570.973 133.607L570.462 133.607 569.713 133.607 569.1 133.607 568.112 133.607C562.991 133.904 557.895 134.53 552.854 135.48 551.269 135.786 549.7 136.173 548.154 136.638 543.216 138.171 542.092 139.67 541.82 140.249 539.402 145.732 542.331 152.169 544.681 155.949 548.086 152.543 557.452 147.332 584.971 147.196 615.35 147.196 623.285 151.692 626.384 156.46 627.768 154.372 628.557 151.946 628.666 149.444 629.195 144.714 627.541 140 624.171 136.638ZM585.039 122.607C586.393 122.588 587.506 123.67 587.525 125.025 587.544 126.379 586.461 127.492 585.107 127.511 583.753 127.529 582.64 126.447 582.621 125.093 582.621 125.081 582.621 125.07 582.621 125.059 582.62 123.718 583.698 122.625 585.039 122.607ZM552.139 146.651C549.04 147.026 546.418 146.243 546.247 144.948 546.077 143.654 548.461 142.224 551.56 141.849 554.659 141.475 557.282 142.258 557.418 143.586 557.554 144.914 555.136 146.447 552.139 146.651ZM566.035 144.335C562.935 144.335 560.347 143.552 560.279 142.224 560.211 140.896 562.663 139.704 565.762 139.533 568.861 139.363 571.45 140.317 571.518 141.645 571.586 142.973 569.134 144.199 566.035 144.335ZM584.971 142.53C581.871 142.53 579.351 141.406 579.385 140.078 579.419 138.75 581.905 137.694 585.005 137.694 588.104 137.694 590.624 138.818 590.624 140.146 590.624 141.475 588.07 142.53 584.971 142.53ZM603.975 144.335C600.875 144.335 598.423 142.973 598.491 141.645 598.56 140.317 601.114 139.363 604.213 139.533 607.312 139.704 609.798 140.896 609.73 142.224 609.662 143.552 607.074 144.506 603.975 144.335ZM617.87 146.651C614.771 146.277 612.421 144.914 612.557 143.586 612.693 142.258 615.35 141.509 618.449 141.849 621.548 142.19 623.898 143.62 623.728 144.948 623.558 146.277 620.935 147.026 617.87 146.651Z" fill="#85754E" fill-rule="nonzero" fill-opacity="1" transform="matrix(1 0 0 1.00164 428.875 304.847)"/></g></g></g></g></svg>